<svg width="199" height="181" viewBox="0 0 199 181" fill="none" xmlns="http://www.w3.org/2000/svg">
<path d="M14.2025 93.8059C17.7104 104.102 29.9082 112.875 46.043 118.691C61.0913 124.126 79.589 126.973 97.6331 126.072C101.189 125.9 104.736 125.568 108.224 125.101C126.39 122.611 143.316 115.924 154.811 103.803C155.981 102.582 157.086 101.3 158.126 99.9565C174.316 79.2707 178.731 41.8432 159.048 21.7165C152.144 14.6673 143.531 11.0019 134.551 9.43481C133.968 9.33267 133.384 9.23054 132.788 9.16645C132.771 9.16939 132.732 9.1577 132.714 9.16063C120.58 7.42834 107.984 9.32498 98.1942 11.7148C90.7752 13.5152 84.956 15.5929 82.2126 16.5863C79.6236 17.5182 77.0342 18.5583 74.4622 19.7038C64.3285 24.2242 54.488 30.3012 45.7588 37.241C23.67 54.7516 8.6841 77.6374 14.2025 93.8059Z" fill="#39A9EA"/>
<path d="M91.8084 18.5605C91.8084 18.5605 162.548 24.5156 176.2 49.7601C191.914 89.4299 170.145 109.508 142.971 129.1" stroke="#FACA3E" stroke-width="2" stroke-miterlimit="10" stroke-dasharray="12 12"/>
<path d="M175.685 79.8662C176.52 92.4263 169.225 106.528 157.391 118.847C146.359 130.349 131.351 140.292 115.323 145.966C112.167 147.091 108.957 148.037 105.748 148.813C89.0143 152.794 71.7757 151.726 57.2081 142.708C55.7302 141.804 54.2856 140.809 52.8743 139.723C30.9933 123.066 13.0324 83.7461 22.5512 54.4594C25.8935 44.1985 31.9987 37.0088 39.2149 31.9795C39.6838 31.6523 40.1527 31.3251 40.6464 31.0351C40.663 31.0317 40.692 31.0047 40.7086 31.0014C50.6045 24.627 62.2713 22.0526 71.685 21.0534C78.8147 20.2847 84.658 20.4098 87.418 20.484C90.0205 20.5479 92.6643 20.7301 95.3327 21.034C105.849 22.2391 116.698 25.2557 126.905 29.6264C152.717 40.6312 174.382 60.1391 175.685 79.8662Z" fill="#FACA3E"/>
<path d="M13.7828 51.8331C16.0704 51.8331 17.9249 49.9786 17.9249 47.691C17.9249 45.4033 16.0704 43.5488 13.7828 43.5488C11.4951 43.5488 9.64062 45.4033 9.64062 47.691C9.64062 49.9786 11.4951 51.8331 13.7828 51.8331Z" stroke="white" stroke-width="2"/>
<path d="M178.137 36.8467C179.624 36.8467 180.829 35.6415 180.829 34.1548C180.829 32.6681 179.624 31.4629 178.137 31.4629C176.651 31.4629 175.445 32.6681 175.445 34.1548C175.445 35.6415 176.651 36.8467 178.137 36.8467Z" stroke="white" stroke-width="2"/>
<path d="M193.358 53.5876L196.214 51.868L192.881 51.8923L190.782 48.6274L190.696 52.5078L187.839 54.2276L191.173 54.2031L193.272 57.468L193.358 53.5876Z" fill="#FACA3E"/>
<path d="M5.48789 79.9913L8.70313 79.1107L5.48789 78.23L4.35303 74.5183L3.21818 78.23L0.00179768 79.1107L3.21818 79.9913L4.35303 83.703L5.48789 79.9913Z" fill="#FACA3E"/>
<path d="M47.1903 100.314C47.1903 100.314 20.4001 129.165 65.222 159.819C96.3918 175.017 118.545 154.152 118.545 154.152" stroke="#39A9EA" stroke-width="2" stroke-miterlimit="10" stroke-dasharray="12 12"/>
<path d="M72.75 84.5884L153.128 70.6818L158.251 100.295C160.778 114.897 150.988 128.783 136.386 131.309L82.448 140.641L72.75 84.5884Z" fill="#FEF4D8"/>
<path fill-rule="evenodd" clip-rule="evenodd" d="M150.941 73.7833L75.8515 86.7749L84.6345 137.54L135.928 128.665C149.07 126.391 157.881 113.894 155.607 100.752L150.941 73.7833ZM72.75 84.5884L82.448 140.641L136.386 131.309C150.988 128.783 160.778 114.897 158.251 100.295L153.128 70.6818L72.75 84.5884Z" fill="#212C5F"/>
<path d="M38.4023 37.1575L57.4392 33.8638L118.78 23.2509L137.444 131.126L72.9304 142.288C64.169 143.804 55.8375 137.93 54.3217 129.169L38.4023 37.1575Z" fill="#9CD4F4"/>
<path fill-rule="evenodd" clip-rule="evenodd" d="M134.343 128.94L116.594 26.3524L41.5038 39.344L56.9657 128.711C58.2289 136.013 65.1717 140.907 72.473 139.644L134.343 128.94ZM38.4023 37.1575L54.3217 129.169C55.8375 137.93 64.169 143.804 72.9304 142.288L137.444 131.126L118.78 23.2509L38.4023 37.1575Z" fill="#212C5F"/>
<path d="M121.795 57.9795L121.18 54.4244C121.456 55.6334 121.659 56.8185 121.795 57.9795L134.034 128.721L72.2006 139.419C65.9495 140.501 60.1189 135.89 61.254 129.648C63.6389 116.534 71.7481 100.609 92.5458 96.6857C103.72 92.5999 124.286 79.3601 121.795 57.9795Z" fill="#BDE2F8"/>
<path d="M51.2856 51.812C51.0329 50.3517 52.0119 48.9632 53.4721 48.7105L106.352 39.5615C107.812 39.3088 109.201 40.2878 109.454 41.748L113.662 66.0729C113.915 67.5331 112.936 68.9217 111.476 69.1743L58.5956 78.3234C57.1353 78.576 55.7468 77.5971 55.4941 76.1368L51.2856 51.812Z" fill="white"/>
<path fill-rule="evenodd" clip-rule="evenodd" d="M106.627 41.1479L53.7466 50.2969C53.1625 50.398 52.7709 50.9534 52.872 51.5375L57.0805 75.8623C57.1816 76.4464 57.737 76.838 58.3211 76.737L111.201 67.5879C111.785 67.4869 112.177 66.9314 112.076 66.3473L107.867 42.0225C107.766 41.4384 107.211 41.0468 106.627 41.1479ZM53.4721 48.7105C52.0119 48.9632 51.0329 50.3517 51.2856 51.812L55.4941 76.1368C55.7468 77.5971 57.1353 78.576 58.5956 78.3234L111.476 69.1743C112.936 68.9217 113.915 67.5331 113.662 66.0729L109.454 41.748C109.201 40.2878 107.812 39.3088 106.352 39.5615L53.4721 48.7105Z" fill="#212C5F"/>
<path fill-rule="evenodd" clip-rule="evenodd" d="M57.3733 94.8735C57.2469 94.1434 57.7364 93.4491 58.4665 93.3228L94.9538 87.0099C95.6839 86.8836 96.3782 87.3731 96.5045 88.1032C96.6308 88.8333 96.1414 89.5276 95.4112 89.654L58.924 95.9668C58.1939 96.0931 57.4996 95.6036 57.3733 94.8735Z" fill="#212C5F"/>
<path fill-rule="evenodd" clip-rule="evenodd" d="M59.2053 105.449C59.079 104.719 59.5684 104.025 60.2986 103.899L96.7858 97.5859C97.5159 97.4596 98.2102 97.949 98.3365 98.6792C98.4629 99.4093 97.9734 100.104 97.2433 100.23L60.756 106.543C60.0259 106.669 59.3316 106.18 59.2053 105.449Z" fill="#212C5F"/>
<path fill-rule="evenodd" clip-rule="evenodd" d="M61.0334 116.026C60.9071 115.295 61.3966 114.601 62.1267 114.475L98.6139 108.162C99.3441 108.036 100.038 108.525 100.165 109.255C100.291 109.985 99.8015 110.68 99.0714 110.806L62.5841 117.119C61.854 117.245 61.1597 116.756 61.0334 116.026Z" fill="#212C5F"/>
<path fill-rule="evenodd" clip-rule="evenodd" d="M101.795 87.1885C101.669 86.4583 102.158 85.7641 102.888 85.6377L113.464 83.8079C114.195 83.6816 114.889 84.1711 115.015 84.9012C115.141 85.6313 114.652 86.3256 113.922 86.4519L103.346 88.2817C102.616 88.4081 101.921 87.9186 101.795 87.1885Z" fill="#212C5F"/>
<path fill-rule="evenodd" clip-rule="evenodd" d="M103.623 97.7644C103.497 97.0343 103.986 96.34 104.717 96.2137L115.293 94.3838C116.023 94.2575 116.717 94.747 116.843 95.4771C116.97 96.2072 116.48 96.9015 115.75 97.0279L105.174 98.8577C104.444 98.984 103.75 98.4945 103.623 97.7644Z" fill="#212C5F"/>
<path fill-rule="evenodd" clip-rule="evenodd" d="M105.451 108.34C105.325 107.61 105.815 106.916 106.545 106.79L117.121 104.96C117.851 104.833 118.545 105.323 118.671 106.053C118.798 106.783 118.308 107.477 117.578 107.604L107.002 109.434C106.272 109.56 105.578 109.07 105.451 108.34Z" fill="#212C5F"/>
<path d="M74.4313 37.8175L113.867 31.696C114.543 30.0866 113.218 30.2711 112.471 30.5645L74.4313 37.8175Z" fill="#212C5F"/>
<path d="M123.691 123.972L58.3301 137.424C57.655 136.812 58.2663 135.638 58.7103 135.61L123.691 123.972Z" fill="#212C5F"/>
<path fill-rule="evenodd" clip-rule="evenodd" d="M63.8574 47.65C68.5536 45.8518 74.4159 44.8132 78.3773 44.4028C78.8196 44.3569 79.2152 44.6783 79.261 45.1205C79.3068 45.5627 78.9855 45.9583 78.5433 46.0042C74.6575 46.4068 68.9482 47.4247 64.4331 49.1536C62.1684 50.0208 60.2756 51.0405 59.0562 52.1969C57.8581 53.3331 57.383 54.5177 57.6943 55.8255C57.7973 56.258 57.5302 56.6921 57.0977 56.795C56.6652 56.898 56.2311 56.6309 56.1282 56.1984C55.6425 54.1585 56.4815 52.4198 57.9483 51.0287C59.3938 49.6579 61.5166 48.5464 63.8574 47.65Z" fill="#212C5F"/>
<path fill-rule="evenodd" clip-rule="evenodd" d="M153.106 119.046L130.206 96.8655L130.58 96.48L153.479 118.66L153.106 119.046Z" fill="#212C5F"/>
<path fill-rule="evenodd" clip-rule="evenodd" d="M149.95 122.856L130.197 103.127L130.577 102.747L150.329 122.476L149.95 122.856Z" fill="#212C5F"/>
<path fill-rule="evenodd" clip-rule="evenodd" d="M146.617 125.612L132.147 111.232L132.525 110.852L146.995 125.232L146.617 125.612Z" fill="#212C5F"/>
<path fill-rule="evenodd" clip-rule="evenodd" d="M142.448 128.246L133.352 119.744L133.719 119.352L142.814 127.854L142.448 128.246Z" fill="#212C5F"/>
<path d="M150.677 73.8289L128.203 77.7173C137.298 76.1437 141.023 82.0349 141.748 85.1772C143.065 92.7919 150.903 96.1197 154.657 96.8318L150.677 73.8289Z" fill="#FCE49E"/>
<path d="M132.913 84.4735L153.16 82.3435C153.836 80.7341 152.511 80.9186 151.764 81.212L132.913 84.4735Z" fill="#212C5F"/>
<path d="M133.649 69.999L136.827 66.2173C147.265 67.4662 151.888 59.1841 151.941 51.2878C151.941 51.2878 149.288 39.2003 137.858 40.2369C126.429 41.2735 125.412 54.4625 125.412 54.4625C126.77 59.5349 128.146 62.1157 134.272 65.1952L133.156 67.3188L133.649 69.999Z" fill="white"/>
<path fill-rule="evenodd" clip-rule="evenodd" d="M139.226 52.3042L142.692 50.2112C143.492 49.7284 144.533 50.0115 144.977 50.8327C145.445 51.6949 145.054 52.7716 144.143 53.1337L140.803 54.461L144.025 58.8675C144.25 59.1756 144.152 59.6116 143.817 59.7935C143.574 59.9254 143.273 59.8834 143.075 59.69L138.618 55.3291L132.824 57.6317C132.567 57.7338 132.274 57.6566 132.1 57.4411C131.861 57.1438 131.939 56.7038 132.266 56.5065L136.938 53.6853L134.37 51.1723C133.669 50.4865 133.724 49.3426 134.488 48.7274C135.215 48.1415 136.285 48.2821 136.836 49.0361L139.226 52.3042Z" fill="#EB5757"/>
<path d="M142.071 39.6504C146.098 40.1633 149.246 42.9701 150.951 46.5147C153.09 50.9886 152.667 56.292 150.087 60.5108C147.566 64.6048 142.199 67.4479 137.434 65.9638C137.424 65.9982 137.414 66.0326 137.372 66.0729C136.266 67.302 135.175 68.5282 134.065 69.7416C133.929 69.8969 133.624 69.9367 133.549 69.7064C132.989 68.1815 133.061 66.6055 133.73 65.1474C129.832 63.4551 126.867 60.1261 125.737 56.0364C124.618 52.0097 125.816 47.3451 128.672 44.264C131.896 40.7732 137.386 39.0471 142.071 39.6504ZM127.12 47.7239C123.99 54.3228 127.669 61.981 134.24 64.6956C134.435 64.7737 134.488 64.9754 134.39 65.1563C133.754 66.3478 133.606 67.6935 133.942 68.9829C134.913 67.909 135.899 66.8322 136.87 65.7583C136.694 65.6931 136.514 65.6121 136.335 65.5312C136.19 65.4601 136.267 65.2507 136.424 65.3031C141.604 66.8084 146.743 64.6911 149.617 60.1904C152.096 56.3157 152.392 51.3939 150.635 47.2078C148.822 42.9016 144.924 40.1349 140.184 40.1277C134.899 40.1068 129.409 42.9074 127.12 47.7239Z" fill="#212C5F"/>
</svg>
