<svg width="199" height="182" viewBox="0 0 199 182" fill="none" xmlns="http://www.w3.org/2000/svg">
<path d="M14.597 94.8059C18.1049 105.102 30.3027 113.875 46.4375 119.691C61.4858 125.126 79.9835 127.973 98.0277 127.072C101.583 126.9 105.13 126.568 108.619 126.101C126.785 123.611 143.71 116.924 155.206 104.803C156.376 103.582 157.481 102.3 158.521 100.956C174.71 80.2707 179.125 42.8432 159.442 22.7165C152.539 15.6673 143.926 12.0019 134.946 10.4348C134.362 10.3327 133.778 10.2305 133.183 10.1665C133.165 10.1694 133.127 10.1577 133.109 10.1606C120.975 8.42834 108.379 10.325 98.5888 12.7148C91.1697 14.5152 85.3505 16.5929 82.6071 17.5863C80.0182 18.5182 77.4288 19.5583 74.8567 20.7038C64.723 25.2242 54.8825 31.3012 46.1534 38.241C24.0645 55.7516 9.07863 78.6374 14.597 94.8059Z" fill="#39A9EA"/>
<path d="M92.2029 19.5605C92.2029 19.5605 162.943 25.5156 176.595 50.7601C192.309 90.4299 170.54 110.508 143.365 130.1" stroke="#FACA3E" stroke-width="2" stroke-miterlimit="10" stroke-dasharray="12 12"/>
<path d="M168.922 115.5C164.075 127.117 151.263 136.493 135.181 142.251C120.18 147.635 102.314 149.852 85.436 147.792C82.1095 147.394 78.8148 146.811 75.5956 146.077C58.8404 142.187 43.882 133.552 34.8565 118.989C33.936 117.521 33.0859 115.987 32.3062 114.386C20.1352 89.7265 21.5693 46.5221 43.137 24.5414C50.7 16.8435 59.3687 13.1259 68.0696 11.8374C68.6352 11.7533 69.2008 11.6693 69.772 11.6296C69.7883 11.6339 69.8263 11.6227 69.8427 11.6271C81.5419 10.328 93.1342 13.22 102.007 16.5186C108.733 19.0062 113.909 21.7211 116.347 23.0169C118.649 24.2334 120.934 25.5741 123.188 27.0348C132.067 32.7981 140.436 40.3312 147.628 48.7914C165.836 70.1417 176.543 97.2575 168.922 115.5Z" fill="#FACA3E"/>
<path d="M22.7383 71.2114L142.172 32.0328L169.264 114.62L49.8299 153.799L22.7383 71.2114Z" fill="#FEF4D8"/>
<path fill-rule="evenodd" clip-rule="evenodd" d="M140.891 34.5639L25.2693 72.4921L51.1105 151.268L166.733 113.339L140.891 34.5639ZM22.7383 71.2114L49.8299 153.799L169.264 114.62L142.172 32.0328L22.7383 71.2114Z" fill="#212C5F"/>
<path d="M50.7375 150.923L36.8594 108.157C112.705 102.884 119.124 121.27 112.852 131.122L50.7375 150.923Z" fill="#FCE49E"/>
<path d="M38.7695 46.1658L162.768 25.5777L177.004 111.321L53.0059 131.909L38.7695 46.1658Z" fill="#9CD4F4"/>
<path fill-rule="evenodd" clip-rule="evenodd" d="M161.117 27.885L41.0768 47.8159L54.6561 129.602L174.697 109.671L161.117 27.885ZM38.7695 46.1658L53.0059 131.909L177.004 111.321L162.768 25.5777L38.7695 46.1658Z" fill="#212C5F"/>
<path d="M174.581 109.012L164.397 47.6722C171.975 93.314 126.538 95.8655 102.872 91.436C66.5106 92.8645 55.9402 116.963 55.2001 128.833L174.581 109.012Z" fill="#D7EEFB"/>
<path d="M38.7695 46.1658L162.768 25.5777L166.272 46.6838L42.2739 67.2718L38.7695 46.1658Z" fill="#FEF4D8"/>
<path fill-rule="evenodd" clip-rule="evenodd" d="M166.272 46.6838L162.768 25.5777L38.7695 46.1658L42.2739 67.2718L44.2526 66.9433L41.0768 47.8159L161.117 27.885L164.293 47.0123L166.272 46.6838Z" fill="#212C5F"/>
<path fill-rule="evenodd" clip-rule="evenodd" d="M56.8403 48.9252C57.751 48.774 58.6118 49.3897 58.763 50.3003L59.8581 56.896C60.0093 57.8066 59.3936 58.6675 58.483 58.8187C57.5723 58.9699 56.7115 58.3542 56.5603 57.4435L55.4652 50.8479C55.314 49.9372 55.9296 49.0764 56.8403 48.9252Z" fill="#212C5F"/>
<path fill-rule="evenodd" clip-rule="evenodd" d="M79.2661 45.2021C80.1768 45.0509 81.0376 45.6665 81.1888 46.5772L82.2839 53.1728C82.4351 54.0835 81.8194 54.9443 80.9088 55.0955C79.9981 55.2467 79.1373 54.631 78.9861 53.7204L77.891 47.1247C77.7398 46.2141 78.3554 45.3533 79.2661 45.2021Z" fill="#212C5F"/>
<path fill-rule="evenodd" clip-rule="evenodd" d="M101.692 41.4784C102.603 41.3272 103.463 41.9429 103.615 42.8536L104.71 49.4492C104.861 50.3599 104.245 51.2207 103.335 51.3719C102.424 51.5231 101.563 50.9074 101.412 49.9967L100.317 43.4011C100.166 42.4904 100.781 41.6296 101.692 41.4784Z" fill="#212C5F"/>
<path fill-rule="evenodd" clip-rule="evenodd" d="M123.352 33.1383C124.263 32.9871 125.124 33.6028 125.275 34.5135L127.136 45.7261C127.288 46.6367 126.672 47.4975 125.761 47.6487C124.851 47.7999 123.99 47.1843 123.839 46.2736L121.977 35.061C121.826 34.1504 122.441 33.2895 123.352 33.1383Z" fill="#212C5F"/>
<path fill-rule="evenodd" clip-rule="evenodd" d="M146.543 34.0319C147.454 33.8807 148.315 34.4964 148.466 35.407L149.561 42.0027C149.712 42.9133 149.097 43.7741 148.186 43.9253C147.275 44.0766 146.415 43.4609 146.263 42.5502L145.168 35.9546C145.017 35.0439 145.633 34.1831 146.543 34.0319Z" fill="#212C5F"/>
<path d="M155.637 47.9376L43.5375 68.7565C42.6736 68.0201 43.3904 66.5348 43.9422 66.4828L155.637 47.9376Z" fill="#212C5F"/>
<path d="M59.6335 77.9443C59.3311 76.123 60.5624 74.4013 62.3838 74.0989L68.9794 73.0038C70.8007 72.7014 72.5224 73.9328 72.8248 75.7541L73.9199 82.3497C74.2223 84.1711 72.991 85.8927 71.1696 86.1951L64.574 87.2902C62.7526 87.5926 61.031 86.3613 60.7286 84.5399L59.6335 77.9443Z" fill="white"/>
<path fill-rule="evenodd" clip-rule="evenodd" d="M69.1984 74.323L62.6028 75.4181C61.51 75.5995 60.7712 76.6325 60.9526 77.7253L62.0477 84.3209C62.2292 85.4137 63.2622 86.1525 64.355 85.9711L70.9506 84.876C72.0434 84.6945 72.7822 83.6616 72.6008 82.5688L71.5056 75.9731C71.3242 74.8803 70.2912 74.1415 69.1984 74.323ZM62.3838 74.0989C60.5624 74.4013 59.3311 76.123 59.6335 77.9443L60.7286 84.5399C61.031 86.3613 62.7526 87.5926 64.574 87.2902L71.1696 86.1951C72.991 85.8927 74.2223 84.1711 73.9199 82.3497L72.8248 75.7541C72.5224 73.9328 70.8007 72.7014 68.9794 73.0038L62.3838 74.0989Z" fill="#212C5F"/>
<path fill-rule="evenodd" clip-rule="evenodd" d="M71.0549 80.7999C71.4241 80.7955 71.727 81.0913 71.7314 81.4605C71.7567 83.5961 70.2643 84.9665 68.6449 85.7866C67.0165 86.6113 65.0849 86.9818 63.7997 87.0769C63.4314 87.1042 63.1108 86.8278 63.0836 86.4595C63.0563 86.0913 63.3328 85.7706 63.701 85.7434C64.8707 85.6568 66.6163 85.3151 68.0408 84.5937C69.4743 83.8677 70.4107 82.8581 70.3943 81.4764C70.3899 81.1071 70.6856 80.8043 71.0549 80.7999Z" fill="#212C5F"/>
<path d="M79.7507 74.6045C79.4483 72.7831 80.6796 71.0615 82.5009 70.7591L89.0966 69.664C90.9179 69.3616 92.6396 70.5929 92.942 72.4142L94.0371 79.0099C94.3395 80.8312 93.1081 82.5529 91.2868 82.8553L84.6912 83.9504C82.8698 84.2528 81.1482 83.0214 80.8458 81.2001L79.7507 74.6045Z" fill="white"/>
<path fill-rule="evenodd" clip-rule="evenodd" d="M89.3156 70.9831L82.72 72.0782C81.6272 72.2597 80.8884 73.2926 81.0698 74.3854L82.1649 80.9811C82.3464 82.0739 83.3793 82.8127 84.4721 82.6312L91.0678 81.5361C92.1606 81.3547 92.8994 80.3217 92.7179 79.2289L91.6228 72.6333C91.4414 71.5405 90.4084 70.8017 89.3156 70.9831ZM82.5009 70.7591C80.6796 71.0615 79.4483 72.7831 79.7507 74.6045L80.8458 81.2001C81.1482 83.0214 82.8698 84.2528 84.6912 83.9504L91.2868 82.8553C93.1081 82.5529 94.3395 80.8312 94.0371 79.0099L92.942 72.4142C92.6396 70.5929 90.9179 69.3616 89.0966 69.664L82.5009 70.7591Z" fill="#212C5F"/>
<path fill-rule="evenodd" clip-rule="evenodd" d="M91.1721 77.4603C91.5413 77.4559 91.8442 77.7517 91.8485 78.1209C91.8739 80.2565 90.3815 81.6269 88.7621 82.447C87.1337 83.2717 85.2021 83.6422 83.9169 83.7373C83.5486 83.7646 83.228 83.4882 83.2008 83.1199C83.1735 82.7517 83.4499 82.431 83.8182 82.4038C84.9879 82.3172 86.7334 81.9755 88.158 81.2541C89.5915 80.5281 90.5279 79.5185 90.5114 78.1368C90.5071 77.7675 90.8028 77.4647 91.1721 77.4603Z" fill="#212C5F"/>
<path d="M99.864 71.2644C99.5616 69.443 100.793 67.7214 102.614 67.419L109.21 66.3239C111.031 66.0215 112.753 67.2528 113.055 69.0742L114.15 75.6698C114.453 77.4911 113.221 79.2128 111.4 79.5152L104.804 80.6103C102.983 80.9127 101.261 79.6814 100.959 77.86L99.864 71.2644Z" fill="white"/>
<path fill-rule="evenodd" clip-rule="evenodd" d="M109.429 67.643L102.833 68.7381C101.74 68.9196 101.002 69.9526 101.183 71.0454L102.278 77.641C102.46 78.7338 103.493 79.4726 104.585 79.2912L111.181 78.196C112.274 78.0146 113.013 76.9816 112.831 75.8888L111.736 69.2932C111.555 68.2004 110.522 67.4616 109.429 67.643ZM102.614 67.419C100.793 67.7214 99.5616 69.443 99.864 71.2644L100.959 77.86C101.261 79.6814 102.983 80.9127 104.804 80.6103L111.4 79.5152C113.221 79.2128 114.453 77.4911 114.15 75.6698L113.055 69.0742C112.753 67.2528 111.031 66.0215 109.21 66.3239L102.614 67.419Z" fill="#212C5F"/>
<path fill-rule="evenodd" clip-rule="evenodd" d="M111.289 74.12C111.658 74.1156 111.961 74.4113 111.966 74.7806C111.991 76.9162 110.499 78.2866 108.879 79.1067C107.251 79.9314 105.319 80.3019 104.034 80.397C103.666 80.4243 103.345 80.1478 103.318 79.7796C103.291 79.4113 103.567 79.0907 103.935 79.0635C105.105 78.9769 106.851 78.6352 108.275 77.9138C109.709 77.1878 110.645 76.1781 110.629 74.7964C110.624 74.4272 110.92 74.1243 111.289 74.12Z" fill="#212C5F"/>
<path d="M119.981 67.9245C119.679 66.1032 120.91 64.3816 122.731 64.0792L129.327 62.984C131.148 62.6816 132.87 63.913 133.172 65.7343L134.268 72.33C134.57 74.1513 133.339 75.8729 131.517 76.1753L124.922 77.2704C123.1 77.5728 121.379 76.3415 121.076 74.5202L119.981 67.9245Z" fill="white"/>
<path fill-rule="evenodd" clip-rule="evenodd" d="M129.546 64.3032L122.95 65.3983C121.858 65.5797 121.119 66.6127 121.3 67.7055L122.395 74.3012C122.577 75.394 123.61 76.1328 124.703 75.9513L131.298 74.8562C132.391 74.6748 133.13 73.6418 132.948 72.549L131.853 65.9533C131.672 64.8605 130.639 64.1217 129.546 64.3032ZM122.731 64.0792C120.91 64.3816 119.679 66.1032 119.981 67.9245L121.076 74.5202C121.379 76.3415 123.1 77.5728 124.922 77.2704L131.517 76.1753C133.339 75.8729 134.57 74.1513 134.268 72.33L133.172 65.7343C132.87 63.913 131.148 62.6816 129.327 62.984L122.731 64.0792Z" fill="#212C5F"/>
<path fill-rule="evenodd" clip-rule="evenodd" d="M131.403 70.7801C131.772 70.7757 132.075 71.0715 132.079 71.4407C132.104 73.5764 130.612 74.9468 128.993 75.7669C127.364 76.5915 125.433 76.962 124.147 77.0572C123.779 77.0844 123.458 76.808 123.431 76.4397C123.404 76.0715 123.68 75.7509 124.049 75.7236C125.218 75.6371 126.964 75.2953 128.388 74.5739C129.822 73.8479 130.758 72.8383 130.742 71.4566C130.738 71.0874 131.033 70.7845 131.403 70.7801Z" fill="#212C5F"/>
<path d="M140.094 64.5847C139.792 62.7634 141.023 61.0417 142.845 60.7393L149.44 59.6442C151.262 59.3418 152.983 60.5731 153.286 62.3945L154.381 68.9901C154.683 70.8114 153.452 72.5331 151.631 72.8355L145.035 73.9306C143.214 74.233 141.492 73.0017 141.19 71.1803L140.094 64.5847Z" fill="white"/>
<path fill-rule="evenodd" clip-rule="evenodd" d="M149.659 60.9633L143.064 62.0584C141.971 62.2399 141.232 63.2729 141.414 64.3657L142.509 70.9613C142.69 72.0541 143.723 72.7929 144.816 72.6115L151.412 71.5164C152.504 71.3349 153.243 70.3019 153.062 69.2091L151.967 62.6135C151.785 61.5207 150.752 60.7819 149.659 60.9633ZM142.845 60.7393C141.023 61.0417 139.792 62.7634 140.094 64.5847L141.19 71.1803C141.492 73.0017 143.214 74.233 145.035 73.9306L151.631 72.8355C153.452 72.5331 154.683 70.8114 154.381 68.9901L153.286 62.3945C152.983 60.5731 151.262 59.3418 149.44 59.6442L142.845 60.7393Z" fill="#212C5F"/>
<path fill-rule="evenodd" clip-rule="evenodd" d="M151.516 67.4403C151.885 67.4359 152.188 67.7316 152.192 68.1009C152.218 70.2365 150.725 71.6069 149.106 72.427C147.477 73.2517 145.546 73.6222 144.261 73.7173C143.892 73.7446 143.572 73.4681 143.545 73.0999C143.517 72.7316 143.794 72.411 144.162 72.3838C145.332 72.2972 147.077 71.9555 148.502 71.2341C149.935 70.5081 150.872 69.4984 150.855 68.1168C150.851 67.7475 151.147 67.4447 151.516 67.4403Z" fill="#212C5F"/>
<path d="M63.3561 100.37C63.0537 98.5483 64.2851 96.8266 66.1064 96.5242L72.7021 95.4291C74.5234 95.1267 76.245 96.358 76.5474 98.1794L77.6425 104.775C77.9449 106.596 76.7136 108.318 74.8923 108.62L68.2966 109.716C66.4753 110.018 64.7537 108.787 64.4513 106.965L63.3561 100.37Z" fill="white"/>
<path fill-rule="evenodd" clip-rule="evenodd" d="M72.9211 96.7482L66.3254 97.8434C65.2326 98.0248 64.4938 99.0578 64.6753 100.151L65.7704 106.746C65.9518 107.839 66.9848 108.578 68.0776 108.396L74.6733 107.301C75.7661 107.12 76.5049 106.087 76.3234 104.994L75.2283 98.3984C75.0469 97.3056 74.0139 96.5668 72.9211 96.7482ZM66.1064 96.5242C64.2851 96.8266 63.0537 98.5483 63.3561 100.37L64.4513 106.965C64.7537 108.787 66.4753 110.018 68.2966 109.716L74.8923 108.62C76.7136 108.318 77.9449 106.596 77.6425 104.775L76.5474 98.1794C76.245 96.358 74.5234 95.1267 72.7021 95.4291L66.1064 96.5242Z" fill="#212C5F"/>
<path fill-rule="evenodd" clip-rule="evenodd" d="M74.7775 103.225C75.1467 103.221 75.4496 103.517 75.454 103.886C75.4794 106.021 73.987 107.392 72.3676 108.212C70.7391 109.037 68.8076 109.407 67.5224 109.502C67.1541 109.529 66.8335 109.253 66.8062 108.885C66.779 108.517 67.0554 108.196 67.4237 108.169C68.5933 108.082 70.3389 107.74 71.7634 107.019C73.197 106.293 74.1333 105.283 74.1169 103.902C74.1125 103.532 74.4083 103.23 74.7775 103.225Z" fill="#212C5F"/>
<path d="M83.4733 97.0298C83.1709 95.2084 84.4023 93.4868 86.2236 93.1844L92.8192 92.0893C94.6406 91.7869 96.3622 93.0182 96.6646 94.8395L97.7597 101.435C98.0621 103.257 96.8308 104.978 95.0095 105.281L88.4138 106.376C86.5925 106.678 84.8708 105.447 84.5684 103.625L83.4733 97.0298Z" fill="white"/>
<path fill-rule="evenodd" clip-rule="evenodd" d="M93.0383 93.4084L86.4426 94.5035C85.3498 94.685 84.611 95.7179 84.7925 96.8107L85.8876 103.406C86.069 104.499 87.102 105.238 88.1948 105.057L94.7904 103.961C95.8832 103.78 96.622 102.747 96.4406 101.654L95.3455 95.0586C95.164 93.9658 94.1311 93.227 93.0383 93.4084ZM86.2236 93.1844C84.4023 93.4868 83.1709 95.2084 83.4733 97.0298L84.5684 103.625C84.8708 105.447 86.5925 106.678 88.4138 106.376L95.0095 105.281C96.8308 104.978 98.0621 103.257 97.7597 101.435L96.6646 94.8395C96.3622 93.0182 94.6406 91.7869 92.8192 92.0893L86.2236 93.1844Z" fill="#212C5F"/>
<path fill-rule="evenodd" clip-rule="evenodd" d="M94.8947 99.8856C95.2639 99.8812 95.5668 100.177 95.5712 100.546C95.5966 102.682 94.1041 104.052 92.4848 104.872C90.8563 105.697 88.9248 106.068 87.6395 106.163C87.2713 106.19 86.9507 105.913 86.9234 105.545C86.8962 105.177 87.1726 104.856 87.5408 104.829C88.7105 104.743 90.4561 104.401 91.8806 103.679C93.3142 102.953 94.2505 101.944 94.2341 100.562C94.2297 100.193 94.5255 99.89 94.8947 99.8856Z" fill="#212C5F"/>
<path d="M103.587 93.6897C103.284 91.8683 104.516 90.1467 106.337 89.8443L112.933 88.7492C114.754 88.4468 116.475 89.6781 116.778 91.4995L117.873 98.0951C118.175 99.9164 116.944 101.638 115.123 101.94L108.527 103.036C106.706 103.338 104.984 102.107 104.682 100.285L103.587 93.6897Z" fill="white"/>
<path fill-rule="evenodd" clip-rule="evenodd" d="M113.152 90.0683L106.556 91.1634C105.463 91.3449 104.724 92.3778 104.906 93.4706L106.001 100.066C106.182 101.159 107.215 101.898 108.308 101.716L114.904 100.621C115.997 100.44 116.735 99.4069 116.554 98.3141L115.459 91.7185C115.277 90.6257 114.244 89.8869 113.152 90.0683ZM106.337 89.8443C104.516 90.1467 103.284 91.8683 103.587 93.6897L104.682 100.285C104.984 102.107 106.706 103.338 108.527 103.036L115.123 101.94C116.944 101.638 118.175 99.9164 117.873 98.0951L116.778 91.4995C116.475 89.6781 114.754 88.4468 112.933 88.7492L106.337 89.8443Z" fill="#212C5F"/>
<path fill-rule="evenodd" clip-rule="evenodd" d="M115.012 96.5452C115.381 96.5409 115.684 96.8366 115.688 97.2058C115.714 99.3415 114.221 100.712 112.602 101.532C110.974 102.357 109.042 102.727 107.757 102.822C107.388 102.85 107.068 102.573 107.041 102.205C107.013 101.837 107.29 101.516 107.658 101.489C108.828 101.402 110.573 101.06 111.998 100.339C113.431 99.6131 114.368 98.6034 114.351 97.2217C114.347 96.8525 114.643 96.5496 115.012 96.5452Z" fill="#212C5F"/>
<path d="M123.704 90.3498C123.401 88.5285 124.633 86.8069 126.454 86.5044L133.05 85.4093C134.871 85.1069 136.593 86.3383 136.895 88.1596L137.99 94.7553C138.293 96.5766 137.061 98.2982 135.24 98.6006L128.644 99.6957C126.823 99.9981 125.101 98.7668 124.799 96.9455L123.704 90.3498Z" fill="white"/>
<path fill-rule="evenodd" clip-rule="evenodd" d="M133.269 86.7285L126.673 87.8236C125.58 88.005 124.841 89.038 125.023 90.1308L126.118 96.7264C126.299 97.8192 127.332 98.558 128.425 98.3766L135.021 97.2815C136.114 97.1001 136.853 96.0671 136.671 94.9743L135.576 88.3786C135.395 87.2858 134.362 86.547 133.269 86.7285ZM126.454 86.5044C124.633 86.8069 123.401 88.5285 123.704 90.3498L124.799 96.9455C125.101 98.7668 126.823 99.9981 128.644 99.6957L135.24 98.6006C137.061 98.2982 138.293 96.5766 137.99 94.7553L136.895 88.1596C136.593 86.3383 134.871 85.1069 133.05 85.4093L126.454 86.5044Z" fill="#212C5F"/>
<path fill-rule="evenodd" clip-rule="evenodd" d="M135.125 93.2054C135.494 93.201 135.797 93.4968 135.802 93.866C135.827 96.0017 134.335 97.372 132.715 98.1922C131.087 99.0168 129.155 99.3873 127.87 99.4825C127.502 99.5097 127.181 99.2333 127.154 98.865C127.127 98.4968 127.403 98.1762 127.771 98.1489C128.941 98.0623 130.687 97.7206 132.111 96.9992C133.545 96.2732 134.481 95.2636 134.465 93.8819C134.46 93.5127 134.756 93.2098 135.125 93.2054Z" fill="#212C5F"/>
<path d="M143.817 87.01C143.515 85.1886 144.746 83.467 146.567 83.1646L153.163 82.0695C154.984 81.7671 156.706 82.9984 157.008 84.8198L158.103 91.4154C158.406 93.2367 157.175 94.9584 155.353 95.2608L148.758 96.3559C146.936 96.6583 145.215 95.427 144.912 93.6056L143.817 87.01Z" fill="white"/>
<path fill-rule="evenodd" clip-rule="evenodd" d="M153.382 83.3886L146.786 84.4837C145.694 84.6652 144.955 85.6982 145.136 86.791L146.231 93.3866C146.413 94.4794 147.446 95.2182 148.539 95.0368L155.134 93.9417C156.227 93.7602 156.966 92.7272 156.784 91.6344L155.689 85.0388C155.508 83.946 154.475 83.2072 153.382 83.3886ZM146.567 83.1646C144.746 83.467 143.515 85.1886 143.817 87.01L144.912 93.6056C145.215 95.427 146.936 96.6583 148.758 96.3559L155.353 95.2608C157.175 94.9584 158.406 93.2367 158.103 91.4154L157.008 84.8198C156.706 82.9984 154.984 81.7671 153.163 82.0695L146.567 83.1646Z" fill="#212C5F"/>
<path fill-rule="evenodd" clip-rule="evenodd" d="M155.238 89.8656C155.608 89.8612 155.911 90.1569 155.915 90.5262C155.94 92.6618 154.448 94.0322 152.829 94.8523C151.2 95.677 149.269 96.0475 147.983 96.1426C147.615 96.1699 147.294 95.8934 147.267 95.5252C147.24 95.1569 147.516 94.8363 147.885 94.8091C149.054 94.7225 150.8 94.3808 152.224 93.6594C153.658 92.9334 154.594 91.9237 154.578 90.5421C154.573 90.1728 154.869 89.8699 155.238 89.8656Z" fill="#212C5F"/>
<path fill-rule="evenodd" clip-rule="evenodd" d="M62.4339 128.37C62.6008 128.449 62.6723 128.648 62.5935 128.815L51.3124 152.715C51.2336 152.882 51.0343 152.954 50.8674 152.875C50.7004 152.796 50.629 152.597 50.7078 152.43L61.9889 128.53C62.0677 128.363 62.2669 128.292 62.4339 128.37Z" fill="#212C5F"/>
<path fill-rule="evenodd" clip-rule="evenodd" d="M67.7121 127.494C67.879 127.573 67.9502 127.773 67.8713 127.939L57.0855 150.74C57.0066 150.907 56.8073 150.979 56.6404 150.9C56.4735 150.821 56.4022 150.621 56.4811 150.455L67.2669 127.654C67.3459 127.487 67.5452 127.415 67.7121 127.494Z" fill="#212C5F"/>
<path fill-rule="evenodd" clip-rule="evenodd" d="M72.9903 126.618C73.1571 126.698 73.2282 126.897 73.1491 127.064L62.8586 148.766C62.7795 148.933 62.5801 149.004 62.4133 148.925C62.2465 148.846 62.1754 148.646 62.2545 148.479L72.545 126.777C72.6241 126.61 72.8234 126.539 72.9903 126.618Z" fill="#212C5F"/>
<path fill-rule="evenodd" clip-rule="evenodd" d="M78.2578 125.739C78.4264 125.814 78.5022 126.012 78.427 126.18L69.2914 146.674C69.2162 146.843 69.0186 146.919 68.8499 146.843C68.6813 146.768 68.6055 146.571 68.6807 146.402L77.8163 125.908C77.8915 125.74 78.0892 125.664 78.2578 125.739Z" fill="#212C5F"/>
<path fill-rule="evenodd" clip-rule="evenodd" d="M83.5374 124.865C83.705 124.942 83.7782 125.141 83.7009 125.308L74.7308 144.758C74.6535 144.926 74.4549 144.999 74.2872 144.922C74.1196 144.844 74.0463 144.646 74.1237 144.478L83.0938 125.028C83.1711 124.861 83.3697 124.787 83.5374 124.865Z" fill="#212C5F"/>
<path fill-rule="evenodd" clip-rule="evenodd" d="M88.8184 123.989C88.9857 124.067 89.058 124.266 88.9798 124.433L80.23 143.169C80.1519 143.336 79.9529 143.408 79.7856 143.33C79.6184 143.252 79.5461 143.053 79.6242 142.886L88.3741 124.151C88.4522 123.983 88.6511 123.911 88.8184 123.989Z" fill="#212C5F"/>
<path fill-rule="evenodd" clip-rule="evenodd" d="M94.0888 123.114C94.256 123.192 94.3281 123.391 94.2498 123.558L85.9953 141.195C85.917 141.362 85.718 141.434 85.5508 141.356C85.3836 141.277 85.3115 141.078 85.3897 140.911L93.6443 123.275C93.7226 123.107 93.9216 123.035 94.0888 123.114Z" fill="#212C5F"/>
<path fill-rule="evenodd" clip-rule="evenodd" d="M99.3615 122.234C99.5306 122.308 99.6076 122.505 99.5334 122.674L92.1587 139.487C92.0845 139.656 91.8873 139.733 91.7183 139.659C91.5492 139.584 91.4722 139.387 91.5464 139.218L98.9211 122.406C98.9953 122.237 99.1925 122.16 99.3615 122.234Z" fill="#212C5F"/>
<path fill-rule="evenodd" clip-rule="evenodd" d="M104.642 121.36C104.81 121.437 104.884 121.635 104.807 121.803L97.5978 137.571C97.521 137.739 97.3227 137.813 97.1547 137.737C96.9868 137.66 96.913 137.461 96.9897 137.293L104.199 121.525C104.276 121.357 104.474 121.283 104.642 121.36Z" fill="#212C5F"/>
<path fill-rule="evenodd" clip-rule="evenodd" d="M109.923 120.486C110.089 120.566 110.16 120.766 110.08 120.932L103.037 135.657C102.957 135.823 102.757 135.894 102.591 135.814C102.424 135.734 102.354 135.535 102.433 135.368L109.477 120.644C109.557 120.477 109.756 120.407 109.923 120.486Z" fill="#212C5F"/>
<path fill-rule="evenodd" clip-rule="evenodd" d="M115.198 119.608C115.366 119.685 115.44 119.883 115.363 120.051L109.144 133.622C109.067 133.79 108.869 133.863 108.701 133.787C108.533 133.71 108.459 133.511 108.536 133.343L114.755 119.773C114.832 119.605 115.03 119.531 115.198 119.608Z" fill="#212C5F"/>
<path fill-rule="evenodd" clip-rule="evenodd" d="M120.484 118.734C120.65 118.815 120.72 119.015 120.639 119.181L114.586 131.708C114.506 131.874 114.306 131.943 114.14 131.863C113.974 131.783 113.904 131.583 113.984 131.417L120.037 118.89C120.118 118.724 120.318 118.654 120.484 118.734Z" fill="#212C5F"/>
<path fill-rule="evenodd" clip-rule="evenodd" d="M125.754 117.857C125.921 117.935 125.993 118.134 125.915 118.301L120.412 130.059C120.334 130.226 120.135 130.298 119.968 130.22C119.8 130.142 119.728 129.943 119.807 129.776L125.31 118.018C125.388 117.851 125.587 117.779 125.754 117.857Z" fill="#212C5F"/>
<path fill-rule="evenodd" clip-rule="evenodd" d="M131.029 116.981C131.196 117.059 131.268 117.259 131.189 117.426L126.181 128.084C126.103 128.252 125.904 128.323 125.737 128.245C125.569 128.166 125.498 127.967 125.576 127.8L130.584 117.141C130.662 116.974 130.862 116.902 131.029 116.981Z" fill="#212C5F"/>
<path fill-rule="evenodd" clip-rule="evenodd" d="M136.303 116.105C136.47 116.184 136.542 116.383 136.463 116.55L131.95 126.11C131.872 126.277 131.672 126.348 131.505 126.27C131.338 126.191 131.267 125.992 131.346 125.825L135.858 116.265C135.937 116.098 136.136 116.026 136.303 116.105Z" fill="#212C5F"/>
<path fill-rule="evenodd" clip-rule="evenodd" d="M141.586 115.229C141.752 115.308 141.824 115.508 141.744 115.675L137.727 124.136C137.648 124.303 137.449 124.374 137.282 124.294C137.115 124.215 137.044 124.016 137.123 123.849L141.14 115.388C141.22 115.221 141.419 115.15 141.586 115.229Z" fill="#212C5F"/>
<path fill-rule="evenodd" clip-rule="evenodd" d="M146.849 114.349C147.018 114.423 147.095 114.62 147.021 114.789L143.829 122.097C143.755 122.266 143.558 122.343 143.389 122.269C143.22 122.195 143.142 121.998 143.216 121.829L146.408 114.521C146.482 114.352 146.679 114.275 146.849 114.349Z" fill="#212C5F"/>
<path fill-rule="evenodd" clip-rule="evenodd" d="M152.141 113.48C152.306 113.562 152.374 113.763 152.291 113.928L148.99 120.576C148.908 120.741 148.707 120.809 148.542 120.727C148.376 120.644 148.309 120.444 148.391 120.278L151.693 113.631C151.775 113.465 151.975 113.398 152.141 113.48Z" fill="#212C5F"/>
<path fill-rule="evenodd" clip-rule="evenodd" d="M157.403 112.596C157.572 112.669 157.651 112.866 157.578 113.035L155.376 118.145C155.303 118.315 155.106 118.393 154.937 118.32C154.767 118.247 154.689 118.05 154.762 117.881L156.964 112.771C157.037 112.601 157.233 112.523 157.403 112.596Z" fill="#212C5F"/>
<path d="M46.1734 121.522L31.0581 74.1558C28.947 73.6322 29.4287 75.2277 29.9335 76.0909L46.1734 121.522Z" fill="#212C5F"/>
<path d="M121.41 115.308L170.234 105.918C171.004 103.884 169.363 104.173 168.446 104.572L121.41 115.308Z" fill="#212C5F"/>
<path d="M54.8739 75.7235L49.5833 72.58C37.8189 78.3348 28.9808 70.4911 25.6752 61.2252C25.6752 61.2252 23.8336 45.9177 37.7029 42.4442C51.5722 38.9706 58.1838 54.0665 58.1838 54.0665C58.6691 60.5905 58.1108 64.1909 52.169 70.3288L54.3533 72.3685L54.8739 75.7235Z" fill="white"/>
<path fill-rule="evenodd" clip-rule="evenodd" d="M44.1566 57.9383L49.0324 59.2331C50.1571 59.5318 50.8043 60.7095 50.4535 61.819C50.0851 62.9839 48.7823 63.5657 47.669 63.0626L43.5889 61.2184L42.4289 67.9197C42.3478 68.3882 41.8723 68.6777 41.4189 68.5346C41.0904 68.4309 40.8678 68.1252 40.87 67.7807L40.9202 60.0122L33.842 56.8129C33.5281 56.671 33.3433 56.3411 33.3863 55.9993C33.4457 55.5276 33.9074 55.2165 34.3669 55.3385L40.9391 57.0839L40.9681 52.6072C40.976 51.3855 42.0489 50.4449 43.2611 50.5968C44.4157 50.7416 45.2154 51.8216 45.0169 52.9682L44.1566 57.9383Z" fill="#EB5757"/>
<path d="M32.5027 43.4845C27.9771 45.7411 25.4259 50.3355 24.8759 55.2048C24.1967 61.3456 26.8718 67.41 31.6391 71.3128C36.2855 75.0932 43.7659 76.2336 48.7609 72.5316C48.7869 72.5679 48.8129 72.6043 48.8788 72.6344C50.6851 73.6258 52.4715 74.6203 54.2747 75.592C54.4984 75.7188 54.8738 75.6403 54.8678 75.3385C54.9006 73.3148 54.1687 71.4906 52.7824 70.0505C56.6726 66.4595 58.7933 61.3263 58.4441 56.0515C58.107 50.8556 54.7819 45.861 50.1581 43.4094C44.9322 40.6273 37.7655 40.8512 32.5027 43.4845ZM53.404 46.8419C59.7949 53.3188 58.6117 63.8372 51.998 69.7282C51.8003 69.9002 51.8201 70.1595 52.0101 70.3319C53.2478 71.472 53.9737 72.9944 54.108 74.649C52.5254 73.7843 50.9228 72.9228 49.3402 72.0582C49.5211 71.909 49.6989 71.7401 49.8767 71.5712C50.0177 71.4283 49.8416 71.2134 49.6776 71.3397C44.2029 75.2372 37.2892 74.8567 32.0607 70.7428C27.5537 67.2032 25.185 61.5354 25.533 55.89C25.8964 50.0808 29.3456 45.2259 34.9177 43.2713C41.1258 41.0767 48.7335 42.1166 53.404 46.8419Z" fill="#212C5F"/>
<path d="M14.1773 52.8331C16.4649 52.8331 18.3194 50.9786 18.3194 48.691C18.3194 46.4033 16.4649 44.5488 14.1773 44.5488C11.8897 44.5488 10.0352 46.4033 10.0352 48.691C10.0352 50.9786 11.8897 52.8331 14.1773 52.8331Z" stroke="white" stroke-width="2"/>
<path d="M178.532 37.8467C180.018 37.8467 181.224 36.6415 181.224 35.1548C181.224 33.6681 180.018 32.4629 178.532 32.4629C177.045 32.4629 175.84 33.6681 175.84 35.1548C175.84 36.6415 177.045 37.8467 178.532 37.8467Z" stroke="white" stroke-width="2"/>
<path d="M193.753 54.5873L196.609 52.8678L193.275 52.892L191.176 49.6271L191.09 53.5075L188.233 55.2274L191.568 55.2028L193.667 58.4677L193.753 54.5873Z" fill="#FACA3E"/>
<path d="M5.88242 80.9913L9.09766 80.1107L5.88242 79.23L4.74757 75.5183L3.61271 79.23L0.396329 80.1107L3.61271 80.9913L4.74757 84.703L5.88242 80.9913Z" fill="#FACA3E"/>
<path d="M47.5848 101.314C47.5848 101.314 20.7946 130.165 65.6165 160.819C96.7864 176.017 118.94 155.152 118.94 155.152" stroke="#39A9EA" stroke-width="2" stroke-miterlimit="10" stroke-dasharray="12 12"/>
</svg>
