<svg width="199" height="189" viewBox="0 0 199 189" fill="none" xmlns="http://www.w3.org/2000/svg">
<path d="M14.2025 101.806C17.7104 112.102 29.9082 120.875 46.043 126.691C61.0913 132.126 79.589 134.973 97.6331 134.072C101.189 133.9 104.736 133.568 108.224 133.101C126.39 130.611 143.316 123.924 154.811 111.803C155.981 110.582 157.086 109.3 158.126 107.956C174.316 87.2707 178.731 49.8432 159.048 29.7165C152.144 22.6673 143.531 19.0019 134.551 17.4348C133.968 17.3327 133.384 17.2305 132.788 17.1665C132.771 17.1694 132.732 17.1577 132.714 17.1606C120.58 15.4283 107.984 17.325 98.1942 19.7148C90.7752 21.5152 84.956 23.5929 82.2126 24.5863C79.6236 25.5182 77.0342 26.5583 74.4622 27.7038C64.3285 32.2242 54.488 38.3012 45.7588 45.241C23.67 62.7516 8.6841 85.6374 14.2025 101.806Z" fill="#39A9EA"/>
<path d="M91.8084 26.5605C91.8084 26.5605 162.548 32.5156 176.2 57.7601C191.914 97.4299 170.145 117.508 142.971 137.1" stroke="#FACA3E" stroke-width="2" stroke-miterlimit="10" stroke-dasharray="12 12"/>
<path d="M175.598 95.3705C175.209 107.952 166.578 121.278 153.603 132.388C141.505 142.764 125.602 151.201 109.098 155.291C105.848 156.104 102.562 156.733 99.2921 157.195C82.2506 159.53 65.1974 156.792 51.5751 146.401C50.1921 145.358 48.851 144.227 47.552 143.009C27.3932 124.305 13.3386 83.4249 25.6585 55.202C29.9822 45.3144 36.7573 38.7521 44.428 34.4478C44.9265 34.1678 45.425 33.8877 45.9445 33.647C45.9614 33.6453 45.9929 33.6213 46.0097 33.6195C56.4782 28.2371 68.34 26.8087 77.8062 26.7291C84.9769 26.6569 90.7804 27.3493 93.5201 27.6914C96.1041 28.0079 98.7177 28.4461 101.344 29.0079C111.693 31.2293 122.197 35.2859 131.932 40.6279C156.552 54.0892 176.219 75.6101 175.598 95.3705Z" fill="#FACA3E"/>
<path d="M48.8439 34.244C49.8298 30.5649 53.6114 28.3816 57.2905 29.3674L143.891 52.5718C147.57 53.5576 149.753 57.3393 148.767 61.0183L125.563 147.619C124.577 151.298 120.795 153.481 117.116 152.495L30.5161 129.291C26.837 128.305 24.6537 124.523 25.6395 120.844L48.8439 34.244Z" fill="#FEF4D8"/>
<path fill-rule="evenodd" clip-rule="evenodd" d="M143.355 54.5703L56.755 31.3658C54.1796 30.6758 51.5325 32.2041 50.8424 34.7794L27.638 121.38C26.9479 123.955 28.4762 126.602 31.0516 127.292L117.652 150.497C120.227 151.187 122.874 149.658 123.564 147.083L146.769 60.4828C147.459 57.9075 145.931 55.2604 143.355 54.5703ZM57.2905 29.3674C53.6114 28.3816 49.8298 30.5649 48.8439 34.244L25.6395 120.844C24.6537 124.523 26.837 128.305 30.5161 129.291L117.116 152.495C120.795 153.481 124.577 151.298 125.563 147.619L148.767 61.0183C149.753 57.3393 147.57 53.5576 143.891 52.5718L57.2905 29.3674Z" fill="#212C5F"/>
<path d="M114.989 149.782L30.0539 127.024C64.1611 136.163 65.6238 114.184 62.0917 102.051C100.568 98.0816 113.388 132.218 114.989 149.782Z" fill="#FCE49E"/>
<path d="M68.4025 25.2046C69.3883 21.5256 73.17 19.3422 76.8491 20.328L163.449 43.5325C167.128 44.5183 169.312 48.3 168.326 51.979L145.121 138.579C144.136 142.258 140.354 144.442 136.675 143.456L50.0747 120.251C46.3956 119.266 44.2123 115.484 45.1981 111.805L68.4025 25.2046Z" fill="#9CD4F4"/>
<path fill-rule="evenodd" clip-rule="evenodd" d="M162.557 46.8633L75.9566 23.6588C74.117 23.1659 72.2262 24.2576 71.7333 26.0971L48.5289 112.697C48.036 114.537 49.1276 116.428 50.9672 116.921L137.567 140.125C139.407 140.618 141.298 139.526 141.791 137.687L164.995 51.0866C165.488 49.247 164.396 47.3562 162.557 46.8633ZM76.8491 20.328C73.17 19.3422 69.3883 21.5256 68.4025 25.2046L45.1981 111.805C44.2123 115.484 46.3956 119.266 50.0747 120.251L136.675 143.456C140.354 144.442 144.136 142.258 145.121 138.579L168.326 51.979C169.312 48.3 167.128 44.5183 163.449 43.5325L76.8491 20.328Z" fill="#212C5F"/>
<path d="M48.9043 115.296L62.6484 64.0025C69.1696 94.0236 81.3915 98.417 86.6873 96.8611C115.732 104.643 133.11 128.34 138.169 139.215L48.9043 115.296Z" fill="#BDE2F8"/>
<path d="M153.139 52.1727L69.6444 32.6104C69.1869 31.5325 70.5333 30.4926 71.0663 30.6992L153.139 52.1727Z" fill="#212C5F"/>
<path d="M110.838 141.717L27.3436 122.155C26.8861 121.077 28.2325 120.037 28.7656 120.244L110.838 141.717Z" fill="#212C5F"/>
<path d="M62.1048 114.38L144.194 139.185C145.129 138.481 144.483 136.907 143.918 136.819L62.1048 114.38Z" fill="#212C5F"/>
<path fill-rule="evenodd" clip-rule="evenodd" d="M60.224 62.0283C60.1287 61.8633 59.9178 61.8068 59.7529 61.902L39.4813 73.6059C39.3164 73.7011 39.2598 73.912 39.3551 74.0769C39.4503 74.2419 39.6612 74.2984 39.8261 74.2031L60.0977 62.4993C60.2627 62.4041 60.3192 62.1932 60.224 62.0283Z" fill="#212C5F"/>
<path fill-rule="evenodd" clip-rule="evenodd" d="M61.8294 56.0329C61.7342 55.868 61.5233 55.8115 61.3584 55.9067L41.0867 67.6105C40.9218 67.7057 40.8653 67.9166 40.9605 68.0816C41.0558 68.2465 41.2666 68.303 41.4316 68.2078L61.7032 56.5039C61.8681 56.4087 61.9247 56.1978 61.8294 56.0329Z" fill="#212C5F"/>
<path fill-rule="evenodd" clip-rule="evenodd" d="M63.4349 50.0375C63.3397 49.8726 63.1288 49.8161 62.9639 49.9113L42.6922 61.6152C42.5273 61.7104 42.4708 61.9213 42.566 62.0862C42.6612 62.2511 42.8721 62.3076 43.037 62.2124L63.3087 50.5086C63.4736 50.4134 63.5301 50.2025 63.4349 50.0375Z" fill="#212C5F"/>
<path fill-rule="evenodd" clip-rule="evenodd" d="M65.0404 44.0422C64.9451 43.8773 64.7343 43.8207 64.5693 43.916L44.2977 55.6198C44.1328 55.715 44.0762 55.9259 44.1715 56.0908C44.2667 56.2558 44.4776 56.3123 44.6425 56.2171L64.9142 44.5132C65.0791 44.418 65.1356 44.2071 65.0404 44.0422Z" fill="#212C5F"/>
<path fill-rule="evenodd" clip-rule="evenodd" d="M66.6497 38.0466C66.5545 37.8816 66.3436 37.8251 66.1787 37.9204L45.9071 49.6242C45.7421 49.7194 45.6856 49.9303 45.7808 50.0952C45.8761 50.2602 46.087 50.3167 46.2519 50.2215L66.5235 38.5176C66.6885 38.4224 66.745 38.2115 66.6497 38.0466Z" fill="#212C5F"/>
<path fill-rule="evenodd" clip-rule="evenodd" d="M65.2982 33.758C65.203 33.5931 64.9921 33.5366 64.8271 33.6318L47.5118 43.6288C47.3468 43.724 47.2903 43.9349 47.3856 44.0999C47.4808 44.2648 47.6917 44.3213 47.8566 44.2261L65.172 34.229C65.3369 34.1338 65.3934 33.9229 65.2982 33.758Z" fill="#212C5F"/>
<path fill-rule="evenodd" clip-rule="evenodd" d="M59.724 31.9079C59.6287 31.743 59.4178 31.6865 59.2529 31.7817L49.1171 37.6336C48.9522 37.7288 48.8957 37.9397 48.9909 38.1046C49.0861 38.2696 49.297 38.3261 49.4619 38.2309L59.5977 32.3789C59.7627 32.2837 59.8192 32.0728 59.724 31.9079Z" fill="#212C5F"/>
<path d="M137.572 125.668L60.8466 111.044C59.3419 110.758 58.6597 108.992 59.5807 107.768L82.6266 77.1399C83.4835 76.0011 85.2082 76.0494 86.0001 77.2344L99.789 97.8702C100.553 99.0136 102.199 99.1073 103.088 98.058L122.395 75.2644C123.458 74.01 125.489 74.4362 125.957 76.012L139.942 123.046C140.384 124.532 139.095 125.958 137.572 125.668Z" fill="white"/>
<path fill-rule="evenodd" clip-rule="evenodd" d="M121.606 74.5957C123.2 72.7139 126.246 73.3533 126.948 75.7171L140.933 122.751C141.596 124.98 139.662 127.119 137.378 126.684L60.6525 112.061C58.3954 111.63 57.3722 108.982 58.7537 107.146L81.7995 76.5178C83.0849 74.8095 85.672 74.882 86.8598 76.6595L100.649 97.2953C101.031 97.867 101.854 97.9139 102.298 97.3892L121.606 74.5957ZM124.965 76.3067C124.731 75.5188 123.716 75.3057 123.184 75.9329L103.877 98.7265C102.544 100.3 100.074 100.16 98.9285 98.4448L85.1395 77.809C84.7436 77.2165 83.8812 77.1923 83.4528 77.7617L60.4069 108.39C59.9464 109.002 60.2875 109.885 61.0398 110.028L137.765 124.651C138.526 124.796 139.171 124.083 138.95 123.34L124.965 76.3067Z" fill="#212C5F"/>
<path fill-rule="evenodd" clip-rule="evenodd" d="M101.482 98.2327L106.884 91.916L108.456 93.2606L103.017 99.6213L102.997 99.6422C100.439 102.315 97.1964 105.946 95.6602 108.244C95.5807 108.363 95.5076 108.476 95.4407 108.583C95.8751 108.371 96.4143 108.077 97.0727 107.684C97.5632 107.391 98.1983 107.552 98.4913 108.042C98.7842 108.533 98.624 109.168 98.1334 109.461C97.0458 110.11 96.1745 110.559 95.5009 110.812C95.1663 110.938 94.8357 111.033 94.5252 111.066C94.2358 111.097 93.8061 111.09 93.4201 110.829C92.9767 110.528 92.837 110.068 92.8255 109.709C92.815 109.381 92.9018 109.068 92.9944 108.817C93.1838 108.303 93.5304 107.708 93.94 107.095C95.5834 104.636 98.9288 100.902 101.482 98.2327ZM94.2835 109.01C94.2836 109.01 94.2875 109.01 94.2947 109.01C94.2869 109.01 94.2833 109.01 94.2835 109.01Z" fill="#212C5F"/>
<path d="M98.5282 59.3366C97.2959 63.9354 92.5689 66.6646 87.97 65.4323C83.3712 64.2001 80.642 59.473 81.8743 54.8742C83.1065 50.2753 87.8336 47.5462 92.4324 48.7784C97.0313 50.0107 99.7604 54.7377 98.5282 59.3366Z" fill="#FCDC7E"/>
<path d="M76.3587 44.8697L72.7308 39.6607C59.2273 40.0471 54.2726 28.9106 55.1206 18.7984C55.1206 18.7984 59.9206 3.63646 74.4279 6.29029C88.9353 8.94412 88.7053 25.942 88.7053 25.942C86.3782 32.2762 84.3181 35.4195 76.1195 38.6494L77.3009 41.4967L76.3587 44.8697Z" fill="white"/>
<path fill-rule="evenodd" clip-rule="evenodd" d="M71.2356 21.7359L67.0419 18.6545C66.0746 17.9437 64.7096 18.1851 64.0448 19.1845C63.3468 20.2338 63.7217 21.6571 64.8459 22.2264L68.9667 24.3131L64.3312 29.5785C64.0072 29.9466 64.082 30.5159 64.4902 30.7878C64.786 30.9847 65.1755 30.9659 65.4509 30.7414L71.6616 25.6778L78.8095 29.2974C79.1265 29.4579 79.5111 29.3931 79.7579 29.1375C80.0986 28.7847 80.0501 28.2125 79.6549 27.9221L74.0027 23.7691L77.5819 20.851C78.5586 20.0547 78.6208 18.5842 77.7148 17.7082C76.8518 16.8739 75.4668 16.9296 74.6737 17.8305L71.2356 21.7359Z" fill="#EB5757"/>
<path d="M69.1045 5.05044C63.8917 5.23924 59.5358 8.46594 56.9422 12.8044C53.6849 18.2819 53.6104 25.1185 56.423 30.8176C59.1741 36.3499 65.713 40.6118 71.9833 39.2657C71.9922 39.3109 72.0012 39.3561 72.0502 39.4125C73.3237 41.1141 74.5772 42.8101 75.8563 44.4919C76.0123 44.7063 76.3983 44.7928 76.5214 44.5068C77.4154 42.6202 77.5062 40.5948 76.8185 38.651C82.0038 36.9377 86.1852 33.0214 88.1072 27.9186C90.007 22.895 89.0147 16.7858 85.718 12.511C81.9967 7.66897 75.1704 4.82221 69.1045 5.05044ZM87.3023 17.1192C90.5415 25.9282 84.9436 35.3022 76.2193 38.0136C75.9603 38.0908 75.8683 38.3428 75.9731 38.5857C76.6493 40.1845 76.6816 41.9239 76.102 43.5351C74.9844 42.048 73.8469 40.5553 72.7293 39.0682C72.9628 39.0052 73.2018 38.9225 73.4409 38.8397C73.6343 38.7655 73.5605 38.4886 73.3526 38.5373C66.5485 39.8625 60.2177 36.556 57.062 30.462C54.3391 25.2152 54.5321 18.8817 57.2671 13.7283C60.0864 8.42745 65.3967 5.33919 71.4636 5.8803C78.2302 6.46731 84.9314 10.6891 87.3023 17.1192Z" fill="#212C5F"/>
<path d="M13.7828 59.8334C16.0704 59.8334 17.9249 57.9789 17.9249 55.6912C17.9249 53.4036 16.0704 51.5491 13.7828 51.5491C11.4951 51.5491 9.64062 53.4036 9.64062 55.6912C9.64062 57.9789 11.4951 59.8334 13.7828 59.8334Z" stroke="white" stroke-width="2"/>
<path d="M178.137 44.847C179.624 44.847 180.829 43.6418 180.829 42.1551C180.829 40.6684 179.624 39.4631 178.137 39.4631C176.651 39.4631 175.445 40.6684 175.445 42.1551C175.445 43.6418 176.651 44.847 178.137 44.847Z" stroke="white" stroke-width="2"/>
<path d="M193.358 61.5876L196.214 59.868L192.881 59.8923L190.782 56.6274L190.696 60.5078L187.839 62.2276L191.173 62.2031L193.272 65.468L193.358 61.5876Z" fill="#FACA3E"/>
<path d="M5.48789 87.9916L8.70313 87.1109L5.48789 86.2303L4.35303 82.5186L3.21818 86.2303L0.00179743 87.1109L3.21818 87.9916L4.35303 91.7033L5.48789 87.9916Z" fill="#FACA3E"/>
<path d="M47.1903 108.314C47.1903 108.314 20.4001 137.165 65.222 167.819C96.3918 183.017 118.545 162.152 118.545 162.152" stroke="#39A9EA" stroke-width="2" stroke-miterlimit="10" stroke-dasharray="12 12"/>
</svg>
