<svg width="120" height="107" viewBox="0 0 120 107" fill="none" xmlns="http://www.w3.org/2000/svg">
<path d="M8.58747 57.0396C10.709 63.2665 18.0859 68.5723 27.8439 72.0894C36.9447 75.3767 48.1317 77.0986 59.0444 76.5534C61.1946 76.4497 63.3399 76.2487 65.4496 75.9662C76.436 74.46 86.6723 70.4163 93.6243 63.0859C94.3319 62.3475 95.0002 61.572 95.6292 60.7594C105.42 48.2491 108.09 25.6138 96.1865 13.4416C92.0114 9.17842 86.8025 6.96164 81.3716 6.01393C81.0187 5.95216 80.6657 5.89039 80.3054 5.85164C80.2947 5.85341 80.2714 5.84634 80.2606 5.84812C72.9224 4.80047 65.3047 5.94751 59.3837 7.39282C54.8969 8.48168 51.3776 9.73821 49.7184 10.339C48.1527 10.9026 46.5867 11.5316 45.0312 12.2244C38.9025 14.9582 32.9512 18.6335 27.672 22.8305C14.3132 33.4205 5.25007 47.2613 8.58747 57.0396Z" fill="#39A9EA"/>
<path d="M55.5214 11.5326C55.5214 11.5326 98.3033 15.1341 106.56 30.4014C116.063 54.3928 102.898 66.5358 86.4631 78.3842" stroke="#FFC91B" stroke-width="2" stroke-miterlimit="10" stroke-dasharray="12 12"/>
<path d="M105.672 57.8986C104.659 65.4437 98.6422 72.9263 90.1488 78.8072C82.2285 84.3003 72.1387 88.3919 61.9568 89.8308C59.9512 90.1186 57.9352 90.2938 55.9398 90.3689C45.543 90.7192 35.4533 88.0165 27.9013 80.9219C27.1338 80.2086 26.3971 79.4454 25.691 78.632C14.7212 66.1319 8.79624 40.6687 17.9548 24.4523C21.168 18.7716 25.65 15.243 30.5312 13.1284C30.8484 12.9907 31.1656 12.8531 31.4931 12.7405C31.5033 12.7405 31.5238 12.728 31.534 12.728C38.165 10.1379 45.3896 10.0127 51.0894 10.5508C55.4077 10.9512 58.8562 11.727 60.4833 12.1023C62.0182 12.4527 63.5634 12.8781 65.1086 13.3786C71.1973 15.3556 77.2654 18.4463 82.7913 22.2626C96.7696 31.8848 107.269 46.0491 105.672 57.8986Z" fill="#FFC91B"/>
<path d="M8.33389 32.0496C9.93568 32.0496 11.2342 30.7511 11.2342 29.1493C11.2342 27.5475 9.93568 26.249 8.33389 26.249C6.7321 26.249 5.43359 27.5475 5.43359 29.1493C5.43359 30.7511 6.7321 32.0496 8.33389 32.0496Z" stroke="white" stroke-width="2"/>
<circle cx="107.734" cy="20.9637" r="2.02324" stroke="white" stroke-width="2"/>
<path d="M116.94 32.7162L118.667 31.6762L116.651 31.6909L115.382 29.7163L115.33 32.0631L113.602 33.1032L115.619 33.0884L116.888 35.0629L116.94 32.7162Z" fill="#FFC91B"/>
<path d="M3.31722 48.684L5.26172 48.1514L3.31722 47.6188L2.63088 45.374L1.94455 47.6188L-0.00064373 48.1514L1.94455 48.684L2.63088 50.9287L3.31722 48.684Z" fill="#FFC91B"/>
<path d="M18.5375 57.9757C18.5375 57.9757 2.33544 75.424 29.4427 93.9628C48.2935 103.154 61.6913 90.5355 61.6913 90.5355" stroke="#39A9EA" stroke-width="2" stroke-miterlimit="10" stroke-dasharray="12 12"/>
<path fill-rule="evenodd" clip-rule="evenodd" d="M72.5145 45.3666L50.8234 35.3592L52.6408 30.5162L74.3319 40.5236L72.5145 45.3666Z" fill="#BDE2F8"/>
<path fill-rule="evenodd" clip-rule="evenodd" d="M56.0647 73.8136L72.9492 57.607L69.5819 53.9965L52.6974 70.2031L56.0647 73.8136Z" fill="#BDE2F8"/>
<path fill-rule="evenodd" clip-rule="evenodd" d="M41.573 62.0489L38.9351 38.3452L34.083 38.868L36.721 62.5716L41.573 62.0489Z" fill="#BDE2F8"/>
<path d="M55.7465 25.323C57.4452 34.5873 51.2485 43.4863 41.9058 45.1993C32.5632 46.9124 23.6124 40.7909 21.9137 31.5265C20.215 22.2622 26.4116 13.3632 35.7543 11.6502C45.097 9.93711 54.0478 16.0586 55.7465 25.323Z" fill="#212C5F"/>
<path d="M53.5661 25.723C55.1515 34.3697 49.596 42.6336 41.1575 44.1809C32.719 45.7281 24.5929 39.9729 23.0074 31.3262C21.422 22.6795 26.9775 14.4156 35.416 12.8683C43.8546 11.321 51.9806 17.0763 53.5661 25.723Z" fill="#BDE2F8"/>
<path d="M33.7315 43.0444C23.3064 38.0689 22.9778 27.6298 24.1166 23.0321C25.6258 31.263 32.7325 35.8004 35.648 34.5906C46.5053 28.9537 49.2393 31.2545 49.6983 35.5591C48.3795 43.4983 38.5042 43.8573 33.7315 43.0444Z" fill="#EEF9FF"/>
<path d="M42.2893 18.5449L29.9204 20.8129C28.2093 21.1266 27.0737 22.7193 27.3766 24.371L29.3912 35.3585C29.6941 37.0101 31.3209 38.0963 33.0319 37.7826L33.8153 37.639C34.6399 37.4878 35.4805 37.6563 36.1611 38.1145L38.2358 39.4933C39.182 40.1213 40.491 39.8813 41.1528 38.9584L42.6033 36.9332C43.0771 36.2634 43.8135 35.8057 44.6278 35.6564L45.4009 35.5146C47.1119 35.2009 48.2475 33.6082 47.9447 31.9565L45.93 20.969C45.6272 19.3174 44.0004 18.2312 42.2893 18.5449ZM36.7973 23.4555C38.127 23.2117 39.391 24.0626 39.6292 25.3617C39.8675 26.6609 38.9875 27.9048 37.6579 28.1487C36.3282 28.3925 35.0623 27.5316 34.826 26.2425C34.5877 24.9433 35.4677 23.6994 36.7973 23.4555ZM41.2789 32.3252L35.7541 33.3382C34.9192 33.4913 34.2686 32.6737 34.6087 31.9139C35.1231 30.7682 36.3581 29.8339 37.9145 29.5485C39.471 29.2631 40.9571 29.6985 41.8445 30.5872C42.4321 31.1769 42.1035 32.174 41.2789 32.3252Z" fill="#FFE48D"/>
<path d="M42.4678 18.5115L30.8264 20.646C29.216 20.9413 28.148 22.4447 28.434 24.0046L30.3367 34.3817C30.6227 35.9416 32.1547 36.9683 33.7651 36.673L34.5023 36.5378C35.2784 36.3955 36.0698 36.5552 36.7107 36.9882L38.6644 38.2915C39.5553 38.8851 40.7874 38.6592 41.4098 37.7881L42.7739 35.8764C43.2195 35.2442 43.9125 34.8124 44.6789 34.6718L45.4064 34.5384C47.0168 34.2431 48.0848 32.7398 47.7988 31.1799L45.8961 20.8028C45.6101 19.2429 44.0781 18.2162 42.4678 18.5115ZM37.3011 23.1456C38.5525 22.9161 39.7428 23.7203 39.9678 24.9473C40.1928 26.1743 39.3652 27.3485 38.1138 27.578C36.8623 27.8074 35.6703 26.9937 35.4471 25.7762C35.2221 24.5493 36.0496 23.3751 37.3011 23.1456ZM41.5247 31.5241L36.3248 32.4776C35.5391 32.6216 34.9261 31.8492 35.2458 31.1319C35.7294 30.0503 36.8913 29.1687 38.3562 28.9001C39.8211 28.6315 41.2202 29.0435 42.0561 29.8832C42.6095 30.4404 42.3008 31.3818 41.5247 31.5241Z" fill="#FFF4D1"/>
<path d="M38.5484 20.3983L37.9474 20.5085C38.1509 20.4553 38.3512 20.4189 38.5484 20.3983L42.6248 19.6509C43.658 19.4614 44.6452 20.123 44.8295 21.1286L46.7492 31.5977C45.8539 27.5569 43.0015 19.9346 38.5484 20.3983Z" fill="#FFDB67"/>
<path d="M37.8672 15.1982L26.2373 17.3307L25.234 18.7931L37.8672 15.1982Z" fill="#212C5F"/>
<path d="M100.647 42.5202C102.346 51.7846 96.1489 60.6835 86.8062 62.3966C77.4636 64.1097 68.5128 57.9881 66.8141 48.7238C65.1154 39.4595 71.312 30.5605 80.6547 28.8474C89.9973 27.1344 98.9481 33.2559 100.647 42.5202Z" fill="#212C5F"/>
<path d="M98.4645 42.9193C100.05 51.566 94.4945 59.8299 86.0559 61.3771C77.6174 62.9244 69.4913 57.1692 67.9059 48.5225C66.3204 39.8758 71.8759 31.6119 80.3145 30.0646C88.753 28.5173 96.8791 34.2725 98.4645 42.9193Z" fill="#BDE2F8"/>
<path d="M78.6299 60.2407C68.2049 55.2652 67.8762 44.826 69.015 40.2284C70.5242 48.4592 77.6309 52.9967 80.5465 51.7869C91.4038 46.15 94.1378 48.4508 94.5968 52.7554C93.2779 60.6945 83.4027 61.0536 78.6299 60.2407Z" fill="#EEF9FF"/>
<path d="M87.178 35.7422L74.809 38.0102C73.098 38.3239 71.976 39.991 72.2957 41.7344L74.4223 53.3323C74.742 55.0757 76.3824 56.2364 78.0935 55.9226L78.8768 55.779C79.7014 55.6278 80.5452 55.8137 81.2316 56.3032L83.3236 57.7765C84.2777 58.4477 85.5867 58.2076 86.2406 57.2417L87.6738 55.1219C88.1418 54.4208 88.8751 53.9457 89.6894 53.7964L90.4624 53.6547C92.1735 53.3409 93.2954 51.6738 92.9758 49.9304L90.8492 38.3325C90.5295 36.5891 88.8891 35.4285 87.178 35.7422ZM81.7245 40.8626C83.0541 40.6188 84.3288 41.5278 84.5803 42.8992C84.8317 44.2705 83.9625 45.5727 82.6328 45.8165C81.3031 46.0603 80.0265 45.1406 79.777 43.7799C79.5256 42.4086 80.3948 41.1064 81.7245 40.8626ZM86.3016 50.2531L80.7768 51.2662C79.9419 51.4193 79.282 50.5513 79.6152 49.754C80.1193 48.5518 81.3473 47.5795 82.9038 47.2941C84.4602 47.0087 85.9533 47.4821 86.8511 48.4273C87.4455 49.0545 87.1262 50.102 86.3016 50.2531Z" fill="#FFE48D"/>
<path d="M87.3564 35.7088L75.715 37.8433C74.1046 38.1386 73.0503 39.7164 73.3531 41.3681L75.3678 52.3556C75.6706 54.0072 77.2162 55.1083 78.8266 54.813L79.5639 54.6778C80.34 54.5355 81.1345 54.7125 81.7812 55.1769L83.7522 56.5747C84.651 57.2115 85.8831 56.9855 86.4976 56.0713L87.8444 54.0652C88.2843 53.4016 88.974 52.9524 89.7404 52.8119L90.468 52.6785C92.0784 52.3832 93.1327 50.8054 92.8299 49.1537L90.8152 38.1662C90.5124 36.5146 88.9668 35.4135 87.3564 35.7088ZM82.2282 40.5527C83.4797 40.3232 84.6806 41.1856 84.9188 42.4848C85.1571 43.7839 84.3402 45.0163 83.0887 45.2458C81.8373 45.4752 80.6345 44.6028 80.3981 43.3137C80.1599 42.0145 80.9768 40.7821 82.2282 40.5527ZM86.5473 49.4521L81.3475 50.4055C80.5617 50.5496 79.9396 49.7268 80.2524 48.972C80.7256 47.8339 81.8805 46.9143 83.3454 46.6457C84.8103 46.3771 86.2164 46.8271 87.0626 47.7233C87.6229 48.318 87.3234 49.3098 86.5473 49.4521Z" fill="#FFF4D1"/>
<path d="M83.4373 37.5966L82.8363 37.7068C83.0395 37.6522 83.2398 37.6158 83.4373 37.5966L87.5136 36.8492C88.5469 36.6597 89.5476 37.3954 89.7488 38.4924L91.8429 49.9133C90.8798 45.5026 87.8961 37.1639 83.4373 37.5966Z" fill="#FFDB67"/>
<path d="M82.8418 33.1934L71.2119 35.3258L70.2086 36.7882L82.8418 33.1934Z" fill="#212C5F"/>
<path d="M58.9066 73.2917C60.6053 82.5561 54.4087 91.455 45.066 93.1681C35.7233 94.8811 26.7725 88.7596 25.0738 79.4953C23.3751 70.2309 29.5718 61.332 38.9144 59.6189C48.2571 57.9059 57.2079 64.0274 58.9066 73.2917Z" fill="#212C5F"/>
<path d="M56.7262 73.6917C58.3117 82.3384 52.7562 90.6023 44.3176 92.1496C35.8791 93.6969 27.7531 87.9417 26.1676 79.2949C24.5821 70.6482 30.1377 62.3843 38.5762 60.8371C47.0147 59.2898 55.1408 65.045 56.7262 73.6917Z" fill="#BDE2F8"/>
<path d="M36.8897 91.0122C26.4646 86.0367 26.136 75.5975 27.2748 70.9999C28.784 79.2307 35.8907 83.7681 38.8062 82.5584C49.6635 76.9215 52.3975 79.2223 52.8565 83.5269C51.5377 91.466 41.6624 91.8251 36.8897 91.0122Z" fill="#EEF9FF"/>
<path d="M45.4417 66.5137L33.0727 68.7816C31.3617 69.0954 30.2261 70.6881 30.5289 72.3397L32.5436 83.3272C32.8464 84.9789 34.4732 86.0651 36.1843 85.7513L36.9676 85.6077C37.7922 85.4565 38.6328 85.6251 39.3135 86.0832L41.3881 87.462C42.3343 88.0901 43.6434 87.8501 44.3052 86.9272L45.7557 84.902C46.2295 84.2322 46.9659 83.7744 47.7802 83.6251L48.5532 83.4834C50.2643 83.1696 51.3999 81.5769 51.097 79.9253L49.0824 68.9378C48.7795 67.2861 47.1527 66.1999 45.4417 66.5137ZM39.9497 71.4243C41.2793 71.1805 42.5434 72.0313 42.7816 73.3305C43.0198 74.6296 42.1399 75.8736 40.8102 76.1174C39.4805 76.3612 38.2147 75.5003 37.9783 74.2112C37.7401 72.912 38.62 71.6681 39.9497 71.4243ZM44.4313 80.2939L38.9065 81.3069C38.0716 81.46 37.4209 80.6425 37.761 79.8827C38.2754 78.737 39.5105 77.8027 41.0669 77.5173C42.6233 77.2319 44.1095 77.6672 44.9969 78.5559C45.5845 79.1456 45.2559 80.1427 44.4313 80.2939Z" fill="#FFE48D"/>
<path d="M45.626 66.4802L33.9846 68.6148C32.3742 68.9101 31.3062 70.4135 31.5922 71.9734L33.4949 82.3505C33.781 83.9103 35.3129 84.937 36.9233 84.6417L37.6605 84.5065C38.4366 84.3642 39.228 84.5239 39.8689 84.9569L41.8226 86.2602C42.7135 86.8539 43.9456 86.628 44.568 85.7568L45.9321 83.8452C46.3777 83.2129 47.0707 82.7811 47.8371 82.6406L48.5646 82.5072C50.175 82.2119 51.243 80.7085 50.957 79.1486L49.0543 68.7715C48.7683 67.2116 47.2363 66.185 45.626 66.4802ZM40.4593 71.1143C41.7107 70.8849 42.901 71.6891 43.126 72.9161C43.351 74.1431 42.5234 75.3173 41.272 75.5467C40.0205 75.7762 38.8285 74.9625 38.6053 73.745C38.3803 72.518 39.2078 71.3438 40.4593 71.1143ZM44.6829 79.4929L39.4831 80.4463C38.6973 80.5904 38.0843 79.818 38.404 79.1006C38.8876 78.019 40.0495 77.1374 41.5144 76.8688C42.9793 76.6002 44.3784 77.0122 45.2143 77.8519C45.7677 78.4091 45.459 79.3506 44.6829 79.4929Z" fill="#FFF4D1"/>
<path d="M41.7029 68.3681L41.1019 68.4783C41.3051 68.4237 41.5054 68.3873 41.7029 68.3681L45.7792 67.6207C46.8125 67.4312 47.8132 68.1669 48.0144 69.2639L50.1085 80.6848C49.1455 76.2741 46.1617 67.9354 41.7029 68.3681Z" fill="#FFDB67"/>
<path d="M40.7363 63.2803L29.1064 65.4127L28.1031 66.8751L40.7363 63.2803Z" fill="#212C5F"/>
</svg>
