<svg width="120" height="106" viewBox="0 0 120 106" fill="none" xmlns="http://www.w3.org/2000/svg">
<path d="M8.58747 56.3941C10.709 62.621 18.0859 67.9268 27.8439 71.4439C36.9447 74.7312 48.1317 76.453 59.0444 75.9079C61.1946 75.8042 63.3399 75.6031 65.4496 75.3207C76.436 73.8145 86.6723 69.7708 93.6243 62.4404C94.3319 61.702 95.0002 60.9265 95.6292 60.1138C105.42 47.6036 108.09 24.9682 96.1865 12.7961C92.0114 8.53291 86.8025 6.31614 81.3716 5.36843C81.0187 5.30666 80.6657 5.24489 80.3054 5.20613C80.2947 5.2079 80.2714 5.20084 80.2606 5.20261C72.9224 4.15496 65.3047 5.302 59.3837 6.74731C54.8969 7.83618 51.3776 9.0927 49.7184 9.69348C48.1527 10.257 46.5867 10.8861 45.0312 11.5789C38.9025 14.3127 32.9512 17.988 27.672 22.185C14.3132 32.775 5.25007 46.6158 8.58747 56.3941Z" fill="#39A9EA"/>
<path d="M55.5214 10.8871C55.5214 10.8871 98.3033 14.4886 106.56 29.7559C116.063 53.7473 102.898 65.8903 86.4631 77.7387" stroke="#FFC91B" stroke-width="2" stroke-miterlimit="10" stroke-dasharray="12 12"/>
<path d="M105.672 57.2531C104.659 64.7982 98.6422 72.2808 90.1488 78.1617C82.2285 83.6547 72.1387 87.7464 61.9568 89.1853C59.9512 89.4731 57.9352 89.6483 55.9398 89.7234C45.543 90.0737 35.4533 87.371 27.9013 80.2763C27.1338 79.5631 26.3971 78.7998 25.691 77.9865C14.7212 65.4864 8.79624 40.0232 17.9548 23.8068C21.168 18.1261 25.65 14.5975 30.5312 12.4829C30.8484 12.3452 31.1656 12.2076 31.4931 12.095C31.5033 12.095 31.5238 12.0825 31.534 12.0825C38.165 9.49236 45.3896 9.36723 51.0894 9.90528C55.4077 10.3057 58.8562 11.0815 60.4833 11.4568C62.0182 11.8072 63.5634 12.2326 65.1086 12.7331C71.1973 14.7101 77.2654 17.8007 82.7913 21.6171C96.7696 31.2393 107.269 45.4036 105.672 57.2531Z" fill="#FFC91B"/>
<path d="M8.33389 31.4041C9.93568 31.4041 11.2342 30.1056 11.2342 28.5038C11.2342 26.902 9.93568 25.6035 8.33389 25.6035C6.7321 25.6035 5.43359 26.902 5.43359 28.5038C5.43359 30.1056 6.7321 31.4041 8.33389 31.4041Z" stroke="white" stroke-width="2"/>
<circle cx="107.734" cy="20.3182" r="2.02324" stroke="white" stroke-width="2"/>
<path d="M116.94 32.0707L118.667 31.0307L116.651 31.0454L115.382 29.0708L115.33 31.4176L113.602 32.4577L115.619 32.4429L116.888 34.4174L116.94 32.0707Z" fill="#FFC91B"/>
<path d="M3.31722 48.0385L5.26172 47.5059L3.31722 46.9733L2.63088 44.7285L1.94455 46.9733L-0.00064373 47.5059L1.94455 48.0385L2.63088 50.2832L3.31722 48.0385Z" fill="#FFC91B"/>
<path d="M18.5375 57.3302C18.5375 57.3302 2.33544 74.7785 29.4427 93.3173C48.2935 102.509 61.6913 89.89 61.6913 89.89" stroke="#39A9EA" stroke-width="2" stroke-miterlimit="10" stroke-dasharray="12 12"/>
<rect x="24.0312" y="19.4062" width="85" height="59" rx="10" transform="rotate(9.47731 24.0312 19.4062)" fill="#212C5F"/>
<rect x="24.8535" y="20.5576" width="81" height="56" rx="10" transform="rotate(9.47731 24.8535 20.5576)" fill="#BDE2F8"/>
<path d="M23.2069 30.4211C24.1163 24.9737 29.2696 21.2948 34.717 22.2042L94.8844 32.2483C100.332 33.1576 104.011 38.3109 103.101 43.7583L99.9729 62.499C99.7001 64.1332 98.1541 65.2369 96.5199 64.9641L22.5435 52.6148C20.9093 52.342 19.8057 50.796 20.0785 49.1618L23.2069 30.4211Z" fill="#FFF4D1"/>
<path d="M24.8453 50.9715L95.3694 62.7445C64.9898 57.6731 56.7389 50.2127 56.4109 47.1164C59.243 30.1512 35.6195 27.9311 23.4537 28.9417L20.7369 45.2165C20.2822 47.9402 22.1216 50.5169 24.8453 50.9715Z" fill="#FFE48D"/>
<path d="M27.498 53.2998L99.6569 65.3578L99.398 66.753L27.498 53.2998Z" fill="#212C5F"/>
<rect x="54.7656" y="53.9385" width="12" height="7" rx="3.5" transform="rotate(9.47731 54.7656 53.9385)" fill="#212C5F"/>
<path d="M34.7168 22.2041L49.5121 24.674L44.49 54.7577C43.808 58.8433 39.9431 61.6024 35.8575 60.9204C31.7719 60.2383 29.0127 56.3734 29.6948 52.2878L34.7168 22.2041Z" fill="#212C5F"/>
<path d="M36.6895 22.5332L48.5257 24.5091L43.2566 56.0723C42.711 59.3408 39.6191 61.5481 36.3506 61.0025C33.0821 60.4569 30.8748 57.3649 31.4204 54.0964L36.6895 22.5332Z" fill="#BDE2F8"/>
<path d="M78.4414 39.6416L93.2367 42.1115L89.8612 62.3316C89.1792 66.4172 85.3142 69.1764 81.2286 68.4944C77.143 67.8123 74.3839 63.9474 75.0659 59.8618L78.4414 39.6416Z" fill="#212C5F"/>
<path d="M80.0898 29.7783L94.8851 32.2482L89.8631 62.3319C89.181 66.4175 85.3161 69.1766 81.2305 68.4946C77.1449 67.8125 74.3858 63.9476 75.0678 59.862L80.0898 29.7783Z" fill="#212C5F"/>
<path d="M81.0762 29.9434L92.9124 31.9192L87.6434 63.4825C87.0977 66.7509 84.0058 68.9583 80.7373 68.4126C77.4688 67.867 75.2615 64.7751 75.8071 61.5066L81.0762 29.9434Z" fill="#BDE2F8"/>
<circle cx="81.5594" cy="63.4798" r="2" transform="rotate(9.47731 81.5594 63.4798)" fill="#212C5F"/>
<circle cx="37.1727" cy="56.0706" r="2" transform="rotate(9.47731 37.1727 56.0706)" fill="#212C5F"/>
<path d="M96.5169 77.1291L97.6695 70.2246C97.8513 69.1351 97.1128 68.1075 96.0089 68.0701C88.8385 67.8275 75.3115 70.8304 68.899 72.5187C55.6145 76.7896 30.9768 75.9885 20.4008 74.561L85.0068 85.346C90.4543 86.2554 95.6075 82.5765 96.5169 77.1291Z" fill="#D7EEFB"/>
<path d="M46.9531 77.1211L17.1603 72.1344L17.0063 73.5451L46.9531 77.1211Z" fill="#212C5F"/>
</svg>
