<svg width="120" height="106" viewBox="0 0 120 106" fill="none" xmlns="http://www.w3.org/2000/svg">
<path d="M8.58747 56.3941C10.709 62.621 18.0859 67.9268 27.8439 71.4439C36.9447 74.7312 48.1317 76.453 59.0444 75.9079C61.1946 75.8042 63.3399 75.6031 65.4496 75.3207C76.436 73.8145 86.6723 69.7708 93.6243 62.4404C94.3319 61.702 95.0002 60.9265 95.6292 60.1138C105.42 47.6036 108.09 24.9682 96.1865 12.7961C92.0114 8.53291 86.8025 6.31614 81.3716 5.36843C81.0187 5.30666 80.6657 5.24489 80.3054 5.20613C80.2947 5.2079 80.2714 5.20084 80.2606 5.20261C72.9224 4.15496 65.3047 5.302 59.3837 6.74731C54.8969 7.83618 51.3776 9.0927 49.7184 9.69348C48.1527 10.257 46.5867 10.8861 45.0312 11.5789C38.9025 14.3127 32.9512 17.988 27.672 22.185C14.3132 32.775 5.25007 46.6158 8.58747 56.3941Z" fill="#39A9EA"/>
<path d="M55.5214 10.8871C55.5214 10.8871 98.3033 14.4886 106.56 29.7559C116.063 53.7473 102.898 65.8903 86.4631 77.7387" stroke="#FFC91B" stroke-width="2" stroke-miterlimit="10" stroke-dasharray="12 12"/>
<path d="M105.672 57.2531C104.659 64.7982 98.6422 72.2808 90.1488 78.1617C82.2285 83.6547 72.1387 87.7464 61.9568 89.1853C59.9512 89.4731 57.9352 89.6483 55.9398 89.7234C45.543 90.0737 35.4533 87.371 27.9013 80.2763C27.1338 79.5631 26.3971 78.7998 25.691 77.9865C14.7212 65.4864 8.79624 40.0232 17.9548 23.8068C21.168 18.1261 25.65 14.5975 30.5312 12.4829C30.8484 12.3452 31.1656 12.2076 31.4931 12.095C31.5033 12.095 31.5238 12.0825 31.534 12.0825C38.165 9.49236 45.3896 9.36723 51.0894 9.90528C55.4077 10.3057 58.8562 11.0815 60.4833 11.4568C62.0182 11.8072 63.5634 12.2326 65.1086 12.7331C71.1973 14.7101 77.2654 17.8007 82.7913 21.6171C96.7696 31.2393 107.269 45.4036 105.672 57.2531Z" fill="#FFC91B"/>
<path d="M8.33389 31.4041C9.93568 31.4041 11.2342 30.1056 11.2342 28.5038C11.2342 26.902 9.93568 25.6035 8.33389 25.6035C6.7321 25.6035 5.43359 26.902 5.43359 28.5038C5.43359 30.1056 6.7321 31.4041 8.33389 31.4041Z" stroke="white" stroke-width="2"/>
<circle cx="107.734" cy="20.3182" r="2.02324" stroke="white" stroke-width="2"/>
<path d="M116.94 32.0707L118.667 31.0307L116.651 31.0454L115.382 29.0708L115.33 31.4176L113.602 32.4577L115.619 32.4429L116.888 34.4174L116.94 32.0707Z" fill="#FFC91B"/>
<path d="M3.31722 48.0385L5.26172 47.5059L3.31722 46.9733L2.63088 44.7285L1.94455 46.9733L-0.00064373 47.5059L1.94455 48.0385L2.63088 50.2832L3.31722 48.0385Z" fill="#FFC91B"/>
<path d="M18.5375 57.3302C18.5375 57.3302 2.33544 74.7785 29.4427 93.3173C48.2935 102.509 61.6913 89.89 61.6913 89.89" stroke="#39A9EA" stroke-width="2" stroke-miterlimit="10" stroke-dasharray="12 12"/>
<path fill-rule="evenodd" clip-rule="evenodd" d="M72.5702 71.1968C81.9016 68.1492 89.4945 60.7348 92.1754 50.7297C96.4456 34.7931 86.6365 18.318 70.2661 13.9316C53.8958 9.54515 37.1633 18.9084 32.8931 34.845C30.2125 44.8492 33.0801 55.0655 39.6361 62.3704L38.4936 66.6341C37.7789 69.3014 39.3618 72.0431 42.0292 72.7578L65.3045 78.9944C67.9718 79.7091 70.7135 78.1262 71.4282 75.4588L72.5702 71.1968Z" fill="#212C5F"/>
<path fill-rule="evenodd" clip-rule="evenodd" d="M72.4467 70.2685C81.3231 67.248 88.5777 59.9964 91.1866 50.2595C95.3422 34.7508 86.1386 18.8097 70.6299 14.6542C55.1211 10.4986 39.1801 19.7022 35.0245 35.2109C32.416 44.9462 35.0715 54.8518 41.2462 61.9057L40.1583 65.9659C39.4436 68.6332 41.0265 71.3749 43.6938 72.0896L65.2357 77.8617C67.9031 78.5764 70.6447 76.9935 71.3594 74.3262L72.4467 70.2685Z" fill="#FFF4D1"/>
<rect x="37.0508" y="73.4023" width="33.3786" height="6.7032" transform="rotate(15 37.0508 73.4023)" fill="#212C5F"/>
<rect x="38.0312" y="73.917" width="32.3018" height="5.38364" transform="rotate(15 38.0312 73.917)" fill="#BDE2F8"/>
<path d="M36.0762 81.1963L68.3174 89.8353L67.7785 91.8465C67.0638 94.5139 64.3221 96.0968 61.6548 95.3821L39.0728 89.3313C36.4055 88.6165 34.8226 85.8749 35.5373 83.2075L36.0762 81.1963Z" fill="#212C5F"/>
<path d="M35.7988 82.2363L67 90.5967L66.9007 90.9672C66.186 93.6346 63.4443 95.2175 60.777 94.5028L39.2351 88.7306C36.5677 88.0159 34.9848 85.2742 35.6995 82.6069L35.7988 82.2363Z" fill="#BDE2F8"/>
<path d="M74.1774 67.9961C93.8357 54.5364 90.9758 37.198 87.0885 30.2113C83.0756 45.1879 70.7248 45.5199 65.051 43.8138C52.5706 40.4697 45.3383 56.3672 43.2822 64.7339L42.1675 68.8941L67.6485 75.7217L68.6238 72.0816C69.7385 67.9214 72.7907 67.6245 74.1774 67.9961Z" fill="#FFE48D"/>
<path d="M42.8965 64.0732L72.2455 71.0256L71.8782 72.3962L42.8965 64.0732Z" fill="#212C5F"/>
<path d="M67.9102 83.0373L67.0741 86.1575C57.5058 83.5936 44.2306 77.8071 38.7891 75.2344L67.9102 83.0373Z" fill="#EEF9FF"/>
<path d="M62.9434 91.1814L40.2066 85.0891C39.2277 84.8268 38.337 85.7327 38.6157 86.707C38.7559 87.1971 39.1689 87.5605 39.6728 87.6372L62.9434 91.1814Z" fill="#EEF9FF"/>
</svg>
