<svg width="122" height="109" viewBox="0 0 122 109" fill="none" xmlns="http://www.w3.org/2000/svg">
<path d="M8.58747 57.3941C10.709 63.621 18.0859 68.9268 27.8439 72.4439C36.9447 75.7312 48.1317 77.453 59.0444 76.9079C61.1946 76.8042 63.3399 76.6031 65.4496 76.3207C76.436 74.8145 86.6723 70.7708 93.6243 63.4404C94.3319 62.702 95.0002 61.9265 95.6292 61.1138C105.42 48.6036 108.09 25.9682 96.1865 13.7961C92.0114 9.53291 86.8025 7.31614 81.3716 6.36843C81.0187 6.30666 80.6657 6.24489 80.3054 6.20613C80.2947 6.2079 80.2714 6.20084 80.2606 6.20261C72.9224 5.15496 65.3047 6.302 59.3837 7.74731C54.8969 8.83618 51.3776 10.0927 49.7184 10.6935C48.1527 11.257 46.5867 11.8861 45.0312 12.5789C38.9025 15.3127 32.9512 18.988 27.672 23.185C14.3132 33.775 5.25007 47.6158 8.58747 57.3941Z" fill="#39A9EA"/>
<path fill-rule="evenodd" clip-rule="evenodd" d="M105.651 31.1799C104.695 29.4335 103.228 27.8166 101.348 26.3248L102.592 24.7582C104.637 26.3815 106.32 28.2128 107.438 30.2798L107.466 30.332L107.488 30.3872C108.454 32.8253 109.193 35.1509 109.721 37.3751L107.775 37.8374C107.275 35.7326 106.574 33.5173 105.651 31.1799ZM89.2945 20.0102C85.0108 18.4276 80.3992 17.1647 75.9916 16.1684L76.4326 14.2176C80.8962 15.2266 85.5973 16.5122 89.9876 18.1342L89.2945 20.0102ZM55.4363 12.8831L55.5203 11.8866C55.6041 10.8902 55.6042 10.8902 55.6043 10.8902L55.6134 10.891L55.6385 10.8931L55.735 10.9017C55.8197 10.9092 55.9446 10.9207 56.1073 10.9362C56.4327 10.9673 56.9093 11.0149 57.5177 11.0809C58.7345 11.2128 60.479 11.4187 62.5955 11.7147L62.3184 13.6954C60.2251 13.4026 58.5012 13.1992 57.3021 13.0692C56.7026 13.0042 56.2344 12.9575 55.917 12.9272C55.7582 12.912 55.6372 12.9009 55.5563 12.8937L55.4653 12.8856L55.443 12.8837L55.4363 12.8831ZM101.867 63.9289C104.891 60.2235 107.093 56.2075 108.115 51.6361L110.067 52.0727C108.962 57.0128 106.59 61.3047 103.417 65.1934L101.867 63.9289ZM85.8772 77.9271C87.8485 76.506 89.7665 75.0848 91.6007 73.6422L92.8372 75.2142C90.9732 76.6803 89.0308 78.1191 87.0469 79.5494L85.8772 77.9271Z" fill="#FACA3E"/>
<path d="M105.676 58.2531C104.663 65.7982 98.6461 73.2808 90.1527 79.1617C82.2324 84.6548 72.1426 88.7464 61.9607 90.1853C59.9551 90.4731 57.9392 90.6483 55.9437 90.7234C45.547 91.0737 35.4572 88.371 27.9052 81.2763C27.1377 80.5631 26.401 79.7998 25.6949 78.9865C14.7251 66.4864 8.80015 41.0232 17.9587 24.8068C21.1719 19.1261 25.6539 15.5975 30.5351 13.4829C30.8523 13.3452 31.1696 13.2076 31.497 13.095C31.5072 13.095 31.5277 13.0825 31.5379 13.0825C38.1689 10.4924 45.3935 10.3672 51.0933 10.9053C55.4116 11.3057 58.8601 12.0815 60.4872 12.4568C62.0221 12.8072 63.5673 13.2326 65.1125 13.7331C71.2012 15.7101 77.2694 18.8007 82.7952 22.6171C96.7735 32.2393 107.273 46.4036 105.676 58.2531Z" fill="#FACA3E"/>
<path fill-rule="evenodd" clip-rule="evenodd" d="M12.2381 29.5019C12.2381 31.6559 10.4919 33.4022 8.3378 33.4022C6.18372 33.4022 4.4375 31.6559 4.4375 29.5019C4.4375 27.3478 6.18372 25.6016 8.3378 25.6016C10.4919 25.6016 12.2381 27.3478 12.2381 29.5019ZM8.3378 31.4022C9.3873 31.4022 10.2381 30.5514 10.2381 29.5019C10.2381 28.4524 9.3873 27.6016 8.3378 27.6016C7.28829 27.6016 6.4375 28.4524 6.4375 29.5019C6.4375 30.5514 7.28829 31.4022 8.3378 31.4022Z" fill="white"/>
<path fill-rule="evenodd" clip-rule="evenodd" d="M110.757 21.3162C110.757 22.9859 109.404 24.3394 107.734 24.3394C106.064 24.3394 104.711 22.9859 104.711 21.3162C104.711 19.6465 106.064 18.293 107.734 18.293C109.404 18.293 110.757 19.6465 110.757 21.3162ZM107.734 22.3394C108.299 22.3394 108.757 21.8813 108.757 21.3162C108.757 20.7511 108.299 20.293 107.734 20.293C107.169 20.293 106.711 20.7511 106.711 21.3162C106.711 21.8813 107.169 22.3394 107.734 22.3394Z" fill="white"/>
<path d="M116.94 33.0687L118.667 32.0288L116.651 32.0434L115.382 30.0689L115.33 32.4156L113.602 33.4558L115.619 33.4409L116.888 35.4155L116.94 33.0687Z" fill="#FACA3E"/>
<path d="M3.32113 49.0365L5.26563 48.5039L3.32113 47.9713L2.63479 45.7266L1.94846 47.9713L0.00326252 48.5039L1.94846 49.0365L2.63479 51.2813L3.32113 49.0365Z" fill="#FACA3E"/>
<path fill-rule="evenodd" clip-rule="evenodd" d="M28.9385 95.1833L29.0043 95.2154C31.916 96.6351 34.7106 97.5525 37.3594 98.0823L37.7517 96.1212C35.2946 95.6297 32.6845 94.7781 29.9465 93.4497C28.4098 92.3962 27.0181 91.3486 25.7594 90.3102L24.4866 91.853C25.8113 92.9458 27.2713 94.0431 28.878 95.142L28.9385 95.1833ZM18.5859 82.6896C16.255 79.2855 15.1804 76.0889 14.85 73.2263L12.8632 73.4556C13.2325 76.6561 14.4296 80.1596 16.9357 83.8196L18.5859 82.6896ZM59.2056 91.5718C58.0068 92.413 56.2449 93.495 54.0081 94.4455L54.7902 96.2862C57.1797 95.2709 59.0639 94.1145 60.3544 93.2089C61.0002 92.7558 61.4988 92.3644 61.8392 92.0833C62.0094 91.9427 62.1402 91.8295 62.2303 91.7499C62.2753 91.71 62.3101 91.6786 62.3346 91.6562L62.3635 91.6296L62.3721 91.6216L62.375 91.6189L62.376 91.618C62.3762 91.6178 62.3768 91.6172 61.6912 90.8893C61.0056 90.1613 61.0057 90.1611 61.0059 90.161L61.0033 90.1634L60.9856 90.1796C60.9688 90.195 60.9418 90.2194 60.9049 90.2521C60.8311 90.3174 60.7175 90.4157 60.5656 90.5412C60.2616 90.7923 59.8046 91.1515 59.2056 91.5718ZM19.2705 59.0096C19.2703 59.0097 19.2702 59.0099 18.5374 58.3294C17.8046 57.649 17.8045 57.6491 17.8043 57.6493L17.8032 57.6505L17.8012 57.6526L17.7956 57.6587L17.7778 57.6783C17.763 57.6947 17.7426 57.7175 17.7169 57.7467C17.6656 57.8051 17.5933 57.8891 17.5036 57.9977C17.324 58.2148 17.0743 58.5309 16.7822 58.9383C16.1988 59.7522 15.4431 60.9359 14.7429 62.4285L16.5536 63.2779C17.1925 61.916 17.8814 60.8378 18.4078 60.1035C18.6706 59.7367 18.8921 59.457 19.045 59.272C19.1215 59.1795 19.1808 59.1108 19.2194 59.0667C19.2388 59.0447 19.253 59.0289 19.2616 59.0194L19.2705 59.0096Z" fill="#39A9EA"/>
<path d="M16.5151 30.975C16.2392 28.2274 18.243 25.7764 20.9906 25.5005L92.6305 18.3082C95.3781 18.0324 97.8291 20.0361 98.1049 22.7837L102.201 63.5786C102.476 66.3263 100.473 68.7773 97.725 69.0531L26.0852 76.2454C23.3376 76.5213 20.8866 74.5175 20.6107 71.7699L16.5151 30.975Z" fill="#212C5F"/>
<path d="M16.7182 32.9633C16.4424 30.2157 18.4461 27.7647 21.1937 27.4888L90.8436 20.4963C93.5912 20.2204 96.0422 22.2242 96.3181 24.9718L100.314 64.7717C100.59 67.5193 98.5859 69.9703 95.8383 70.2462L26.1884 77.2387C23.4408 77.5146 20.9898 75.5108 20.714 72.7632L16.7182 32.9633Z" fill="#BDE2F8"/>
<path d="M21.1614 72.2187L18.6641 47.3438C20.3023 63.6617 33.0488 63.8226 39.2173 61.8632C63.8901 51.346 86.5482 62.8066 94.7932 69.8515L26.6359 76.6942C23.8882 76.9701 21.4372 74.9663 21.1614 72.2187Z" fill="#D7EEFB"/>
<path d="M95.7437 26.1773L96.7891 36.5898C95.9445 28.178 89.3738 28.095 86.1939 29.1051C73.4752 34.5267 61.7949 28.6188 57.5446 24.9871L90.2692 21.7017C93.0168 21.4259 95.4678 23.4296 95.7437 26.1773Z" fill="#D7EEFB"/>
<path d="M66.9141 72.75L75.869 71.851L77.1677 84.7859L72.3405 81.753L68.2127 85.685L66.9141 72.75Z" fill="#FEF4D8"/>
<path d="M58.5 64.9492L54.3464 23.4198L55.6738 23.2346L58.5 64.9492Z" fill="#212C5F"/>
<path d="M72 67.7422L100.866 64.0549L101.11 65.3727L72 67.7422Z" fill="#212C5F"/>
<path d="M22.6404 41.9172C22.5024 40.5434 23.5043 39.3179 24.8781 39.18L44.7781 37.1821C46.1519 37.0442 47.3774 38.046 47.5153 39.4198V39.4198C47.6532 40.7937 46.6514 42.0192 45.2775 42.1571L25.3776 44.1549C24.0038 44.2929 22.7783 43.291 22.6404 41.9172V41.9172Z" fill="#39A9EA"/>
<path d="M23.839 53.8569C23.8114 53.5821 24.0118 53.337 24.2866 53.3094L48.1665 50.912C48.4413 50.8844 48.6864 51.0848 48.714 51.3595V51.3595C48.7415 51.6343 48.5412 51.8794 48.2664 51.907L24.3865 54.3044C24.1117 54.332 23.8666 54.1316 23.839 53.8569V53.8569Z" fill="#9095AF"/>
<path d="M24.4406 59.8256C24.413 59.5509 24.6134 59.3058 24.8881 59.2782L48.7681 56.8807C49.0428 56.8531 49.2879 57.0535 49.3155 57.3283V57.3283C49.3431 57.603 49.1427 57.8481 48.868 57.8757L24.988 60.2732C24.7133 60.3008 24.4682 60.1004 24.4406 59.8256V59.8256Z" fill="#9095AF"/>
<path d="M25.0343 65.7983C25.0067 65.5235 25.2071 65.2784 25.4819 65.2508L49.3618 62.8534C49.6366 62.8258 49.8817 63.0262 49.9093 63.3009V63.3009C49.9369 63.5757 49.7365 63.8208 49.4617 63.8484L25.5818 66.2458C25.307 66.2734 25.0619 66.073 25.0343 65.7983V65.7983Z" fill="#9095AF"/>
<path d="M64.6359 49.7631C64.6083 49.4884 64.8087 49.2433 65.0834 49.2157L88.9634 46.8182C89.2382 46.7906 89.4833 46.991 89.5108 47.2658V47.2658C89.5384 47.5405 89.338 47.7856 89.0633 47.8132L65.1833 50.2107C64.9086 50.2383 64.6635 50.0379 64.6359 49.7631V49.7631Z" fill="#5AB7ED"/>
<path d="M65.2374 55.7319C65.2099 55.4571 65.4102 55.212 65.685 55.1844L89.565 52.787C89.8397 52.7594 90.0848 52.9598 90.1124 53.2345V53.2345C90.14 53.5093 89.9396 53.7544 89.6648 53.782L65.7849 56.1794C65.5101 56.207 65.265 56.0066 65.2374 55.7319V55.7319Z" fill="#5AB7ED"/>
<path d="M65.8312 61.7045C65.8036 61.4298 66.004 61.1847 66.2787 61.1571L90.1587 58.7596C90.4335 58.7321 90.6786 58.9324 90.7061 59.2072V59.2072C90.7337 59.482 90.5334 59.7271 90.2586 59.7546L66.3786 62.1521C66.1039 62.1797 65.8588 61.9793 65.8312 61.7045V61.7045Z" fill="#5AB7ED"/>
<path d="M62.7374 30.8569C62.7099 30.5821 62.9102 30.337 63.185 30.3094L87.065 27.912C87.3397 27.8844 87.5848 28.0848 87.6124 28.3595V28.3595C87.64 28.6343 87.4396 28.8794 87.1648 28.907L63.2849 31.3044C63.0101 31.332 62.765 31.1316 62.7374 30.8569V30.8569Z" fill="#5AB7ED"/>
<path d="M63.339 36.8256C63.3114 36.5509 63.5118 36.3058 63.7866 36.2782L87.6665 33.8807C87.9413 33.8531 88.1864 34.0535 88.214 34.3283V34.3283C88.2415 34.603 88.0412 34.8481 87.7664 34.8757L63.8865 37.2732C63.6117 37.3008 63.3666 37.1004 63.339 36.8256V36.8256Z" fill="#5AB7ED"/>
<path d="M63.9328 42.7983C63.9052 42.5235 64.1056 42.2784 64.3803 42.2508L88.2603 39.8534C88.535 39.8258 88.7801 40.0262 88.8077 40.3009V40.3009C88.8353 40.5757 88.6349 40.8208 88.3602 40.8484L64.4802 43.2458C64.2054 43.2734 63.9603 43.073 63.9328 42.7983V42.7983Z" fill="#5AB7ED"/>
</svg>
