<svg width="24" height="24" viewBox="0 0 24 24" fill="none" xmlns="http://www.w3.org/2000/svg">
<path d="M11.3943 21.4338L11.3943 21.4337L11.3894 21.4311C9.46716 20.3826 6.11938 19.283 3.99657 19.0045C3.99604 19.0044 3.99551 19.0043 3.99498 19.0042L3.70832 18.9647L3.70833 18.9646L3.70062 18.9637C2.64483 18.8347 1.75 17.8207 1.75 16.74V4.66001C1.75 4.00527 2.00468 3.42114 2.46698 2.99939C2.93279 2.57444 3.5341 2.37046 4.17531 2.42801L4.1753 2.42804L4.18148 2.42852C6.30009 2.59223 9.54219 3.66618 11.3542 4.8035L11.3611 4.80781L11.3681 4.8119L11.6081 4.9519L11.6081 4.95191L11.6119 4.95413C11.7535 5.03505 11.9071 5.04914 11.9921 5.05112C12.0734 5.05301 12.2242 5.04694 12.3636 4.97722L12.3849 4.9666L12.405 4.95401L12.565 4.85401L12.5658 4.8535C14.3733 3.71899 17.6017 2.62848 19.7318 2.44001H19.7319H19.7322H19.7324H19.7326H19.7329H19.7331H19.7334H19.7336H19.7339H19.7341H19.7344H19.7346H19.7349H19.7351H19.7354H19.7356H19.7359H19.7361H19.7364H19.7366H19.7369H19.7372H19.7374H19.7377H19.7379H19.7382H19.7384H19.7387H19.739H19.7392H19.7395H19.7397H19.74H19.7403H19.7405H19.7408H19.7411H19.7413H19.7416H19.7419H19.7421H19.7424H19.7427H19.7429H19.7432H19.7435H19.7437H19.744H19.7443H19.7446H19.7448H19.7451H19.7454H19.7456H19.7459H19.7462H19.7465H19.7467H19.747H19.7473H19.7476H19.7478H19.7481H19.7484H19.7487H19.749H19.7492H19.7495H19.7498H19.7501H19.7504H19.7506H19.7509H19.7512H19.7515H19.7518H19.752H19.7523H19.7526H19.7529H19.7532H19.7535H19.7537H19.754H19.7543H19.7546H19.7549H19.7552H19.7555H19.7557H19.756H19.7563H19.7566H19.7569H19.7572H19.7575H19.7578H19.758H19.7583H19.7586H19.7589H19.7592H19.7595H19.7598H19.7601H19.7604H19.7607H19.7609H19.7612H19.7615H19.7618H19.7621H19.7624H19.7627H19.763H19.7633H19.7636H19.7639H19.7641H19.7644H19.7647H19.765H19.7653H19.7656H19.7659H19.7662H19.7665H19.7668H19.7671H19.7674H19.7677H19.7679H19.7682H19.7685H19.7688H19.7691H19.7694H19.7697H19.77H19.7703H19.7706H19.7709H19.7712H19.7715H19.7718H19.7721H19.7723H19.7726H19.7729H19.7732H19.7735H19.7738H19.7741H19.7744H19.7747H19.775H19.7753H19.7756H19.7759H19.7761H19.7764H19.7767H19.777H19.7773H19.7776H19.7779H19.7782H19.7785H19.7788H19.7791H19.7793H19.7796H19.7799H19.7802H19.7805H19.7808H19.7811H19.7814H19.7817H19.7819H19.7822H19.7825H19.7828H19.7831H19.7834H19.7837H19.784H19.7843H19.7845H19.7848H19.7851H19.7854H19.7857H19.786H19.7862H19.7865H19.7868H19.7871H19.7874H19.7877H19.788H19.7882H19.7885H19.7888H19.7891H19.7894H19.7896H19.7899H19.7902H19.7905H19.7908H19.791H19.7913H19.7916H19.7919H19.7922H19.7924H19.7927H19.793H19.7933H19.7935H19.7938H19.7941H19.7944H19.7946H19.7949H19.7952H19.7954H19.7957H19.796H19.7963H19.7965H19.7968H19.7971H19.7973H19.7976H19.7979H19.7981H19.7984H19.7987H19.7989H19.7992H19.7995H19.7997H19.8H19.8003H19.8005H19.8008H19.801H19.8013H19.8016H19.8018H19.8021H19.8023H19.8026H19.8028H19.8031H19.8034H19.8036H19.8039H19.8041H19.8044H19.8046H19.8049H19.8051H19.8054H19.8056H19.8059H19.8061H19.8064H19.8066H19.8069H19.8071H19.8074H19.8076H19.8078H19.8081H19.8083H19.8086H19.8088H19.809H19.8093H19.8095H19.8098H19.81H19.8102H19.8105H19.8107H19.8109H19.8112H19.8114H19.8116H19.8119H19.8121H19.8123H19.8125H19.8128H19.813H19.8132H19.8134H19.8137H19.8139H19.8141H19.8143H19.8145H19.8148H19.815H19.8152H19.8154H19.8156H19.8158H19.8161H19.8163H19.8165H19.8167H19.8169H19.8171H19.8173H19.8175H19.8177H19.8179H19.8181H19.8183H19.8185H19.8187H19.8189H19.8191H19.8193H19.8195H19.8197H19.8199H19.8201H19.8203H19.8205H19.8207H19.8209H19.8211H19.8213H19.8214H19.8216H19.8218H19.822H19.8222H19.8224H19.8225H19.8227H19.8229H19.8231H19.8232H19.8234H19.8236H19.8238H19.8239H19.8241H19.8243H19.8244H19.8246H19.8248H19.8249H19.8251H19.8253H19.8254H19.8256H19.8257H19.8259H19.826H19.8262H19.8264H19.8265H19.8267H19.8268H19.827H19.8271H19.8272H19.8274H19.8275H19.8277H19.8278H19.828H19.8281H19.8282H19.8284H19.8285H19.8286H19.8288H19.8289H19.829H19.8291H19.8293H19.8294H19.8295H19.8296H19.8298H19.8299H19.83H19.8539L19.8777 2.43772C20.4597 2.38192 21.07 2.58945 21.5298 3.0164L21.5298 3.01642L21.533 3.01939C21.9953 3.44114 22.25 4.02527 22.25 4.68001V16.75C22.25 17.8386 21.3574 18.8442 20.2898 18.9736L19.9598 19.0136L19.955 19.0142C17.8322 19.2925 14.4724 20.4025 12.5884 21.4423L12.5883 21.4421L12.5781 21.4481C12.4345 21.5318 12.2379 21.58 12 21.58C11.7739 21.58 11.5601 21.5266 11.3943 21.4338ZM2.80287 3.37076L2.80286 3.37076L2.80147 3.37204C2.44196 3.70279 2.25 4.1694 2.25 4.66001V16.74C2.25 17.1773 2.43659 17.5807 2.70061 17.8812C2.9642 18.1813 3.33735 18.4158 3.7605 18.4752L3.76392 18.4756L4.06392 18.5156C6.25282 18.8075 9.64416 19.9182 11.5907 20.979L11.6085 20.9887L11.6269 20.9969C11.732 21.0436 11.8414 21.0661 11.9303 21.075C11.9969 21.0817 12.1435 21.0911 12.2857 21.0342L12.315 21.0225L12.3426 21.0072C14.2862 19.9285 17.6934 18.8088 19.8921 18.5161L20.2284 18.4766L20.2309 18.4763C20.6609 18.4235 21.037 18.1854 21.3003 17.884C21.5641 17.582 21.75 17.1764 21.75 16.74V4.67001C21.75 4.16523 21.5555 3.71454 21.2063 3.37931L21.1989 3.37226L21.1913 3.36551C20.8294 3.04535 20.3734 2.89708 19.8874 2.92001H19.8873H19.8871H19.8869H19.8867H19.8865H19.8863H19.8861H19.8858H19.8856H19.8854H19.8852H19.885H19.8848H19.8845H19.8843H19.8841H19.8839H19.8837H19.8834H19.8832H19.883H19.8828H19.8825H19.8823H19.8821H19.8819H19.8816H19.8814H19.8812H19.8809H19.8807H19.8805H19.8802H19.88H19.8798H19.8795H19.8793H19.879H19.8788H19.8786H19.8783H19.8781H19.8778H19.8776H19.8773H19.8771H19.8769H19.8766H19.8764H19.8761H19.8759H19.8756H19.8754H19.8751H19.8749H19.8746H19.8744H19.8741H19.8739H19.8736H19.8734H19.8731H19.8728H19.8726H19.8723H19.8721H19.8718H19.8716H19.8713H19.871H19.8708H19.8705H19.8703H19.87H19.8697H19.8695H19.8692H19.8689H19.8687H19.8684H19.8681H19.8679H19.8676H19.8673H19.8671H19.8668H19.8665H19.8663H19.866H19.8657H19.8654H19.8652H19.8649H19.8646H19.8644H19.8641H19.8638H19.8635H19.8633H19.863H19.8627H19.8624H19.8622H19.8619H19.8616H19.8613H19.861H19.8608H19.8605H19.8602H19.8599H19.8596H19.8594H19.8591H19.8588H19.8585H19.8582H19.858H19.8577H19.8574H19.8571H19.8568H19.8565H19.8562H19.856H19.8557H19.8554H19.8551H19.8548H19.8545H19.8542H19.854H19.8537H19.8534H19.8531H19.8528H19.8525H19.8522H19.8519H19.8517H19.8514H19.8511H19.8508H19.8505H19.8502H19.8499H19.8496H19.8493H19.8491H19.8488H19.8485H19.8482H19.8479H19.8476H19.8473H19.847H19.8467H19.8464H19.8461H19.8459H19.8456H19.8453H19.845H19.8447H19.8444H19.8441H19.8438H19.8435H19.8432H19.8429H19.8426H19.8423H19.8421H19.8418H19.8415H19.8412H19.8409H19.8406H19.8403H19.84H19.8397H19.8394H19.8391H19.8388H19.8385H19.8382H19.8379H19.8377H19.8374H19.8371H19.8368H19.8365H19.8362H19.8359H19.8356H19.8353H19.835H19.8347H19.8344H19.8341H19.8339H19.8336H19.8333H19.833H19.8327H19.8324H19.8321H19.8318H19.8315H19.8312H19.8309H19.8307H19.8304H19.8301H19.8298H19.8295H19.8292H19.8289H19.8286H19.8283H19.8281H19.8278H19.8275H19.8272H19.8269H19.8266H19.8263H19.826H19.8258H19.8255H19.8252H19.8249H19.8246H19.8243H19.824H19.8238H19.8235H19.8232H19.8229H19.8226H19.8223H19.8221H19.8218H19.8215H19.8212H19.8209H19.8206H19.8204H19.8201H19.8198H19.8195H19.8192H19.819H19.8187H19.8184H19.8181H19.8179H19.8176H19.8173H19.817H19.8167H19.8165H19.8162H19.8159H19.8156H19.8154H19.8151H19.8148H19.8146H19.8143H19.814H19.8137H19.8135H19.8132H19.8129H19.8127H19.8124H19.8121H19.8119H19.8116H19.8113H19.8111H19.8108H19.8105H19.8103H19.81H19.8097H19.8095H19.8092H19.809H19.8087H19.8084H19.8082H19.8079H19.8077H19.8074H19.8072H19.8069H19.8066H19.8064H19.8061H19.8059H19.8056H19.8054H19.8051H19.8049H19.8046H19.8044H19.8041H19.8039H19.8036H19.8034H19.8031H19.8029H19.8027H19.8024H19.8022H19.8019H19.8017H19.8014H19.8012H19.801H19.8007H19.8005H19.8002H19.8H19.7998H19.7995H19.7993H19.7991H19.7988H19.7986H19.7984H19.7981H19.7979H19.7977H19.7975H19.7972H19.797H19.7968H19.7966H19.7963H19.7961H19.7959H19.7957H19.7955H19.7952H19.795H19.7948H19.7946H19.7944H19.7942H19.7939H19.7937H19.7935H19.7933H19.7931H19.7929H19.7927H19.7925H19.7923H19.7921H19.7919H19.7917H19.7915H19.7913H19.7911H19.7909H19.7907H19.7905H19.7903H19.7901H19.7899H19.7897H19.7895H19.7893H19.7891H19.7889H19.7887H19.7886H19.7884H19.7882H19.788H19.7878H19.7876H19.7875H19.7873H19.7871H19.7869H19.7868H19.7866H19.7864H19.7862H19.7861H19.7859H19.7857H19.7856H19.7854H19.7852H19.7851H19.7849H19.7847H19.7846H19.7844H19.7843H19.7841H19.784H19.7838H19.7836H19.7835H19.7833H19.7832H19.783H19.7829H19.7828H19.7826H19.7825H19.7823H19.7822H19.782H19.7819H19.7818H19.7816H19.7815H19.7814H19.7812H19.7811H19.781H19.7809H19.7807H19.7806H19.7805H19.7804H19.7802H19.7801H19.78H19.7578L19.7357 2.92198C18.7272 3.01173 17.4387 3.32415 16.1993 3.74111C14.9596 4.15818 13.7299 4.69295 12.845 5.24601L12.8357 5.2518L12.8267 5.25799L12.6777 5.36043C12.286 5.59696 11.7165 5.5911 11.3543 5.36556L11.3482 5.36175L11.3419 5.35812L11.1067 5.22092C10.2082 4.67 8.97402 4.13925 7.7257 3.72653C6.47565 3.31324 5.17437 3.00605 4.14068 2.92167L4.12037 2.92001H4.1H4.09977H4.09953H4.0993H4.09906H4.09883H4.09859H4.09836H4.09812H4.09789H4.09766H4.09742H4.09719H4.09695H4.09672H4.09648H4.09625H4.09602H4.09578H4.09555H4.09531H4.09508H4.09484H4.09461H4.09437H4.09414H4.09391H4.09367H4.09344H4.0932H4.09297H4.09273H4.0925H4.09227H4.09203H4.0918H4.09156H4.09133H4.09109H4.09086H4.09062H4.09039H4.09016H4.08992H4.08969H4.08945H4.08922H4.08898H4.08875H4.08852H4.08828H4.08805H4.08781H4.08758H4.08734H4.08711H4.08687H4.08664H4.08641H4.08617H4.08594H4.0857H4.08547H4.08523H4.085H4.08477H4.08453H4.0843H4.08406H4.08383H4.08359H4.08336H4.08312H4.08289H4.08266H4.08242H4.08219H4.08195H4.08172H4.08148H4.08125H4.08102H4.08078H4.08055H4.08031H4.08008H4.07984H4.07961H4.07938H4.07914H4.07891H4.07867H4.07844H4.0782H4.07797H4.07773H4.0775H4.07727H4.07703H4.0768H4.07656H4.07633H4.07609H4.07586H4.07562H4.07539H4.07516H4.07492H4.07469H4.07445H4.07422H4.07398H4.07375H4.07352H4.07328H4.07305H4.07281H4.07258H4.07234H4.07211H4.07187H4.07164H4.07141H4.07117H4.07094H4.0707H4.07047H4.07023H4.07H4.06977H4.06953H4.0693H4.06906H4.06883H4.06859H4.06836H4.06813H4.06789H4.06766H4.06742H4.06719H4.06695H4.06672H4.06648H4.06625H4.06602H4.06578H4.06555H4.06531H4.06508H4.06484H4.06461H4.06437H4.06414H4.06391H4.06367H4.06344H4.0632H4.06297H4.06273H4.0625H4.06227H4.06203H4.0618H4.06156H4.06133H4.06109H4.06086H4.06062H4.06039H4.06016H4.05992H4.05969H4.05945H4.05922H4.05898H4.05875H4.05852H4.05828H4.05805H4.05781H4.05758H4.05734H4.05711H4.05687H4.05664H4.05641H4.05617H4.05594H4.0557H4.05547H4.05523H4.055H4.05477H4.05453H4.0543H4.05406H4.05383H4.05359H4.05336H4.05312H4.05289H4.05266H4.05242H4.05219H4.05195H4.05172H4.05148H4.05125H4.05102H4.05078H4.05055H4.05031H4.05008H4.04984H4.04961H4.04938H4.04914H4.04891H4.04867H4.04844H4.0482H4.04797H4.04773H4.0475H4.04727H4.04703H4.0468H4.04656H4.04633H4.04609H4.04586H4.04562H4.04539H4.04516H4.04492H4.04469H4.04445H4.04422H4.04398H4.04375H4.04352H4.04328H4.04305H4.04281H4.04258H4.04234H4.04211H4.04187H4.04164H4.04141H4.04117H4.04094H4.0407H4.04047H4.04023H4.04H4.03977H4.03953H4.0393H4.03906H4.03883H4.03859H4.03836H4.03813H4.03789H4.03766H4.03742H4.03719H4.03695H4.03672H4.03648H4.03625H4.03602H4.03578H4.03555H4.03531H4.03508H4.03484H4.03461H4.03437H4.03414H4.03391H4.03367H4.03344H4.0332H4.03297H4.03273H4.0325H4.03227H4.03203H4.0318H4.03156H4.03133H4.03109H4.03086H4.03062H4.03039H4.03016H4.02992H4.02969H4.02945H4.02922H4.02898H4.02875H4.02852H4.02828H4.02805H4.02781H4.02758H4.02734H4.02711H4.02688H4.02664H4.02641H4.02617H4.02594H4.0257H4.02547H4.02523H4.025H4.02477H4.02453H4.0243H4.02406H4.02383H4.02359H4.02336H4.02312H4.02289H4.02266H4.02242H4.02219H4.02195H4.02172H4.02148H4.02125H4.02102H4.02078H4.02055H4.02031H4.02008H4.01984H4.01961H4.01938H4.01914H4.01891H4.01867H4.01844H4.0182H4.01797H4.01773H4.0175H4.01727H4.01703H4.0168H4.01656H4.01633H4.01609H4.01586H4.01562H4.01539H4.01516H4.01492H4.01469H4.01445H4.01422H4.01398H4.01375H4.01352H4.01328H4.01305H4.01281H4.01258H4.01234H4.01211H4.01187H4.01164H4.01141H4.01117H4.01094H4.0107H4.01047H4.01023H4.01H4.00977H4.00953H4.0093H4.00906H4.00883H4.00859H4.00836H4.00813H4.00789H4.00766H4.00742H4.00719H4.00695H4.00672H4.00648H4.00625H4.00602H4.00578H4.00555H4.00531H4.00508H4.00484H4.00461H4.00437H4.00414H4.00391H4.00367H4.00344H4.0032H4.00297H4.00273H4.0025H4.00227H4.00203H4.0018H4.00156H4.00133H4.00109H4.00086H4.00062H4.00039H4.00016H3.99992H3.99969H3.99945H3.99922H3.99898H3.99875H3.99852H3.99828H3.99805H3.99781H3.99758H3.99734H3.99711H3.99688H3.99664H3.99641H3.99617H3.99594H3.9957H3.99547H3.99523H3.995H3.99477H3.99453H3.9943H3.99406H3.99383H3.99359H3.99336H3.99312H3.99289H3.99266H3.99242H3.99219H3.99195H3.99172H3.99148H3.99125H3.99102H3.99078H3.99055H3.99031H3.99008H3.98984H3.98961H3.98938H3.98914H3.98891H3.98867H3.98844H3.9882H3.98797H3.98773H3.9875H3.98727H3.98703H3.9868H3.98656H3.98633H3.98609H3.98586H3.98563H3.98539H3.98516H3.98492H3.98469H3.98445H3.98422H3.98398H3.98375H3.98352H3.98328H3.98305H3.98281H3.98258H3.98234H3.98211H3.98187H3.98164H3.98141H3.98117H3.98094H3.9807H3.98047H3.98023H3.98C3.53984 2.92001 3.12834 3.0736 2.80287 3.37076Z" fill="#464646" stroke="#FACA3E"/>
<path d="M12 20.7402C11.8661 20.7402 11.75 20.6241 11.75 20.4902V5.49023C11.75 5.35638 11.8661 5.24023 12 5.24023C12.1339 5.24023 12.25 5.35638 12.25 5.49023V20.4902C12.25 20.6298 12.1382 20.7402 12 20.7402Z" fill="#464646" stroke="#212C5F"/>
<path d="M7.75 9.24023H5.5C5.09 9.24023 4.75 8.90023 4.75 8.49023C4.75 8.08023 5.09 7.74023 5.5 7.74023H7.75C8.16 7.74023 8.5 8.08023 8.5 8.49023C8.5 8.90023 8.16 9.24023 7.75 9.24023Z" fill="#464646"/>
<path d="M8.5 12.2402H5.5C5.09 12.2402 4.75 11.9002 4.75 11.4902C4.75 11.0802 5.09 10.7402 5.5 10.7402H8.5C8.91 10.7402 9.25 11.0802 9.25 11.4902C9.25 11.9002 8.91 12.2402 8.5 12.2402Z" fill="#464646"/>
</svg>
