<svg width="35" height="35" viewBox="0 0 35 35" fill="none" xmlns="http://www.w3.org/2000/svg">
<path d="M17.4998 2.91699L18.4361 2.92428L19.3344 2.94908L19.7705 2.96803L20.6148 3.01762L21.4213 3.0847C28.2565 3.74824 31.1192 6.48699 31.8717 13.1559L31.9155 13.5789L31.9826 14.3853L32.0423 15.4455L32.0511 15.6643L32.0759 16.5641L32.0832 17.5003L32.0759 18.4366L32.0511 19.3349L32.0321 19.7709L31.9826 20.6153L31.9155 21.4218C31.2519 28.257 28.5132 31.1197 21.8442 31.8722L21.4213 31.9159L20.6148 31.983L19.5546 32.0428L19.3359 32.0516L18.4361 32.0764L17.4998 32.0837L16.5636 32.0764L15.6653 32.0516L15.2292 32.0326L14.3848 31.983L13.5784 31.9159C6.74318 31.2524 3.88047 28.5137 3.12797 21.8447L3.08422 21.4218L3.01714 20.6153L2.95734 19.5551L2.94859 19.3364L2.9238 18.4366L2.91797 17.9728V17.0278L2.9238 16.5641L2.94859 15.6657L2.96755 15.2297L3.01714 14.3853L3.08422 13.5789C3.74776 6.74366 6.48651 3.88095 13.1555 3.12845L13.5784 3.0847L14.3848 3.01762L15.4451 2.95783L15.6638 2.94908L16.5636 2.92428C16.8698 2.91991 17.1819 2.91699 17.4998 2.91699ZM17.4998 21.8753C17.1427 21.8754 16.7979 22.0065 16.531 22.2439C16.264 22.4812 16.0935 22.8083 16.0517 23.163L16.0415 23.3337L16.0517 23.5189C16.0939 23.8733 16.2646 24.2 16.5315 24.437C16.7983 24.674 17.1429 24.8049 17.4998 24.8049C17.8568 24.8049 18.2013 24.674 18.4682 24.437C18.7351 24.2 18.9058 23.8733 18.948 23.5189L18.9582 23.3482L18.948 23.163C18.9062 22.8083 18.7356 22.4812 18.4687 22.2439C18.2018 22.0065 17.857 21.8754 17.4998 21.8753ZM19.4948 12.1439C18.6219 11.6976 17.6236 11.5596 16.6623 11.7523C15.701 11.9451 14.8331 12.4572 14.1996 13.2055C13.9581 13.4885 13.8338 13.853 13.8522 14.2245C13.8706 14.5961 14.0303 14.9465 14.2986 15.2042C14.5669 15.4619 14.9235 15.6073 15.2955 15.6107C15.6675 15.614 16.0267 15.4752 16.2996 15.2224L16.549 14.9599C16.7642 14.7624 17.0346 14.6356 17.3241 14.5965C17.6135 14.5574 17.9079 14.6079 18.1678 14.7412C18.4479 14.8829 18.6748 15.1113 18.8147 15.3924C18.9546 15.6734 19.0001 15.9921 18.9444 16.3011C18.8887 16.61 18.7348 16.8928 18.5055 17.1073C18.2763 17.3218 17.9839 17.4566 17.6719 17.4916L17.3336 17.5091C16.9627 17.5499 16.6215 17.7313 16.3803 18.0161C16.1391 18.3008 16.0163 18.6671 16.037 19.0397C16.0578 19.4123 16.2205 19.7627 16.4918 20.0189C16.7631 20.2751 17.1223 20.4176 17.4955 20.417C18.4793 20.4199 19.4354 20.0912 20.2094 19.4839C20.9834 18.8765 21.5301 18.026 21.7612 17.0697C21.9923 16.1134 21.8943 15.1071 21.4831 14.2134C21.0719 13.3196 20.3714 12.5905 19.4948 12.1439Z" fill="white"/>
</svg>
