<svg width="24" height="24" viewBox="0 0 24 24" fill="none" xmlns="http://www.w3.org/2000/svg">
<path d="M17.8101 6.90937L18.029 6.91821L18.0382 6.909C19.2789 6.84392 20.2277 5.82032 20.2403 4.58487L20.2403 4.58488V4.57977C20.2403 3.29186 19.1947 2.24977 17.9003 2.24977C16.6142 2.24977 15.5703 3.29363 15.5703 4.57977C15.5703 5.83881 16.5528 6.85857 17.8101 6.90937ZM18.0003 7.40977H18.0001H18H17.9998H17.9996H17.9994H17.9993H17.9991H17.9989H17.9987H17.9986H17.9984H17.9982H17.998H17.9979H17.9977H17.9975H17.9974H17.9972H17.997H17.9968H17.9967H17.9965H17.9963H17.9962H17.996H17.9958H17.9956H17.9955H17.9953H17.9951H17.995H17.9948H17.9946H17.9945H17.9943H17.9941H17.994H17.9938H17.9936H17.9935H17.9933H17.9931H17.993H17.9928H17.9926H17.9925H17.9923H17.9921H17.992H17.9918H17.9916H17.9915H17.9913H17.9911H17.991H17.9908H17.9906H17.9905H17.9903H17.9901H17.99H17.9898H17.9897H17.9895H17.9893H17.9892H17.989H17.9888H17.9887H17.9885H17.9884H17.9882H17.988H17.9879H17.9877H17.9875H17.9874H17.9872H17.9871H17.9869H17.9867H17.9866H17.9864H17.9863H17.9861H17.9859H17.9858H17.9856H17.9855H17.9853H17.9852H17.985H17.9848H17.9847H17.9845H17.9844H17.9842H17.984H17.9839H17.9837H17.9836H17.9834H17.9833H17.9831H17.9829H17.9828H17.9826H17.9825H17.9823H17.9822H17.982H17.9819H17.9817H17.9815H17.9814H17.9812H17.9811H17.9809H17.9808H17.9806H17.9805H17.9803H17.9801H17.98H17.9798H17.9797H17.9795H17.9794H17.9792H17.9791H17.9789H17.9788H17.9786H17.9785H17.9783H17.9781H17.978H17.9778H17.9777H17.9775H17.9774H17.9772H17.9771H17.9769H17.9768H17.9766H17.9765H17.9763H17.9762H17.976H17.9759H17.9757H17.9756H17.9754H17.9753H17.9751H17.975H17.9748H17.9747H17.9745H17.9744H17.9742H17.9741H17.9739H17.9738H17.9736H17.9735H17.9733H17.9732H17.973H17.9729H17.9727H17.9726H17.9724H17.9723H17.9721H17.972H17.9718H17.9717H17.9715H17.9714H17.9712H17.9711H17.9709H17.9708H17.9706H17.9705H17.9703H17.9702H17.97H17.9699H17.9697H17.9696H17.9694H17.9693H17.9691H17.969H17.9688H17.9687H17.9685H17.9684H17.9682H17.9681H17.968H17.9678H17.9677H17.9675H17.9674H17.9672H17.9671H17.9669H17.9668H17.9666H17.9665H17.9663H17.9662H17.966H17.9659H17.9657H17.9656H17.9654H17.9653H17.9652H17.965H17.9649H17.9647H17.9646H17.9644H17.9643H17.9641H17.964H17.9638H17.9637H17.9635H17.9634H17.9632H17.9631H17.9629H17.9628H17.9627H17.9625H17.9624H17.9622H17.9621H17.9619H17.9618H17.9616H17.9615H17.9613H17.9612H17.961H17.9609H17.9608H17.9606H17.9605H17.9603H17.9602H17.96H17.9599H17.9597H17.9596H17.9594H17.9593H17.9591H17.959H17.9588H17.9587H17.9586H17.9584H17.9583H17.9581H17.958H17.9578H17.9577H17.9575H17.9574H17.9572H17.9571H17.9569H17.9568H17.9566H17.9565H17.9564H17.9562H17.9561H17.9559H17.9558H17.9556H17.9555H17.9553H17.9552H17.955H17.9549H17.9547H17.9546H17.9544H17.9543H17.9541H17.954H17.9539H17.9537H17.9536H17.9534H17.9533H17.9531H17.953H17.9528H17.9527H17.9525H17.9524H17.9522H17.9521H17.9519H17.9518H17.9516H17.9515H17.9513H17.9512H17.951H17.9509H17.9507H17.9506H17.9505H17.9503H17.9502H17.95H17.9499H17.9497H17.9496H17.9494H17.9493H17.9491H17.949H17.9488H17.9487H17.9485H17.9484H17.9482H17.9481H17.9479H17.9478H17.9476H17.9475H17.9473H17.9472H17.947H17.9469H17.9467H17.9466H17.9464H17.9463H17.9461H17.946H17.9458H17.9457H17.9455H17.9454H17.9452H17.9451H17.9449H17.9448H17.9446H17.9445H17.9443H17.9442H17.944H17.9438H17.9437H17.9435H17.9434H17.9432H17.9431H17.9429H17.9428H17.9426H17.9425H17.9423H17.9422H17.942H17.9419H17.9417H17.9416H17.9414H17.9412H17.9411H17.9409H17.9408H17.9406H17.9405H17.9403H17.9402H17.94H17.9399H17.9397H17.9395H17.9394H17.9392H17.9391H17.9389H17.9388H17.9386H17.9385H17.9383H17.9381H17.938H17.9378H17.9377H17.9375H17.9374H17.9372H17.9371H17.9369H17.9367H17.9366H17.9364H17.9363H17.9361H17.9359H17.9358H17.9356H17.9355H17.9353H17.9352H17.935H17.9348H17.9347H17.9345H17.9344H17.9342H17.934H17.9339H17.9337H17.9336H17.9334H17.9332H17.9331H17.9329H17.9328H17.9326H17.9324H17.9323H17.9321H17.9319H17.9318H17.9316H17.9315H17.9313H17.9311H17.931H17.9308H17.9306H17.9305H17.9303H17.9302H17.93H17.9298H17.9297H17.9295H17.9293H17.9292H17.929H17.9288H17.9287H17.9285H17.9283H17.9282H17.928H17.9278H17.9277H17.9275H17.9273H17.9272H17.927H17.9268H17.9267H17.9265H17.9263H17.9262H17.926H17.9258H17.9257H17.9255H17.9253H17.9251H17.925H17.9248H17.9246H17.9245H17.9243H17.9241H17.924H17.9238H17.9236H17.9234H17.9233H17.9231H17.9229H17.9227H17.9226H17.9224H17.9222H17.9221H17.9219H17.9217H17.9215H17.9214H17.9212H17.921H17.9208H17.9207H17.9205H17.9203H17.8785C16.2544 7.35443 15.0703 6.10957 15.0703 4.58977C15.0703 3.02689 16.3455 1.75977 17.9003 1.75977C19.4537 1.75977 20.7296 3.03516 20.7303 4.58839C20.7213 6.10196 19.5682 7.32081 18.0826 7.41573C18.0732 7.41431 18.0659 7.4135 18.0611 7.41297C18.0385 7.41046 18.0204 7.41003 18.0137 7.4099L18.0043 7.40978L18.0003 7.40977Z" fill="#464646" stroke="#FACA3E"/>
<path d="M16.9269 14.688L16.9269 14.688L16.9227 14.6873C16.791 14.6648 16.6968 14.5383 16.7214 14.3943C16.7439 14.2626 16.8704 14.1684 17.0144 14.193L17.0985 13.7001L17.0144 14.193C18.3442 14.4201 19.7788 14.1804 20.7748 13.5169C21.3257 13.1532 21.7185 12.6279 21.7185 12.0101C21.7185 11.3842 21.3058 10.8712 20.778 10.5155L20.778 10.5155L20.7759 10.5141C19.7785 9.84922 18.322 9.60995 16.9812 9.84783L16.9812 9.84776L16.9728 9.8494C16.8481 9.87373 16.7158 9.78915 16.6914 9.646C16.6668 9.50202 16.761 9.3755 16.8927 9.35302L16.8927 9.35303L16.8961 9.35242C18.4179 9.08167 19.973 9.3776 21.0507 10.0958C21.8246 10.6149 22.2185 11.3129 22.2185 12.0101C22.2185 12.7 21.832 13.4069 21.0512 13.9341C20.2335 14.4725 19.1529 14.7801 18.0085 14.7801C17.6443 14.7801 17.2841 14.7521 16.9269 14.688Z" fill="#464646" stroke="#212C5F"/>
<path d="M5.97047 7.91C5.96047 7.91 5.95047 7.91 5.95047 7.91C4.15047 7.85 2.74047 6.39 2.73047 4.59C2.73047 2.75 4.23047 1.25 6.06047 1.25C7.89047 1.25 9.39047 2.75 9.39047 4.58C9.39047 6.39 7.98047 7.85 6.18047 7.91L5.97047 7.16L6.04047 7.91C6.02047 7.91 5.99047 7.91 5.97047 7.91ZM6.07047 6.41C6.13047 6.41 6.18047 6.41 6.24047 6.42C7.13047 6.38 7.91047 5.58 7.91047 4.59C7.91047 3.58 7.09047 2.75999 6.08047 2.75999C5.07047 2.75999 4.25047 3.58 4.25047 4.59C4.25047 5.57 5.01047 6.36 5.98047 6.42C5.99047 6.41 6.03047 6.41 6.07047 6.41Z" fill="#464646"/>
<path d="M5.96 15.2801C4.73 15.2801 3.55 14.9502 2.64 14.3502C1.76 13.7602 1.25 12.9101 1.25 12.0101C1.25 11.1201 1.76 10.2701 2.64 9.68014C3.84 8.88014 5.53 8.57015 7.16 8.86015C7.57 8.93015 7.84 9.32015 7.77 9.73015C7.7 10.1401 7.31 10.4201 6.9 10.3401C5.66 10.1201 4.35 10.3501 3.47 10.9301C3 11.2401 2.75 11.6201 2.75 12.0101C2.75 12.4001 3.01 12.7902 3.47 13.1002C4.34 13.6802 5.64 13.9101 6.87 13.7001C7.28 13.6301 7.67 13.9101 7.74 14.3101C7.81 14.7201 7.54 15.1101 7.13 15.1801C6.74 15.2501 6.35 15.2801 5.96 15.2801Z" fill="#464646"/>
<path d="M12.0003 15.38C11.9703 15.38 11.9503 15.38 11.9203 15.38H11.8703C9.98031 15.32 8.57031 13.86 8.57031 12.06C8.57031 10.22 10.0703 8.72998 11.9003 8.72998C13.7303 8.72998 15.2303 10.23 15.2303 12.06C15.2203 13.87 13.8103 15.33 12.0103 15.39C12.0103 15.38 12.0103 15.38 12.0003 15.38ZM11.9003 10.22C10.8903 10.22 10.0703 11.04 10.0703 12.05C10.0703 13.04 10.8403 13.84 11.8303 13.88C11.8403 13.87 11.9203 13.87 12.0103 13.88C12.9803 13.83 13.7303 13.03 13.7403 12.05C13.7403 11.05 12.9203 10.22 11.9003 10.22Z" fill="#464646"/>
<path d="M12.0013 22.7597C10.8013 22.7597 9.60125 22.4497 8.67125 21.8197C7.79125 21.2297 7.28125 20.3897 7.28125 19.4897C7.28125 18.5997 7.78125 17.7397 8.67125 17.1497C10.5412 15.9097 13.4713 15.9097 15.3313 17.1497C16.2113 17.7397 16.7213 18.5797 16.7213 19.4797C16.7213 20.3697 16.2213 21.2297 15.3313 21.8197C14.4013 22.4397 13.2013 22.7597 12.0013 22.7597ZM9.50125 18.4097C9.03125 18.7197 8.78125 19.1097 8.78125 19.4997C8.78125 19.8897 9.04125 20.2697 9.50125 20.5797C10.8513 21.4897 13.1413 21.4897 14.4913 20.5797C14.9613 20.2697 15.2113 19.8797 15.2113 19.4897C15.2113 19.0997 14.9513 18.7197 14.4913 18.4097C13.1513 17.4997 10.8613 17.5097 9.50125 18.4097Z" fill="#464646"/>
</svg>
