<svg width="24" height="24" viewBox="0 0 24 24" fill="none" xmlns="http://www.w3.org/2000/svg">
  <path d="M6 3C4.355 3 3 4.355 3 6v12c0 1.645 1.355 3 3 3h12c1.645 0 3-1.355 3-3V6c0-1.645-1.355-3-3-3H6zm12 2c.565 0 1 .435 1 1v12c0 .565-.435 1-1 1H6c-.565 0-1-.435-1-1V6c0-.565.435-1 1-1h12z" fill="#FFFFFF"/>
  <path d="M12 8c-2.21 0-4 1.79-4 4s1.79 4 4 4 4-1.79 4-4-1.79-4-4-4zm0 6.5A2.503 2.503 0 0 1 9.5 12c0-1.379 1.122-2.5 2.5-2.5s2.5 1.121 2.5 2.5c0 1.378-1.122 2.5-2.5 2.5z" fill="#FFFFFF"/>
  <circle cx="16.5" cy="7.5" r="1.5" fill="#FFFFFF"/>
</svg>
