<svg width="51" height="50" viewBox="0 0 51 50" fill="none" xmlns="http://www.w3.org/2000/svg">
<path d="M4.875 45.8327V12.562C4.875 8.37447 6.95844 6.27026 11.1043 6.27026H24.0834C28.2292 6.27026 30.2917 8.37447 30.2917 12.562V45.8327" fill="#212C5F"/>
<path d="M22.8946 18.75H12.582C11.7279 18.75 11.0195 18.0417 11.0195 17.1875C11.0195 16.3333 11.7279 15.625 12.582 15.625H22.8946C23.7487 15.625 24.4571 16.3333 24.4571 17.1875C24.4571 18.0417 23.7487 18.75 22.8946 18.75Z" fill="white"/>
<path d="M22.8946 26.5625H12.582C11.7279 26.5625 11.0195 25.8542 11.0195 25C11.0195 24.1458 11.7279 23.4375 12.582 23.4375H22.8946C23.7487 23.4375 24.4571 24.1458 24.4571 25C24.4571 25.8542 23.7487 26.5625 22.8946 26.5625Z" fill="white"/>
<path d="M17.6875 47.3958C16.8333 47.3958 16.125 46.6874 16.125 45.8333V38.0208C16.125 37.1666 16.8333 36.4583 17.6875 36.4583C18.5417 36.4583 19.25 37.1666 19.25 38.0208V45.8333C19.25 46.6874 18.5417 47.3958 17.6875 47.3958Z" fill="#FACA3E"/>
<path d="M48.4154 44.2708H43.6862V38.0208C45.6653 37.3749 47.1029 35.5208 47.1029 33.3333V29.1666C47.1029 26.4374 44.8737 24.2083 42.1445 24.2083C39.4153 24.2083 37.1862 26.4374 37.1862 29.1666V33.3333C37.1862 35.4999 38.6028 37.3332 40.5403 37.9999V44.2708H2.58203C1.72786 44.2708 1.01953 44.9791 1.01953 45.8333C1.01953 46.6874 1.72786 47.3958 2.58203 47.3958H42.0195C42.0612 47.3958 42.082 47.4166 42.1237 47.4166C42.1653 47.4166 42.1863 47.3958 42.2279 47.3958H48.4154C49.2695 47.3958 49.9779 46.6874 49.9779 45.8333C49.9779 44.9791 49.2695 44.2708 48.4154 44.2708Z" fill="#FACA3E"/>
</svg>
