<svg width="50" height="50" viewBox="0 0 50 50" fill="none" xmlns="http://www.w3.org/2000/svg">
<path d="M45.8333 10.1041V34.8749C45.8333 36.8957 44.1875 38.7499 42.1667 38.9999L41.5208 39.0833C38.1042 39.5416 33.2917 40.9583 29.4167 42.5833C28.0625 43.1458 26.5625 42.1249 26.5625 40.6458V11.6666C26.5625 10.8958 27 10.1874 27.6875 9.81242C31.5 7.74992 37.2708 5.91659 41.1875 5.58325H41.3125C43.8125 5.58325 45.8333 7.60408 45.8333 10.1041Z" fill="#FACA3E"/>
<path d="M22.3112 9.81242C18.4987 7.74992 12.7279 5.91659 8.8112 5.58325H8.66536C6.16536 5.58325 4.14453 7.60408 4.14453 10.1041V34.8749C4.14453 36.8957 5.79036 38.7499 7.8112 38.9999L8.45703 39.0833C11.8737 39.5416 16.6862 40.9583 20.5612 42.5833C21.9154 43.1458 23.4154 42.1249 23.4154 40.6458V11.6666C23.4154 10.8749 22.9987 10.1874 22.3112 9.81242ZM10.4154 16.1249H15.1029C15.957 16.1249 16.6654 16.8333 16.6654 17.6874C16.6654 18.5624 15.957 19.2499 15.1029 19.2499H10.4154C9.5612 19.2499 8.85286 18.5624 8.85286 17.6874C8.85286 16.8333 9.5612 16.1249 10.4154 16.1249ZM16.6654 25.4999H10.4154C9.5612 25.4999 8.85286 24.8124 8.85286 23.9374C8.85286 23.0833 9.5612 22.3749 10.4154 22.3749H16.6654C17.5195 22.3749 18.2279 23.0833 18.2279 23.9374C18.2279 24.8124 17.5195 25.4999 16.6654 25.4999Z" fill="#212C5F"/>
</svg>
