<svg width="151" height="133" viewBox="0 0 151 133" fill="none" xmlns="http://www.w3.org/2000/svg">
<path d="M12.1997 73.4C14.8997 81.2 24.0997 87.8 36.2997 92.2C47.6997 96.3 61.6997 98.5 75.2997 97.8C77.9997 97.7 80.6997 97.4 83.2997 97.1C96.9997 95.2 109.8 90.2 118.5 81C119.4 80.1 120.2 79.1 121 78.1C133.2 62.5 136.6 34.2 121.7 19C116.5 13.7 110 10.9 103.2 9.7C102.8 9.6 102.3 9.5 101.9 9.5C101.9 9.5 101.9 9.5 101.8 9.5C92.5997 8.2 83.0997 9.6 75.6997 11.4C70.0997 12.8 65.6997 14.3 63.5997 15.1C61.5997 15.8 59.6997 16.6 57.6997 17.5C49.9997 20.9 42.5997 25.5 35.9997 30.8C19.3997 43.9 8.09967 61.2 12.1997 73.4Z" fill="#69A6E6"/>
<path d="M118.3 95.5L116.4 93.2C119.9 90.4 122.8 87.9 125.2 85.4L127.3 87.5C124.9 90 121.9 92.6 118.3 95.5ZM135 77.7L132.4 76.2C134.5 72.7 135.8 69.3 136.6 65.6L139.5 66.2C138.7 70.1 137.2 73.9 135 77.7ZM136.9 54C136.5 50.4 135.5 46.6 134.1 42.7L136.9 41.7C138.4 45.8 139.4 49.9 139.9 53.6L136.9 54ZM127.3 34.2C124.6 32.2 121.2 30.3 117.1 28.6L118.3 25.8C122.6 27.6 126.2 29.7 129.1 31.8L127.3 34.2ZM105.9 24.6C102.3 23.6 98.4997 22.6 94.3997 21.7L94.9997 18.8C99.1997 19.7 103.1 20.7 106.8 21.8L105.9 24.6ZM82.5997 19.5C75.6997 18.4 70.7997 18 70.6997 18L70.9997 15C70.9997 15 75.9997 15.4 83.0997 16.5L82.5997 19.5Z" fill="#ECC84C"/>
<path d="M133.599 74.5004C132.299 83.9004 124.799 93.3004 114.199 100.6C104.299 107.5 91.6994 112.6 78.9994 114.4C76.4994 114.8 73.9994 115 71.4994 115.1C58.4994 115.5 45.8994 112.2 36.4994 103.3C35.4994 102.4 34.5994 101.5 33.6994 100.4C19.8994 84.8004 12.4994 53.0004 23.8994 32.7004C27.8994 25.6004 33.4994 21.2004 39.5994 18.5004C39.9994 18.3004 40.3994 18.2004 40.7994 18.0004C40.7994 18.0004 40.7994 18.0004 40.8994 18.0004C49.1994 14.8004 58.1994 14.6004 65.2994 15.3004C70.6994 15.8004 74.9994 16.8004 76.9994 17.2004C78.8994 17.6004 80.8994 18.2004 82.7994 18.8004C90.3994 21.3004 97.9994 25.1004 104.899 29.9004C122.499 42.0004 135.599 59.7004 133.599 74.5004Z" fill="#ECC84C"/>
<path d="M11.8995 43.0002C9.49951 43.0002 7.49951 41.0002 7.49951 38.6002C7.49951 36.2002 9.49951 34.2002 11.8995 34.2002C14.2995 34.2002 16.2995 36.2002 16.2995 38.6002C16.2995 41.0002 14.2995 43.0002 11.8995 43.0002ZM11.8995 36.2002C10.5995 36.2002 9.49951 37.3002 9.49951 38.6002C9.49951 39.9002 10.5995 41.0002 11.8995 41.0002C13.1995 41.0002 14.2995 39.9002 14.2995 38.6002C14.2995 37.3002 13.1995 36.2002 11.8995 36.2002Z" fill="white"/>
<path d="M136.199 31.6C134.399 31.6 132.899 30.1 132.899 28.3C132.899 26.5 134.399 25 136.199 25C137.999 25 139.499 26.5 139.499 28.3C139.399 30.2 137.999 31.6 136.199 31.6ZM136.199 27.1C135.499 27.1 134.899 27.7 134.899 28.4C134.899 29.1 135.499 29.7 136.199 29.7C136.899 29.7 137.499 29.1 137.499 28.4C137.499 27.7 136.899 27.1 136.199 27.1Z" fill="white"/>
<path d="M147.7 43.0002L149.9 41.7002H147.4L145.8 39.2002L145.7 42.1002L143.5 43.4002H146L147.6 45.9002L147.7 43.0002Z" fill="#ECC84C"/>
<path d="M5.59951 62.9998L7.99951 62.2998L5.59951 61.5998L4.69951 58.7998L3.79951 61.5998L1.49951 62.2998L3.89951 62.9998L4.79951 65.7998L5.59951 62.9998Z" fill="#ECC84C"/>
<path d="M55.7994 125.3V122.3C59.5994 122.3 63.3994 121.6 67.0994 120.3L68.0994 123.1C64.0994 124.5 59.8994 125.3 55.7994 125.3ZM43.4994 123.3C41.5994 122.7 39.5994 121.9 37.5994 120.9L37.3994 120.8C35.6994 119.6 34.0994 118.4 32.5994 117.2L34.4994 114.9C35.8994 116 37.3994 117.2 38.9994 118.3C40.7994 119.2 42.5994 119.9 44.3994 120.5L43.4994 123.3ZM78.8994 117L76.9994 114.7C77.3994 114.4 77.5994 114.2 77.5994 114.2L79.6994 116.4C79.5994 116.4 79.3994 116.6 78.8994 117ZM23.8994 108.6C21.0994 105 19.1994 101.3 18.0994 97.4996L20.9994 96.6996C21.8994 100.1 23.6994 103.5 26.2994 106.7L23.8994 108.6ZM20.7994 85.5996L17.8994 84.8996C19.4994 78.0996 23.4994 73.7996 23.5994 73.5996L25.7994 75.5996C25.6994 75.6996 22.1994 79.5996 20.7994 85.5996Z" fill="#69A6E6"/>
<path d="M103.2 107.2L105.9 17.9004V16.8004H106.5L107.5 14.6004L108.5 12.4004H48.5995L49.2995 14.6004L49.9995 16.8004H51.0995L51.1995 17.9004L55.2995 107.2L45.3995 108.2H44.9995V111.6L60.8995 111.5H62.4995L87.2995 111.3L91.7995 111.2H92.6995H93.9995L111.2 111.1L113.5 111V111.1V111V108.2L103.2 107.2Z" fill="#FAF3D7"/>
<path d="M102.999 107.4C102.899 100.1 102.899 92.7004 102.899 85.2004V73.9004C102.899 70.1004 102.899 66.3004 102.999 62.5004C103.099 54.9004 103.199 47.3004 103.399 39.6004L103.699 28.1004C103.899 24.3004 103.999 20.4004 104.199 16.6004L104.299 15.0004H105.799H106.299L104.899 15.9004L106.999 11.6004L108.299 13.7004L93.4993 13.5004C88.4993 13.4004 83.4993 13.2004 78.4993 13.2004C73.4993 13.1004 68.4993 13.1004 63.4993 13.1004C58.4993 13.1004 53.4993 13.1004 48.4993 13.2004L49.1993 12.3004L50.6993 16.6004L49.9993 16.0004H51.0993H51.8993L51.9993 16.8004L53.4993 39.3004C54.0993 46.8004 54.4993 54.4004 54.9993 61.9004L56.2993 84.5004C56.6993 92.0004 57.1993 99.6004 57.4993 107.1L57.5993 109.1L55.5993 109.3C52.0993 109.6 48.6993 110 45.1993 110.3L47.0993 108.2V111.6L44.9993 109.5C50.6993 109.5 56.3993 109.5 62.0993 109.5L79.1993 109.6C84.8993 109.6 90.5993 109.7 96.2993 109.9C101.999 110 107.699 110.1 113.399 110.3H114.099L114.199 110.9V111L112.699 111.1L112.799 108.2L113.399 108.8L108.099 108.1L102.999 107.4ZM103.299 107.1L113.499 107.6H113.999V108.2L114.099 111.1L112.599 111.2V111.1L113.299 111.7C107.599 112 101.899 112.1 96.1993 112.4C90.4993 112.6 84.7993 112.8 79.0993 113L61.9993 113.4C56.2993 113.5 50.5993 113.6 44.8993 113.7H42.7993V111.6V108.2V106.3L44.6993 106.1C48.1993 105.7 51.5993 105.4 55.0993 105.1L53.1993 107.3C52.7993 99.8004 52.5993 92.2004 52.2993 84.7004L51.4993 62.1004C51.1993 54.6004 50.9993 47.0004 50.8993 39.5004L50.2993 16.8004L51.0993 17.6004H49.9993H49.3993L49.2993 17.0004L47.8993 12.7004L47.5993 11.7004H48.5993C53.5993 11.8004 58.5993 11.8004 63.5993 11.8004C68.5993 11.8004 73.5993 11.8004 78.5993 11.7004C83.5993 11.6004 88.5993 11.5004 93.5993 11.4004L108.499 11.0004L110.699 10.9004L109.799 13.0004L107.899 17.4004L107.499 18.3004H106.499H105.999L107.599 16.8004C107.599 20.5004 107.499 24.2004 107.399 28.0004L107.099 39.1004C106.799 46.5004 106.499 54.0004 106.099 61.4004C105.899 65.1004 105.699 68.9004 105.499 72.6004L104.899 83.9004C104.399 91.6004 103.899 99.3004 103.299 107.1Z" fill="#29305E"/>
<path d="M106 15.8008L105.9 17.9008L103.1 108.201H55.3996L51.1996 17.9008L51.0996 15.8008H106Z" fill="#FAF3D7"/>
<g opacity="0.47">
<mask id="mask0_2516_81959" style="mask-type:luminance" maskUnits="userSpaceOnUse" x="54" y="15" width="49" height="92">
<path d="M54.8994 16.8002L58.4994 106.8H99.8994L102.499 15.7002L54.8994 16.8002Z" fill="white"/>
</mask>
<g mask="url(#mask0_2516_81959)">
<path d="M57.1994 15.7002L54.8994 16.2002V15.7002H57.1994Z" fill="#B78696"/>
</g>
<mask id="mask1_2516_81959" style="mask-type:luminance" maskUnits="userSpaceOnUse" x="54" y="15" width="49" height="92">
<path d="M54.8994 16.8002L58.4994 106.8H99.8994L102.499 15.7002L54.8994 16.8002Z" fill="white"/>
</mask>
<g mask="url(#mask1_2516_81959)">
<path d="M63.2994 15.7002L54.8994 17.5002V16.2002L57.1994 15.7002H63.2994Z" fill="#B68595"/>
</g>
<mask id="mask2_2516_81959" style="mask-type:luminance" maskUnits="userSpaceOnUse" x="54" y="15" width="49" height="92">
<path d="M54.8994 16.8002L58.4994 106.8H99.8994L102.499 15.7002L54.8994 16.8002Z" fill="white"/>
</mask>
<g mask="url(#mask2_2516_81959)">
<path d="M69.4994 15.7002L54.8994 18.8002V17.5002L63.2994 15.7002H69.4994Z" fill="#B68494"/>
</g>
<mask id="mask3_2516_81959" style="mask-type:luminance" maskUnits="userSpaceOnUse" x="54" y="15" width="49" height="92">
<path d="M54.8994 16.8002L58.4994 106.8H99.8994L102.499 15.7002L54.8994 16.8002Z" fill="white"/>
</mask>
<g mask="url(#mask3_2516_81959)">
<path d="M75.6994 15.7002L54.8994 20.1002V18.8002L69.4994 15.7002H75.6994Z" fill="#B58393"/>
</g>
<mask id="mask4_2516_81959" style="mask-type:luminance" maskUnits="userSpaceOnUse" x="54" y="15" width="49" height="92">
<path d="M54.8994 16.8002L58.4994 106.8H99.8994L102.499 15.7002L54.8994 16.8002Z" fill="white"/>
</mask>
<g mask="url(#mask4_2516_81959)">
<path d="M81.8994 15.7002L54.8994 21.4002V20.1002L75.6994 15.7002H81.8994Z" fill="#B58292"/>
</g>
<mask id="mask5_2516_81959" style="mask-type:luminance" maskUnits="userSpaceOnUse" x="54" y="15" width="49" height="92">
<path d="M54.8994 16.8002L58.4994 106.8H99.8994L102.499 15.7002L54.8994 16.8002Z" fill="white"/>
</mask>
<g mask="url(#mask5_2516_81959)">
<path d="M87.9994 15.7002L54.8994 22.7002V21.4002L81.8994 15.7002H87.9994Z" fill="#B48191"/>
</g>
<mask id="mask6_2516_81959" style="mask-type:luminance" maskUnits="userSpaceOnUse" x="54" y="15" width="49" height="92">
<path d="M54.8994 16.8002L58.4994 106.8H99.8994L102.499 15.7002L54.8994 16.8002Z" fill="white"/>
</mask>
<g mask="url(#mask6_2516_81959)">
<path d="M94.1994 15.7002L54.8994 24.0002V22.7002L87.9994 15.7002H94.1994Z" fill="#B38090"/>
</g>
<mask id="mask7_2516_81959" style="mask-type:luminance" maskUnits="userSpaceOnUse" x="54" y="15" width="49" height="92">
<path d="M54.8994 16.8002L58.4994 106.8H99.8994L102.499 15.7002L54.8994 16.8002Z" fill="white"/>
</mask>
<g mask="url(#mask7_2516_81959)">
<path d="M100.399 15.7002L54.8994 25.3002V24.0002L94.1994 15.7002H100.399Z" fill="#B37F8F"/>
</g>
<mask id="mask8_2516_81959" style="mask-type:luminance" maskUnits="userSpaceOnUse" x="54" y="15" width="49" height="92">
<path d="M54.8994 16.8002L58.4994 106.8H99.8994L102.499 15.7002L54.8994 16.8002Z" fill="white"/>
</mask>
<g mask="url(#mask8_2516_81959)">
<path d="M102.499 16.6002L54.8994 26.6002V25.3002L100.399 15.7002H102.499V16.6002Z" fill="#B27E8E"/>
</g>
<mask id="mask9_2516_81959" style="mask-type:luminance" maskUnits="userSpaceOnUse" x="54" y="15" width="49" height="92">
<path d="M54.8994 16.8002L58.4994 106.8H99.8994L102.499 15.7002L54.8994 16.8002Z" fill="white"/>
</mask>
<g mask="url(#mask9_2516_81959)">
<path d="M102.499 17.9006L54.8994 27.9006V26.6006L102.499 16.6006V17.9006Z" fill="#B27D8E"/>
</g>
<mask id="mask10_2516_81959" style="mask-type:luminance" maskUnits="userSpaceOnUse" x="54" y="15" width="49" height="92">
<path d="M54.8994 16.8002L58.4994 106.8H99.8994L102.499 15.7002L54.8994 16.8002Z" fill="white"/>
</mask>
<g mask="url(#mask10_2516_81959)">
<path d="M102.499 19.2004L54.8994 29.2004V27.9004L102.499 17.9004V19.2004Z" fill="#B17C8D"/>
</g>
<mask id="mask11_2516_81959" style="mask-type:luminance" maskUnits="userSpaceOnUse" x="54" y="15" width="49" height="92">
<path d="M54.8994 16.8002L58.4994 106.8H99.8994L102.499 15.7002L54.8994 16.8002Z" fill="white"/>
</mask>
<g mask="url(#mask11_2516_81959)">
<path d="M102.499 20.5002L54.8994 30.5002V29.2002L102.499 19.2002V20.5002Z" fill="#B17B8C"/>
</g>
<mask id="mask12_2516_81959" style="mask-type:luminance" maskUnits="userSpaceOnUse" x="54" y="15" width="49" height="92">
<path d="M54.8994 16.8002L58.4994 106.8H99.8994L102.499 15.7002L54.8994 16.8002Z" fill="white"/>
</mask>
<g mask="url(#mask12_2516_81959)">
<path d="M102.499 21.8L54.8994 31.8V30.5L102.499 20.5V21.8Z" fill="#B07A8B"/>
</g>
<mask id="mask13_2516_81959" style="mask-type:luminance" maskUnits="userSpaceOnUse" x="54" y="15" width="49" height="92">
<path d="M54.8994 16.8002L58.4994 106.8H99.8994L102.499 15.7002L54.8994 16.8002Z" fill="white"/>
</mask>
<g mask="url(#mask13_2516_81959)">
<path d="M102.499 23.0998L54.8994 33.0998V31.7998L102.499 21.7998V23.0998Z" fill="#AF798A"/>
</g>
<mask id="mask14_2516_81959" style="mask-type:luminance" maskUnits="userSpaceOnUse" x="54" y="15" width="49" height="92">
<path d="M54.8994 16.8002L58.4994 106.8H99.8994L102.499 15.7002L54.8994 16.8002Z" fill="white"/>
</mask>
<g mask="url(#mask14_2516_81959)">
<path d="M102.499 24.4006L54.8994 34.4006V33.1006L102.499 23.1006V24.4006Z" fill="#AF7889"/>
</g>
<mask id="mask15_2516_81959" style="mask-type:luminance" maskUnits="userSpaceOnUse" x="54" y="15" width="49" height="92">
<path d="M54.8994 16.8002L58.4994 106.8H99.8994L102.499 15.7002L54.8994 16.8002Z" fill="white"/>
</mask>
<g mask="url(#mask15_2516_81959)">
<path d="M102.499 25.7004L54.8994 35.7004V34.4004L102.499 24.4004V25.7004Z" fill="#AE7788"/>
</g>
<mask id="mask16_2516_81959" style="mask-type:luminance" maskUnits="userSpaceOnUse" x="54" y="15" width="49" height="92">
<path d="M54.8994 16.8002L58.4994 106.8H99.8994L102.499 15.7002L54.8994 16.8002Z" fill="white"/>
</mask>
<g mask="url(#mask16_2516_81959)">
<path d="M102.499 27.0002L54.8994 37.0002V35.7002L102.499 25.7002V27.0002Z" fill="#AE7687"/>
</g>
<mask id="mask17_2516_81959" style="mask-type:luminance" maskUnits="userSpaceOnUse" x="54" y="15" width="49" height="92">
<path d="M54.8994 16.8002L58.4994 106.8H99.8994L102.499 15.7002L54.8994 16.8002Z" fill="white"/>
</mask>
<g mask="url(#mask17_2516_81959)">
<path d="M102.499 28.3L54.8994 38.3V37L102.499 27V28.3Z" fill="#AD7486"/>
</g>
<mask id="mask18_2516_81959" style="mask-type:luminance" maskUnits="userSpaceOnUse" x="54" y="15" width="49" height="92">
<path d="M54.8994 16.8002L58.4994 106.8H99.8994L102.499 15.7002L54.8994 16.8002Z" fill="white"/>
</mask>
<g mask="url(#mask18_2516_81959)">
<path d="M102.499 29.5998L54.8994 39.5998V38.2998L102.499 28.2998V29.5998Z" fill="#AD7385"/>
</g>
<mask id="mask19_2516_81959" style="mask-type:luminance" maskUnits="userSpaceOnUse" x="54" y="15" width="49" height="92">
<path d="M54.8994 16.8002L58.4994 106.8H99.8994L102.499 15.7002L54.8994 16.8002Z" fill="white"/>
</mask>
<g mask="url(#mask19_2516_81959)">
<path d="M102.499 30.9006L54.8994 40.9006V39.6006L102.499 29.6006V30.9006Z" fill="#AC7284"/>
</g>
<mask id="mask20_2516_81959" style="mask-type:luminance" maskUnits="userSpaceOnUse" x="54" y="15" width="49" height="92">
<path d="M54.8994 16.8002L58.4994 106.8H99.8994L102.499 15.7002L54.8994 16.8002Z" fill="white"/>
</mask>
<g mask="url(#mask20_2516_81959)">
<path d="M102.499 32.2004L54.8994 42.2004V40.9004L102.499 30.9004V32.2004Z" fill="#AC7183"/>
</g>
<mask id="mask21_2516_81959" style="mask-type:luminance" maskUnits="userSpaceOnUse" x="54" y="15" width="49" height="92">
<path d="M54.8994 16.8002L58.4994 106.8H99.8994L102.499 15.7002L54.8994 16.8002Z" fill="white"/>
</mask>
<g mask="url(#mask21_2516_81959)">
<path d="M102.499 33.5002L54.8994 43.5002V42.2002L102.499 32.2002V33.5002Z" fill="#AB7082"/>
</g>
<mask id="mask22_2516_81959" style="mask-type:luminance" maskUnits="userSpaceOnUse" x="54" y="15" width="49" height="92">
<path d="M54.8994 16.8002L58.4994 106.8H99.8994L102.499 15.7002L54.8994 16.8002Z" fill="white"/>
</mask>
<g mask="url(#mask22_2516_81959)">
<path d="M102.499 34.8L54.8994 44.8V43.5L102.499 33.5V34.8Z" fill="#AA6F81"/>
</g>
<mask id="mask23_2516_81959" style="mask-type:luminance" maskUnits="userSpaceOnUse" x="54" y="15" width="49" height="92">
<path d="M54.8994 16.8002L58.4994 106.8H99.8994L102.499 15.7002L54.8994 16.8002Z" fill="white"/>
</mask>
<g mask="url(#mask23_2516_81959)">
<path d="M102.499 36.0998L54.8994 46.0998V44.7998L102.499 34.7998V36.0998Z" fill="#AA6E80"/>
</g>
<mask id="mask24_2516_81959" style="mask-type:luminance" maskUnits="userSpaceOnUse" x="54" y="15" width="49" height="92">
<path d="M54.8994 16.8002L58.4994 106.8H99.8994L102.499 15.7002L54.8994 16.8002Z" fill="white"/>
</mask>
<g mask="url(#mask24_2516_81959)">
<path d="M102.499 37.4006L54.8994 47.4006V46.1006L102.499 36.1006V37.4006Z" fill="#A96D7F"/>
</g>
<mask id="mask25_2516_81959" style="mask-type:luminance" maskUnits="userSpaceOnUse" x="54" y="15" width="49" height="92">
<path d="M54.8994 16.8002L58.4994 106.8H99.8994L102.499 15.7002L54.8994 16.8002Z" fill="white"/>
</mask>
<g mask="url(#mask25_2516_81959)">
<path d="M102.499 38.7004L54.8994 48.7004V47.4004L102.499 37.4004V38.7004Z" fill="#A96C7F"/>
</g>
<mask id="mask26_2516_81959" style="mask-type:luminance" maskUnits="userSpaceOnUse" x="54" y="15" width="49" height="92">
<path d="M54.8994 16.8002L58.4994 106.8H99.8994L102.499 15.7002L54.8994 16.8002Z" fill="white"/>
</mask>
<g mask="url(#mask26_2516_81959)">
<path d="M102.499 40.0002L54.8994 50.0002V48.7002L102.499 38.7002V40.0002Z" fill="#A86B7E"/>
</g>
<mask id="mask27_2516_81959" style="mask-type:luminance" maskUnits="userSpaceOnUse" x="54" y="15" width="49" height="92">
<path d="M54.8994 16.8002L58.4994 106.8H99.8994L102.499 15.7002L54.8994 16.8002Z" fill="white"/>
</mask>
<g mask="url(#mask27_2516_81959)">
<path d="M102.499 41.3L54.8994 51.3V50L102.499 40V41.3Z" fill="#A86A7D"/>
</g>
<mask id="mask28_2516_81959" style="mask-type:luminance" maskUnits="userSpaceOnUse" x="54" y="15" width="49" height="92">
<path d="M54.8994 16.8002L58.4994 106.8H99.8994L102.499 15.7002L54.8994 16.8002Z" fill="white"/>
</mask>
<g mask="url(#mask28_2516_81959)">
<path d="M102.499 42.5998L54.8994 52.5998V51.2998L102.499 41.2998V42.5998Z" fill="#A7697C"/>
</g>
<mask id="mask29_2516_81959" style="mask-type:luminance" maskUnits="userSpaceOnUse" x="54" y="15" width="49" height="92">
<path d="M54.8994 16.8002L58.4994 106.8H99.8994L102.499 15.7002L54.8994 16.8002Z" fill="white"/>
</mask>
<g mask="url(#mask29_2516_81959)">
<path d="M102.499 43.9006L54.8994 53.9006V52.6006L102.499 42.6006V43.9006Z" fill="#A6687B"/>
</g>
<mask id="mask30_2516_81959" style="mask-type:luminance" maskUnits="userSpaceOnUse" x="54" y="15" width="49" height="92">
<path d="M54.8994 16.8002L58.4994 106.8H99.8994L102.499 15.7002L54.8994 16.8002Z" fill="white"/>
</mask>
<g mask="url(#mask30_2516_81959)">
<path d="M102.499 45.2004L54.8994 55.2004V53.9004L102.499 43.9004V45.2004Z" fill="#A6677A"/>
</g>
<mask id="mask31_2516_81959" style="mask-type:luminance" maskUnits="userSpaceOnUse" x="54" y="15" width="49" height="92">
<path d="M54.8994 16.8002L58.4994 106.8H99.8994L102.499 15.7002L54.8994 16.8002Z" fill="white"/>
</mask>
<g mask="url(#mask31_2516_81959)">
<path d="M102.499 46.5002L54.8994 56.5002V55.2002L102.499 45.2002V46.5002Z" fill="#A56679"/>
</g>
<mask id="mask32_2516_81959" style="mask-type:luminance" maskUnits="userSpaceOnUse" x="54" y="15" width="49" height="92">
<path d="M54.8994 16.8002L58.4994 106.8H99.8994L102.499 15.7002L54.8994 16.8002Z" fill="white"/>
</mask>
<g mask="url(#mask32_2516_81959)">
<path d="M102.499 47.8L54.8994 57.8V56.5L102.499 46.5V47.8Z" fill="#A56578"/>
</g>
<mask id="mask33_2516_81959" style="mask-type:luminance" maskUnits="userSpaceOnUse" x="54" y="15" width="49" height="92">
<path d="M54.8994 16.8002L58.4994 106.8H99.8994L102.499 15.7002L54.8994 16.8002Z" fill="white"/>
</mask>
<g mask="url(#mask33_2516_81959)">
<path d="M102.499 49.0998L54.8994 59.0998V57.7998L102.499 47.7998V49.0998Z" fill="#A46477"/>
</g>
<mask id="mask34_2516_81959" style="mask-type:luminance" maskUnits="userSpaceOnUse" x="54" y="15" width="49" height="92">
<path d="M54.8994 16.8002L58.4994 106.8H99.8994L102.499 15.7002L54.8994 16.8002Z" fill="white"/>
</mask>
<g mask="url(#mask34_2516_81959)">
<path d="M102.499 50.4006L54.8994 60.4006V59.1006L102.499 49.1006V50.4006Z" fill="#A46376"/>
</g>
<mask id="mask35_2516_81959" style="mask-type:luminance" maskUnits="userSpaceOnUse" x="54" y="15" width="49" height="92">
<path d="M54.8994 16.8002L58.4994 106.8H99.8994L102.499 15.7002L54.8994 16.8002Z" fill="white"/>
</mask>
<g mask="url(#mask35_2516_81959)">
<path d="M102.499 51.7004L54.8994 61.8004V60.4004L102.499 50.4004V51.7004Z" fill="#A36275"/>
</g>
<mask id="mask36_2516_81959" style="mask-type:luminance" maskUnits="userSpaceOnUse" x="54" y="15" width="49" height="92">
<path d="M54.8994 16.8002L58.4994 106.8H99.8994L102.499 15.7002L54.8994 16.8002Z" fill="white"/>
</mask>
<g mask="url(#mask36_2516_81959)">
<path d="M102.499 53.0002L54.8994 63.1002V61.8002L102.499 51.7002V53.0002Z" fill="#A26174"/>
</g>
<mask id="mask37_2516_81959" style="mask-type:luminance" maskUnits="userSpaceOnUse" x="54" y="15" width="49" height="92">
<path d="M54.8994 16.8002L58.4994 106.8H99.8994L102.499 15.7002L54.8994 16.8002Z" fill="white"/>
</mask>
<g mask="url(#mask37_2516_81959)">
<path d="M102.499 54.3L54.8994 64.4V63.1L102.499 53V54.3Z" fill="#A26073"/>
</g>
<mask id="mask38_2516_81959" style="mask-type:luminance" maskUnits="userSpaceOnUse" x="54" y="15" width="49" height="92">
<path d="M54.8994 16.8002L58.4994 106.8H99.8994L102.499 15.7002L54.8994 16.8002Z" fill="white"/>
</mask>
<g mask="url(#mask38_2516_81959)">
<path d="M102.499 55.5998L54.8994 65.6998V64.3998L102.499 54.2998V55.5998Z" fill="#A15F72"/>
</g>
<mask id="mask39_2516_81959" style="mask-type:luminance" maskUnits="userSpaceOnUse" x="54" y="15" width="49" height="92">
<path d="M54.8994 16.8002L58.4994 106.8H99.8994L102.499 15.7002L54.8994 16.8002Z" fill="white"/>
</mask>
<g mask="url(#mask39_2516_81959)">
<path d="M102.499 56.9006L54.8994 67.0006V65.7006L102.499 55.6006V56.9006Z" fill="#A15E71"/>
</g>
<mask id="mask40_2516_81959" style="mask-type:luminance" maskUnits="userSpaceOnUse" x="54" y="15" width="49" height="92">
<path d="M54.8994 16.8002L58.4994 106.8H99.8994L102.499 15.7002L54.8994 16.8002Z" fill="white"/>
</mask>
<g mask="url(#mask40_2516_81959)">
<path d="M102.499 58.2004L54.8994 68.3004V67.0004L102.499 56.9004V58.2004Z" fill="#A05D70"/>
</g>
<mask id="mask41_2516_81959" style="mask-type:luminance" maskUnits="userSpaceOnUse" x="54" y="15" width="49" height="92">
<path d="M54.8994 16.8002L58.4994 106.8H99.8994L102.499 15.7002L54.8994 16.8002Z" fill="white"/>
</mask>
<g mask="url(#mask41_2516_81959)">
<path d="M102.499 59.5002L54.8994 69.6002V68.3002L102.499 58.2002V59.5002Z" fill="#A05C6F"/>
</g>
<mask id="mask42_2516_81959" style="mask-type:luminance" maskUnits="userSpaceOnUse" x="54" y="15" width="49" height="92">
<path d="M54.8994 16.8002L58.4994 106.8H99.8994L102.499 15.7002L54.8994 16.8002Z" fill="white"/>
</mask>
<g mask="url(#mask42_2516_81959)">
<path d="M102.499 60.8L54.8994 70.9V69.6L102.499 59.5V60.8Z" fill="#9F5B6F"/>
</g>
<mask id="mask43_2516_81959" style="mask-type:luminance" maskUnits="userSpaceOnUse" x="54" y="15" width="49" height="92">
<path d="M54.8994 16.8002L58.4994 106.8H99.8994L102.499 15.7002L54.8994 16.8002Z" fill="white"/>
</mask>
<g mask="url(#mask43_2516_81959)">
<path d="M102.499 62.0998L54.8994 72.1998V70.8998L102.499 60.7998V62.0998Z" fill="#9F5A6E"/>
</g>
<mask id="mask44_2516_81959" style="mask-type:luminance" maskUnits="userSpaceOnUse" x="54" y="15" width="49" height="92">
<path d="M54.8994 16.8002L58.4994 106.8H99.8994L102.499 15.7002L54.8994 16.8002Z" fill="white"/>
</mask>
<g mask="url(#mask44_2516_81959)">
<path d="M102.499 63.4006L54.8994 73.5006V72.2006L102.499 62.1006V63.4006Z" fill="#9E596D"/>
</g>
<mask id="mask45_2516_81959" style="mask-type:luminance" maskUnits="userSpaceOnUse" x="54" y="15" width="49" height="92">
<path d="M54.8994 16.8002L58.4994 106.8H99.8994L102.499 15.7002L54.8994 16.8002Z" fill="white"/>
</mask>
<g mask="url(#mask45_2516_81959)">
<path d="M102.499 64.7004L54.8994 74.8004V73.5004L102.499 63.4004V64.7004Z" fill="#9D586C"/>
</g>
<mask id="mask46_2516_81959" style="mask-type:luminance" maskUnits="userSpaceOnUse" x="54" y="15" width="49" height="92">
<path d="M54.8994 16.8002L58.4994 106.8H99.8994L102.499 15.7002L54.8994 16.8002Z" fill="white"/>
</mask>
<g mask="url(#mask46_2516_81959)">
<path d="M102.499 66.0002L54.8994 76.1002V74.8002L102.499 64.7002V66.0002Z" fill="#9D576B"/>
</g>
<mask id="mask47_2516_81959" style="mask-type:luminance" maskUnits="userSpaceOnUse" x="54" y="15" width="49" height="92">
<path d="M54.8994 16.8002L58.4994 106.8H99.8994L102.499 15.7002L54.8994 16.8002Z" fill="white"/>
</mask>
<g mask="url(#mask47_2516_81959)">
<path d="M102.499 67.3L54.8994 77.4V76.1L102.499 66V67.3Z" fill="#9C566A"/>
</g>
<mask id="mask48_2516_81959" style="mask-type:luminance" maskUnits="userSpaceOnUse" x="54" y="15" width="49" height="92">
<path d="M54.8994 16.8002L58.4994 106.8H99.8994L102.499 15.7002L54.8994 16.8002Z" fill="white"/>
</mask>
<g mask="url(#mask48_2516_81959)">
<path d="M102.499 68.5998L54.8994 78.6998V77.3998L102.499 67.2998V68.5998Z" fill="#9C5569"/>
</g>
<mask id="mask49_2516_81959" style="mask-type:luminance" maskUnits="userSpaceOnUse" x="54" y="15" width="49" height="92">
<path d="M54.8994 16.8002L58.4994 106.8H99.8994L102.499 15.7002L54.8994 16.8002Z" fill="white"/>
</mask>
<g mask="url(#mask49_2516_81959)">
<path d="M102.499 69.9006L54.8994 80.0006V78.7006L102.499 68.6006V69.9006Z" fill="#9B5468"/>
</g>
<mask id="mask50_2516_81959" style="mask-type:luminance" maskUnits="userSpaceOnUse" x="54" y="15" width="49" height="92">
<path d="M54.8994 16.8002L58.4994 106.8H99.8994L102.499 15.7002L54.8994 16.8002Z" fill="white"/>
</mask>
<g mask="url(#mask50_2516_81959)">
<path d="M102.499 71.2004L54.8994 81.3004V80.0004L102.499 69.9004V71.2004Z" fill="#9B5367"/>
</g>
<mask id="mask51_2516_81959" style="mask-type:luminance" maskUnits="userSpaceOnUse" x="54" y="15" width="49" height="92">
<path d="M54.8994 16.8002L58.4994 106.8H99.8994L102.499 15.7002L54.8994 16.8002Z" fill="white"/>
</mask>
<g mask="url(#mask51_2516_81959)">
<path d="M102.499 72.5002L54.8994 82.6002V81.3002L102.499 71.2002V72.5002Z" fill="#9A5266"/>
</g>
<mask id="mask52_2516_81959" style="mask-type:luminance" maskUnits="userSpaceOnUse" x="54" y="15" width="49" height="92">
<path d="M54.8994 16.8002L58.4994 106.8H99.8994L102.499 15.7002L54.8994 16.8002Z" fill="white"/>
</mask>
<g mask="url(#mask52_2516_81959)">
<path d="M102.499 73.9L54.8994 83.9V82.6L102.499 72.5V73.9Z" fill="#995165"/>
</g>
<mask id="mask53_2516_81959" style="mask-type:luminance" maskUnits="userSpaceOnUse" x="54" y="15" width="49" height="92">
<path d="M54.8994 16.8002L58.4994 106.8H99.8994L102.499 15.7002L54.8994 16.8002Z" fill="white"/>
</mask>
<g mask="url(#mask53_2516_81959)">
<path d="M102.499 75.2004L54.8994 85.2004V83.9004L102.499 73.9004V75.2004Z" fill="#995064"/>
</g>
<mask id="mask54_2516_81959" style="mask-type:luminance" maskUnits="userSpaceOnUse" x="54" y="15" width="49" height="92">
<path d="M54.8994 16.8002L58.4994 106.8H99.8994L102.499 15.7002L54.8994 16.8002Z" fill="white"/>
</mask>
<g mask="url(#mask54_2516_81959)">
<path d="M102.499 76.5002L54.8994 86.5002V85.2002L102.499 75.2002V76.5002Z" fill="#984F63"/>
</g>
<mask id="mask55_2516_81959" style="mask-type:luminance" maskUnits="userSpaceOnUse" x="54" y="15" width="49" height="92">
<path d="M54.8994 16.8002L58.4994 106.8H99.8994L102.499 15.7002L54.8994 16.8002Z" fill="white"/>
</mask>
<g mask="url(#mask55_2516_81959)">
<path d="M102.499 77.8L54.8994 87.8V86.5L102.499 76.5V77.8Z" fill="#984E62"/>
</g>
<mask id="mask56_2516_81959" style="mask-type:luminance" maskUnits="userSpaceOnUse" x="54" y="15" width="49" height="92">
<path d="M54.8994 16.8002L58.4994 106.8H99.8994L102.499 15.7002L54.8994 16.8002Z" fill="white"/>
</mask>
<g mask="url(#mask56_2516_81959)">
<path d="M102.499 79.0998L54.8994 89.0998V87.7998L102.499 77.7998V79.0998Z" fill="#974D61"/>
</g>
<mask id="mask57_2516_81959" style="mask-type:luminance" maskUnits="userSpaceOnUse" x="54" y="15" width="49" height="92">
<path d="M54.8994 16.8002L58.4994 106.8H99.8994L102.499 15.7002L54.8994 16.8002Z" fill="white"/>
</mask>
<g mask="url(#mask57_2516_81959)">
<path d="M102.499 80.4006L54.8994 90.4006V89.1006L102.499 79.1006V80.4006Z" fill="#974C60"/>
</g>
<mask id="mask58_2516_81959" style="mask-type:luminance" maskUnits="userSpaceOnUse" x="54" y="15" width="49" height="92">
<path d="M54.8994 16.8002L58.4994 106.8H99.8994L102.499 15.7002L54.8994 16.8002Z" fill="white"/>
</mask>
<g mask="url(#mask58_2516_81959)">
<path d="M102.499 81.7004L54.8994 91.7004V90.4004L102.499 80.4004V81.7004Z" fill="#964B5F"/>
</g>
<mask id="mask59_2516_81959" style="mask-type:luminance" maskUnits="userSpaceOnUse" x="54" y="15" width="49" height="92">
<path d="M54.8994 16.8002L58.4994 106.8H99.8994L102.499 15.7002L54.8994 16.8002Z" fill="white"/>
</mask>
<g mask="url(#mask59_2516_81959)">
<path d="M102.499 83.0002L54.8994 93.0002V91.7002L102.499 81.7002V83.0002Z" fill="#964A5F"/>
</g>
<mask id="mask60_2516_81959" style="mask-type:luminance" maskUnits="userSpaceOnUse" x="54" y="15" width="49" height="92">
<path d="M54.8994 16.8002L58.4994 106.8H99.8994L102.499 15.7002L54.8994 16.8002Z" fill="white"/>
</mask>
<g mask="url(#mask60_2516_81959)">
<path d="M102.499 84.3L54.8994 94.3V93L102.499 83V84.3Z" fill="#95495E"/>
</g>
<mask id="mask61_2516_81959" style="mask-type:luminance" maskUnits="userSpaceOnUse" x="54" y="15" width="49" height="92">
<path d="M54.8994 16.8002L58.4994 106.8H99.8994L102.499 15.7002L54.8994 16.8002Z" fill="white"/>
</mask>
<g mask="url(#mask61_2516_81959)">
<path d="M102.499 85.5998L54.8994 95.5998V94.2998L102.499 84.2998V85.5998Z" fill="#94485D"/>
</g>
<mask id="mask62_2516_81959" style="mask-type:luminance" maskUnits="userSpaceOnUse" x="54" y="15" width="49" height="92">
<path d="M54.8994 16.8002L58.4994 106.8H99.8994L102.499 15.7002L54.8994 16.8002Z" fill="white"/>
</mask>
<g mask="url(#mask62_2516_81959)">
<path d="M102.499 86.9006L54.8994 96.9006V95.6006L102.499 85.6006V86.9006Z" fill="#94475C"/>
</g>
<mask id="mask63_2516_81959" style="mask-type:luminance" maskUnits="userSpaceOnUse" x="54" y="15" width="49" height="92">
<path d="M54.8994 16.8002L58.4994 106.8H99.8994L102.499 15.7002L54.8994 16.8002Z" fill="white"/>
</mask>
<g mask="url(#mask63_2516_81959)">
<path d="M102.499 88.2004L54.8994 98.2004V96.9004L102.499 86.9004V88.2004Z" fill="#93465B"/>
</g>
<mask id="mask64_2516_81959" style="mask-type:luminance" maskUnits="userSpaceOnUse" x="54" y="15" width="49" height="92">
<path d="M54.8994 16.8002L58.4994 106.8H99.8994L102.499 15.7002L54.8994 16.8002Z" fill="white"/>
</mask>
<g mask="url(#mask64_2516_81959)">
<path d="M102.499 89.5002L54.8994 99.5002V98.2002L102.499 88.2002V89.5002Z" fill="#93455A"/>
</g>
<mask id="mask65_2516_81959" style="mask-type:luminance" maskUnits="userSpaceOnUse" x="54" y="15" width="49" height="92">
<path d="M54.8994 16.8002L58.4994 106.8H99.8994L102.499 15.7002L54.8994 16.8002Z" fill="white"/>
</mask>
<g mask="url(#mask65_2516_81959)">
<path d="M102.499 90.8L55.1994 100.7L54.8994 99.6V99.5L102.499 89.5V90.8Z" fill="#924459"/>
</g>
<mask id="mask66_2516_81959" style="mask-type:luminance" maskUnits="userSpaceOnUse" x="54" y="15" width="49" height="92">
<path d="M54.8994 16.8002L58.4994 106.8H99.8994L102.499 15.7002L54.8994 16.8002Z" fill="white"/>
</mask>
<g mask="url(#mask66_2516_81959)">
<path d="M102.499 92.0998L55.3992 102L55.1992 100.7L102.499 90.7998V92.0998Z" fill="#924358"/>
</g>
<mask id="mask67_2516_81959" style="mask-type:luminance" maskUnits="userSpaceOnUse" x="54" y="15" width="49" height="92">
<path d="M54.8994 16.8002L58.4994 106.8H99.8994L102.499 15.7002L54.8994 16.8002Z" fill="white"/>
</mask>
<g mask="url(#mask67_2516_81959)">
<path d="M102.499 93.4006L55.6994 103.201L55.3994 102.001L102.499 92.1006V93.4006Z" fill="#914257"/>
</g>
<mask id="mask68_2516_81959" style="mask-type:luminance" maskUnits="userSpaceOnUse" x="54" y="15" width="49" height="92">
<path d="M54.8994 16.8002L58.4994 106.8H99.8994L102.499 15.7002L54.8994 16.8002Z" fill="white"/>
</mask>
<g mask="url(#mask68_2516_81959)">
<path d="M56.4992 106.8L55.6992 103.2L102.499 93.4004V106.8H56.4992Z" fill="#914257"/>
</g>
</g>
<path d="M108.5 12.4004L107.5 14.6004L106.5 16.8004H49.9996L49.2996 14.6004L48.5996 12.4004H108.5Z" fill="#FAF3D7"/>
<path d="M99.0994 18.9004L97.3994 105.3L61.9994 105.6L60.3994 19.3004L99.0994 18.9004Z" fill="#29305E"/>
<path d="M99.0994 18.9004C79.4994 30.9004 71.4994 105.2 61.9994 105.6L60.3994 19.3004L99.0994 18.9004Z" fill="#1C254F"/>
<path d="M113.5 108.201V111.001L111.2 111.101L93.9995 111.201H92.6995H91.7995L87.2995 111.301L62.4995 111.501H60.8995L44.9995 111.601V108.201H45.3995L60.0995 106.801H78.8995H98.1995L113.5 108.201Z" fill="#FAF3D7"/>
<mask id="mask69_2516_81959" style="mask-type:luminance" maskUnits="userSpaceOnUse" x="45" y="106" width="69" height="6">
<path d="M113.499 108.201V111.101L113.299 109.701V109.001L110.799 109.201L66.2994 108.901L65.8994 108.801L45.3994 108.201L60.0994 106.801H78.8994H98.2994L113.499 108.201Z" fill="white"/>
</mask>
<g mask="url(#mask69_2516_81959)">
<path d="M62.0994 106.801L45.3994 108.901V106.801H62.0994Z" fill="#F2DDD8"/>
</g>
<mask id="mask70_2516_81959" style="mask-type:luminance" maskUnits="userSpaceOnUse" x="45" y="106" width="69" height="6">
<path d="M113.499 108.201V111.101L113.299 109.701V109.001L110.799 109.201L66.2994 108.901L65.8994 108.801L45.3994 108.201L60.0994 106.801H78.8994H98.2994L113.499 108.201Z" fill="white"/>
</mask>
<g mask="url(#mask70_2516_81959)">
<path d="M96.1994 106.801L62.3994 111.101H45.3994V108.901L62.0994 106.801H96.1994Z" fill="#F4DED9"/>
</g>
<mask id="mask71_2516_81959" style="mask-type:luminance" maskUnits="userSpaceOnUse" x="45" y="106" width="69" height="6">
<path d="M113.499 108.201V111.101L113.299 109.701V109.001L110.799 109.201L66.2994 108.901L65.8994 108.801L45.3994 108.201L60.0994 106.801H78.8994H98.2994L113.499 108.201Z" fill="white"/>
</mask>
<g mask="url(#mask71_2516_81959)">
<path d="M113.499 108.901L96.5994 111.101H62.3994L96.1994 106.801H113.499V108.901Z" fill="#F5DED9"/>
</g>
<mask id="mask72_2516_81959" style="mask-type:luminance" maskUnits="userSpaceOnUse" x="45" y="106" width="69" height="6">
<path d="M113.499 108.201V111.101L113.299 109.701V109.001L110.799 109.201L66.2994 108.901L65.8994 108.801L45.3994 108.201L60.0994 106.801H78.8994H98.2994L113.499 108.201Z" fill="white"/>
</mask>
<g mask="url(#mask72_2516_81959)">
<path d="M96.5996 111.1L113.5 108.9V111.1H96.5996Z" fill="#F6DFDA"/>
</g>
<path d="M54.9994 16.8008C55.4994 24.5008 55.8994 32.0008 56.2994 39.6008C56.6994 47.1008 57.0994 54.6008 57.4994 62.1008C57.8994 69.6008 58.1994 77.0008 58.3994 84.4008L58.8994 106.801L58.4994 106.301C61.9994 106.401 65.3994 106.401 68.8994 106.401C72.3994 106.401 75.7994 106.501 79.2994 106.401H89.4994L99.8994 106.301L99.3994 106.801L99.6994 84.0008L100.199 61.2008L100.499 49.8008L100.799 38.4008C100.999 30.8008 101.199 23.2008 101.599 15.6008L102.599 16.6008C94.7994 16.7008 86.9994 16.8008 79.0994 16.8008H54.9994ZM54.8994 16.7008L78.4994 15.7008C86.3994 15.3008 94.4994 15.1008 102.499 14.8008H103.499V15.8008C103.399 23.4008 103.099 31.0008 102.999 38.6008L102.699 50.0008L102.299 61.4008L101.399 84.0008L100.399 106.701V107.201H99.8994L89.4994 107.101H79.0994C75.5994 107.101 72.1994 107.101 68.6994 107.101C65.1994 107.101 61.7994 107.101 58.2994 107.201H57.8994V106.701L56.6994 84.0008C56.4994 76.6008 56.0994 69.0008 55.8994 61.5008C55.6994 54.0008 55.3994 46.4008 55.2994 39.0008C55.0994 31.5008 54.9994 24.0008 54.8994 16.7008Z" fill="#29305E"/>
<path d="M63.2996 105.7L52.9996 106.2L48.5996 106.4L35.8996 107L33.9996 75.8L33.6996 69.7L33.5996 67.9L32.3996 48.5L30.0996 9.2L34.3996 9L60.5996 17L63.2996 105.7Z" fill="#ACD2F1"/>
<path d="M63.3995 105.8L56.5995 106.5L53.0995 106.8L49.6995 107.1C45.0995 107.5 40.5995 107.8 35.9995 108.1L34.8995 108.2L34.7995 107C34.1995 98.9 33.5995 90.7 33.0995 82.6C32.5995 74.5 32.3995 66.3 32.0995 58.1C31.8995 49.9 31.5995 41.8 30.9995 33.6C30.4995 25.5 29.7995 17.3 29.0995 9.2L28.9995 8.3L29.8995 8.2L34.3995 8H34.4995L34.6995 8.1C39.0995 9.3 43.4995 10.6 47.8995 11.8C52.2995 13 56.6995 14.3 61.0995 15.6L62.0995 15.9V17C62.3995 24.5 62.6995 32 62.8995 39.5C62.9995 43.3 63.0995 47 63.1995 50.7L63.3995 61.9C63.3995 69.3 63.4995 76.7 63.4995 84C63.4995 91.4 63.4995 98.6 63.3995 105.8ZM63.1995 105.6C62.6995 98 62.1995 90.5 61.7995 83C61.2995 75.5 60.9995 68.2 60.5995 60.8L60.0995 49.8C59.8995 46.1 59.7995 42.5 59.6995 38.9C59.4995 31.6 59.2995 24.3 59.1995 17L60.1995 18.3C55.8995 17 51.4995 15.6 47.0995 14.2C42.7995 12.8 38.4995 11.4 34.0995 10H34.4995L30.0995 10.1L30.8995 9.2C31.1995 17.4 31.3995 25.5 31.8995 33.7C32.2995 41.8 32.9995 50 33.6995 58.1C34.3995 66.2 35.1995 74.4 35.5995 82.5C36.0995 90.6 36.4995 98.8 36.7995 107L35.5995 106C40.1995 105.9 44.7995 105.8 49.2995 105.7H52.6995H55.9995L63.1995 105.6Z" fill="#212C5F"/>
<path d="M63.2996 105.7L52.9996 106.2L48.5996 106.4L35.8996 107L33.9996 75.8L33.6996 69.7L33.5996 67.9L32.3996 48.5L30.0996 9.2L34.3996 9L60.5996 17L63.2996 105.7Z" fill="#ACD2F1"/>
<path d="M30.0996 9.20039L30.6996 20.4004L30.7996 20.8004V22.3004L30.9996 25.1004L32.3996 48.5004L33.5996 67.9004L33.6996 69.7004L33.9996 75.8004L35.8996 107L39.0996 106.8L37.3996 75.6004L37.0996 69.7004L36.8996 67.2004L35.8996 48.3004L34.3996 9.00039V8.90039L30.0996 9.20039Z" fill="#C6E0F6"/>
<path d="M63.2995 104.8L39.9995 104.4L63.2995 103.8V104.8Z" fill="#212C5F"/>
<path d="M63.1995 100.5L40.9995 100.2L63.1995 99.5V100.5Z" fill="#212C5F"/>
<path d="M63.1996 96.2002L42.0996 95.9002L63.1996 95.2002V96.2002Z" fill="#212C5F"/>
<path d="M63.0996 91.9004L43.0996 91.6004L63.0996 90.9004V91.9004Z" fill="#212C5F"/>
<path d="M62.9996 87.7002L44.0996 87.3002L62.9996 86.7002V87.7002Z" fill="#212C5F"/>
<path d="M62.9996 83.4004L45.0996 83.0004L62.9996 82.4004V83.4004Z" fill="#212C5F"/>
<path d="M62.8997 79.0996L46.1997 78.6996L62.8997 78.0996V79.0996Z" fill="#212C5F"/>
<path d="M62.8997 74.7998L47.1997 74.4998L62.8997 73.7998V74.7998Z" fill="#212C5F"/>
<path d="M62.7997 70.5996L48.1997 70.1996L62.7997 69.5996V70.5996Z" fill="#212C5F"/>
<path d="M62.6997 66.2998L49.1997 65.8998L62.6997 65.2998V66.2998Z" fill="#212C5F"/>
<path d="M62.6993 62L50.2993 61.6L62.6993 61V62Z" fill="#212C5F"/>
<path d="M62.5993 57.7002L51.2993 57.3002L62.5993 56.7002V57.7002Z" fill="#212C5F"/>
<path d="M62.4993 53.5L52.2993 53L62.4993 52.5V53.5Z" fill="#212C5F"/>
<path d="M62.4993 49.2002L53.2993 48.7002L62.4993 48.2002V49.2002Z" fill="#212C5F"/>
<path d="M62.3994 44.9004L54.3994 44.5004L62.3994 43.9004V44.9004Z" fill="#212C5F"/>
<path d="M62.3994 40.5996L55.3994 40.1996L62.3994 39.5996V40.5996Z" fill="#212C5F"/>
<path d="M62.2994 36.4004L56.3994 35.9004L62.2994 35.4004V36.4004Z" fill="#212C5F"/>
<path d="M62.1994 32.0996L57.3994 31.5996L62.1994 31.0996V32.0996Z" fill="#212C5F"/>
<path d="M62.1995 27.7998L58.4995 27.2998L62.1995 26.7998V27.7998Z" fill="#212C5F"/>
<path d="M62.0995 23.5L59.4995 23L62.0995 22.5V23.5Z" fill="#212C5F"/>
</svg>
