<?xml version="1.0" encoding="UTF-8"?><svg id="Layer_1" xmlns="http://www.w3.org/2000/svg" viewBox="0 0 271.2 278.09"><defs><style>.cls-1{fill:#212d5f;}</style></defs><path class="cls-1" d="M114.07,216.81c-3.74,0-7.34-.75-10.8-2.24-29.44-12.73-29.78-73.44-29.78-74.05,0-4.54,3.68-8.21,8.21-8.21s8.21,3.68,8.21,8.21c0,17.57,5.83,52.9,19.87,58.98,8.17,3.54,19.34-4.62,27.28-12.08,3.31-3.1,8.5-2.94,11.61,.36,3.11,3.31,2.94,8.5-.36,11.61-12.35,11.6-23.82,17.43-34.25,17.43Z"/><g><path class="cls-1" d="M81.16,119.9c-4.53,0-8.21-3.68-8.21-8.21v-22.81c0-4.54,3.68-8.21,8.21-8.21s8.21,3.68,8.21,8.21v22.81c0,4.54-3.68,8.21-8.21,8.21Z"/><path class="cls-1" d="M108.46,123.77c-.54,0-1.09-.05-1.64-.17-4.45-.9-7.32-5.24-6.42-9.68l9.11-44.9c.9-4.44,5.23-7.31,9.68-6.42,4.45,.9,7.32,5.24,6.42,9.68l-9.11,44.9c-.79,3.89-4.21,6.58-8.04,6.58Z"/><path class="cls-1" d="M135.71,132.21c-.89,0-1.8-.15-2.69-.45-4.29-1.48-6.56-6.16-5.07-10.45l18.88-54.5c1.49-4.28,6.16-6.56,10.45-5.07,4.29,1.48,6.56,6.16,5.07,10.45l-18.88,54.5c-1.18,3.39-4.36,5.53-7.76,5.53Z"/><path class="cls-1" d="M159.55,148.72c-1.06,0-2.13-.2-3.16-.64-4.18-1.75-6.16-6.56-4.41-10.74l17.98-43.03c1.75-4.18,6.56-6.16,10.74-4.41,4.18,1.75,6.16,6.56,4.41,10.74l-17.98,43.03c-1.32,3.15-4.37,5.05-7.58,5.05Z"/><path class="cls-1" d="M164.04,182.18c-2.23,0-4.45-.9-6.07-2.68-3.05-3.35-2.81-8.55,.55-11.6l26-23.67c3.35-3.05,8.54-2.81,11.6,.54,3.05,3.35,2.81,8.55-.55,11.6l-26,23.67c-1.57,1.43-3.55,2.14-5.53,2.14Z"/></g></svg>