<svg width="16" height="16" viewBox="0 0 16 16" fill="none" xmlns="http://www.w3.org/2000/svg">
<path d="M9.74609 11.0349L11.4745 14.3007" stroke="#39A9EA" stroke-width="1.5" stroke-linecap="round"/>
<mask id="path-3-inside-1_29_41687" fill="white">
<path fill-rule="evenodd" clip-rule="evenodd" d="M3.40056 2.7257C2.29517 3.4311 2.06275 5.04507 2.93044 5.99028L4.51178 7.71291C4.73947 7.96094 4.90138 8.2709 4.98187 8.61286L5.18756 9.48665C4.7456 9.9954 4.5464 10.709 4.68675 11.3943L4.70533 11.485C4.97975 12.8248 6.38726 13.4487 7.51543 12.7306L12.1896 9.75558C13.3177 9.03751 13.5314 7.38174 12.6161 6.44984L12.5541 6.38674C12.0781 5.90203 11.4033 5.73791 10.7736 5.9199L10.193 5.28744C9.9653 5.03941 9.80339 4.72945 9.72289 4.38749L9.16384 2.0125C8.85709 0.709323 7.47629 0.124815 6.3709 0.83021L3.40056 2.7257Z"/>
</mask>
<path d="M2.93044 5.99028L3.97858 4.87349L3.97858 4.87349L2.93044 5.99028ZM3.40056 2.7257L4.09694 4.05477L3.40056 2.7257ZM4.51178 7.71291L3.46364 8.8297L3.46364 8.8297L4.51178 7.71291ZM4.98187 8.61286L3.58111 9.05473L3.58111 9.05473L4.98187 8.61286ZM5.18756 9.48665L6.2223 10.5229L6.78403 9.87624L6.58832 9.04478L5.18756 9.48665ZM4.68675 11.3943L6.09758 10.9982L6.09758 10.9982L4.68675 11.3943ZM4.70533 11.485L3.2945 11.8811L3.2945 11.8811L4.70533 11.485ZM7.51543 12.7306L8.21032 14.0607L8.21032 14.0607L7.51543 12.7306ZM12.1896 9.75558L11.4947 8.42556L11.4947 8.42556L12.1896 9.75558ZM12.6161 6.44984L13.6315 5.29862L13.6315 5.29861L12.6161 6.44984ZM12.5541 6.38674L11.5387 7.53796L11.5387 7.53797L12.5541 6.38674ZM10.7736 5.9199L9.72544 7.0367L10.2905 7.65228L11.0918 7.42071L10.7736 5.9199ZM10.193 5.28744L9.14485 6.40423L9.14485 6.40424L10.193 5.28744ZM9.72289 4.38749L11.1237 3.94562L11.1237 3.94562L9.72289 4.38749ZM9.16384 2.0125L10.5646 1.57063L10.5646 1.57063L9.16384 2.0125ZM6.3709 0.83021L5.67451 -0.498858L6.3709 0.83021ZM3.97858 4.87349C3.76181 4.63735 3.81942 4.23187 4.09694 4.05477L2.70418 1.39664C0.77092 2.63032 0.363687 5.45279 1.8823 7.10708L3.97858 4.87349ZM5.55992 6.59611L3.97858 4.87349L1.8823 7.10708L3.46364 8.8297L5.55992 6.59611ZM6.38263 8.171C6.24183 7.57282 5.95854 7.03034 5.55992 6.59611L3.46364 8.8297C3.5204 8.89153 3.56093 8.96899 3.58111 9.05473L6.38263 8.171ZM6.58832 9.04478L6.38263 8.171L3.58111 9.05473L3.7868 9.92852L6.58832 9.04478ZM6.09758 10.9982C6.06277 10.8282 6.1116 10.6503 6.2223 10.5229L4.15281 8.45044C3.37959 9.34051 3.03003 10.5899 3.27592 11.7904L6.09758 10.9982ZM6.11616 11.0889L6.09758 10.9982L3.27592 11.7904L3.2945 11.8811L6.11616 11.0889ZM6.82053 11.4006C6.53752 11.5808 6.1847 11.4235 6.11616 11.0889L3.2945 11.8811C3.77481 14.2261 6.237 15.3167 8.21032 14.0607L6.82053 11.4006ZM11.4947 8.42556L6.82053 11.4006L8.21032 14.0607L12.8845 11.0856L11.4947 8.42556ZM11.6006 7.60106C11.8297 7.83424 11.7757 8.24666 11.4947 8.42556L12.8845 11.0856C14.8597 9.82835 15.2331 6.92924 13.6315 5.29862L11.6006 7.60106ZM11.5387 7.53797L11.6006 7.60107L13.6315 5.29861L13.5696 5.23552L11.5387 7.53797ZM11.0918 7.42071C11.2505 7.37486 11.4198 7.41692 11.5387 7.53796L13.5696 5.23552C12.7363 4.38713 11.5561 4.10096 10.4553 4.41909L11.0918 7.42071ZM9.14485 6.40424L9.72544 7.0367L11.8217 4.8031L11.2411 4.17064L9.14485 6.40424ZM8.32213 4.82935C8.46294 5.42753 8.74623 5.97 9.14485 6.40423L11.2411 4.17064C11.1844 4.10882 11.1438 4.03136 11.1237 3.94562L8.32213 4.82935ZM7.76308 2.45436L8.32213 4.82935L11.1237 3.94562L10.5646 1.57063L7.76308 2.45436ZM7.06728 2.15928C7.34245 1.98368 7.68634 2.12834 7.76308 2.45436L10.5646 1.57063C10.0278 -0.709693 7.61013 -1.73405 5.67451 -0.498858L7.06728 2.15928ZM4.09694 4.05477L7.06728 2.15928L5.67451 -0.498858L2.70418 1.39664L4.09694 4.05477Z" fill="#39A9EA" mask="url(#path-3-inside-1_29_41687)"/>
</svg>
