<svg width="24" height="24" viewBox="0 0 24 24" fill="none" xmlns="http://www.w3.org/2000/svg">
<path d="M7 10.25H5C3.87908 10.25 3.08544 9.94333 2.57105 9.42895C2.05667 8.91456 1.75 8.12092 1.75 7V5C1.75 3.87908 2.05667 3.08544 2.57105 2.57105C3.08544 2.05667 3.87908 1.75 5 1.75H7C8.12092 1.75 8.91456 2.05667 9.42895 2.57105C9.94333 3.08544 10.25 3.87908 10.25 5V7C10.25 8.12092 9.94333 8.91456 9.42895 9.42895C8.91456 9.94333 8.12092 10.25 7 10.25ZM5 2.25C4.15353 2.25 3.43049 2.4274 2.92895 2.92895C2.4274 3.43049 2.25 4.15353 2.25 5V7C2.25 7.84647 2.4274 8.56951 2.92895 9.07105C3.43049 9.5726 4.15353 9.75 5 9.75H7C7.84647 9.75 8.56951 9.5726 9.07105 9.07105C9.5726 8.56951 9.75 7.84647 9.75 7V5C9.75 4.15353 9.5726 3.43049 9.07105 2.92895C8.56951 2.4274 7.84647 2.25 7 2.25H5Z" fill="#464646" stroke="#FFC91B"/>
<path d="M19 10.25H17C15.8791 10.25 15.0854 9.94333 14.5711 9.42895C14.0567 8.91456 13.75 8.12092 13.75 7V5C13.75 3.87908 14.0567 3.08544 14.5711 2.57105C15.0854 2.05667 15.8791 1.75 17 1.75H19C20.1209 1.75 20.9146 2.05667 21.4289 2.57105C21.9433 3.08544 22.25 3.87908 22.25 5V7C22.25 8.12092 21.9433 8.91456 21.4289 9.42895C20.9146 9.94333 20.1209 10.25 19 10.25ZM17 2.25C16.1535 2.25 15.4305 2.4274 14.9289 2.92895C14.4274 3.43049 14.25 4.15353 14.25 5V7C14.25 7.84647 14.4274 8.56951 14.9289 9.07105C15.4305 9.5726 16.1535 9.75 17 9.75H19C19.8465 9.75 20.5695 9.5726 21.0711 9.07105C21.5726 8.56951 21.75 7.84647 21.75 7V5C21.75 4.15353 21.5726 3.43049 21.0711 2.92895C20.5695 2.4274 19.8465 2.25 19 2.25H17Z" fill="#464646" stroke="#212C5F"/>
<path d="M19 22.75H17C14.58 22.75 13.25 21.42 13.25 19V17C13.25 14.58 14.58 13.25 17 13.25H19C21.42 13.25 22.75 14.58 22.75 17V19C22.75 21.42 21.42 22.75 19 22.75ZM17 14.75C15.42 14.75 14.75 15.42 14.75 17V19C14.75 20.58 15.42 21.25 17 21.25H19C20.58 21.25 21.25 20.58 21.25 19V17C21.25 15.42 20.58 14.75 19 14.75H17Z" fill="#464646"/>
<path d="M7 22.75H5C2.58 22.75 1.25 21.42 1.25 19V17C1.25 14.58 2.58 13.25 5 13.25H7C9.42 13.25 10.75 14.58 10.75 17V19C10.75 21.42 9.42 22.75 7 22.75ZM5 14.75C3.42 14.75 2.75 15.42 2.75 17V19C2.75 20.58 3.42 21.25 5 21.25H7C8.58 21.25 9.25 20.58 9.25 19V17C9.25 15.42 8.58 14.75 7 14.75H5Z" fill="#464646"/>
</svg>
