<svg width="51" height="50" viewBox="0 0 51 50" fill="none" xmlns="http://www.w3.org/2000/svg">
<path d="M31.7709 30.7291V45.8124L6.77085 45.8541V30.7291L6.75 27.6041V14.7291C6.75 13.3333 7.45836 12.0415 8.6042 11.2707L16.9375 5.70825C18.3334 4.77075 20.1666 4.77075 21.5625 5.70825L29.8958 11.2707C31.0625 12.0415 31.75 13.3333 31.75 14.7291V27.6041L31.7709 30.7291Z" fill="#FACA3E"/>
<path d="M46.3346 44.2708H43.6888V38.0208C45.6679 37.3749 47.1055 35.5208 47.1055 33.3333V29.1666C47.1055 26.4374 44.8763 24.2083 42.1471 24.2083C39.4179 24.2083 37.1888 26.4374 37.1888 29.1666V33.3333C37.1888 35.4999 38.6054 37.3332 40.5429 37.9999V44.2708H4.66797C3.8138 44.2708 3.10547 44.9791 3.10547 45.8333C3.10547 46.6874 3.8138 47.3958 4.66797 47.3958H42.0221C42.0638 47.3958 42.0846 47.4166 42.1263 47.4166C42.1679 47.4166 42.1889 47.3958 42.2305 47.3958H46.3346C47.1888 47.3958 47.8971 46.6874 47.8971 45.8333C47.8971 44.9791 47.1888 44.2708 46.3346 44.2708Z" fill="#212C5F"/>
<path d="M31.7709 30.7292H6.77085L6.75 27.6042H31.75L31.7709 30.7292Z" fill="#212C5F"/>
<path d="M19.25 47.3958C18.3958 47.3958 17.6875 46.6874 17.6875 45.8333V38.0208C17.6875 37.1666 18.3958 36.4583 19.25 36.4583C20.1042 36.4583 20.8125 37.1666 20.8125 38.0208V45.8333C20.8125 46.6874 20.1042 47.3958 19.25 47.3958Z" fill="#212C5F"/>
<path d="M19.2513 22.3959C21.2648 22.3959 22.8971 20.7636 22.8971 18.7501C22.8971 16.7365 21.2648 15.1042 19.2513 15.1042C17.2378 15.1042 15.6055 16.7365 15.6055 18.7501C15.6055 20.7636 17.2378 22.3959 19.2513 22.3959Z" fill="#212C5F"/>
</svg>
