<svg width="24" height="24" viewBox="0 0 24 24" fill="none" xmlns="http://www.w3.org/2000/svg">
  <path d="M12 2.4c-1.5 0-2.8.5-4 1.4v5.2c-1.1-.2-2.4-.2-3.6.2-.2.1-.4.1-.5.2-.2.2-.3.5-.3.7V18c0 .6.5 1 1 1h14c.5 0 1-.4 1-1v-9c0-.5-.4-1-1-1h-2.3c.1-.7.1-1.3.1-1.9 0-5-4-9-9-9z" fill="#69C9F0"/>
  <path d="M17 1c-1.5 0-3 .5-4.2 1.5l-.3.2V1.5C12.5 1.2 13 1 13 1h2c.5 0 1 .4 1 1v5.2c-1.1-.2-2.4-.2-3.6.2-.2.1-.4.1-.5.2-.2.2-.3.5-.3.7V18c0 .5.4 1 1 1h2c.5 0 1-.4 1-1V1c0-.5-.5-1-1-1h-2z" fill="#FFFFFF"/>
</svg>
