<svg width="25" height="25" viewBox="0 0 25 25" fill="none" xmlns="http://www.w3.org/2000/svg">
<path d="M22.5 4.49902C21.72 4.96202 20.155 5.59302 19.235 5.77502C19.208 5.78202 19.186 5.79102 19.16 5.79802C18.347 4.99602 17.233 4.49902 16 4.49902C13.515 4.49902 11.5 6.51402 11.5 8.99902C11.5 9.13002 11.489 9.37102 11.5 9.49902C8.147 9.49902 5.595 7.74302 3.765 5.49902C3.566 5.99902 3.479 6.78902 3.479 7.53102C3.479 8.93202 4.574 10.308 6.279 11.161C5.965 11.242 5.619 11.3 5.259 11.3C4.678 11.3 4.063 11.147 3.5 10.683C3.5 10.7 3.5 10.716 3.5 10.734C3.5 12.692 5.578 14.025 7.426 14.396C7.051 14.617 6.295 14.639 5.926 14.639C5.666 14.639 4.746 14.52 4.5 14.474C5.014 16.079 6.868 16.981 8.635 17.013C7.253 18.097 6.294 18.499 3.464 18.499H2.5C4.288 19.645 6.565 20.5 8.847 20.5C16.277 20.5 20.5 14.837 20.5 9.49902C20.5 9.41302 20.498 9.23302 20.495 9.05202C20.495 9.03402 20.5 9.01702 20.5 8.99902C20.5 8.97202 20.492 8.94602 20.492 8.91902C20.489 8.78302 20.486 8.65602 20.483 8.59002C21.273 8.02002 21.958 7.30902 22.5 6.49902C21.775 6.82102 20.997 7.03702 20.18 7.13502C21.014 6.63502 22.199 5.44302 22.5 4.49902Z" fill="white"/>
</svg>
