<svg width="25" height="25" viewBox="0 0 25 25" fill="none" xmlns="http://www.w3.org/2000/svg">
<path d="M6.17969 2.5L7.6582 7.84375V10.4062H8.93945V7.84375L10.4375 2.5H9.14648L8.60938 4.93164C8.45838 5.64164 8.36236 6.14627 8.31836 6.44727H8.2793C8.2163 6.02627 8.12028 5.51788 7.98828 4.92188L7.4707 2.5H6.17969ZM11.9316 4.51758C11.4976 4.51758 11.1479 4.60239 10.8809 4.77539C10.6139 4.94739 10.417 5.22261 10.291 5.59961C10.166 5.97661 10.1035 6.47566 10.1035 7.09766V7.9375C10.1035 8.5525 10.1576 9.04502 10.2676 9.41602C10.3776 9.78702 10.5632 10.0603 10.8242 10.2363C11.0852 10.4123 11.4443 10.5 11.9023 10.5C12.3483 10.5 12.7029 10.4132 12.9629 10.2402C13.2229 10.0672 13.4113 9.79588 13.5273 9.42188C13.6433 9.04787 13.7012 8.5535 13.7012 7.9375V7.09766C13.7012 6.47666 13.6424 5.97947 13.5234 5.60547C13.4044 5.23247 13.215 4.95725 12.957 4.78125C12.699 4.60525 12.3586 4.51758 11.9316 4.51758ZM14.3789 4.63086V8.94531C14.3789 9.47931 14.4684 9.87205 14.6504 10.123C14.8324 10.374 15.115 10.5 15.498 10.5C16.05 10.5 16.4662 10.2332 16.7422 9.69922H16.7695L16.8828 10.4062H17.9004V4.63086H16.6016V9.21875C16.5516 9.32575 16.4751 9.41342 16.3711 9.48242C16.2671 9.55242 16.1599 9.58594 16.0469 9.58594C15.9149 9.58594 15.8207 9.53187 15.7637 9.42188C15.7067 9.31188 15.6777 9.12714 15.6777 8.86914V4.63086H14.3789ZM11.9023 5.41211C12.0843 5.41211 12.2132 5.50722 12.2852 5.69922C12.3572 5.89022 12.3926 6.19438 12.3926 6.60938V8.4082C12.3926 8.8352 12.3572 9.14403 12.2852 9.33203C12.2132 9.52003 12.0853 9.61423 11.9043 9.61523C11.7223 9.61523 11.5963 9.52003 11.5273 9.33203C11.4573 9.14403 11.4238 8.8352 11.4238 8.4082V6.60938C11.4238 6.19537 11.4593 5.89122 11.5312 5.69922C11.6032 5.50822 11.7263 5.41211 11.9023 5.41211ZM5.5 11.5C4.4 11.5 3.5 12.4 3.5 13.5V20.5C3.5 21.6 4.4 22.5 5.5 22.5H19.5C20.6 22.5 21.5 21.6 21.5 20.5V13.5C21.5 12.4 20.6 11.5 19.5 11.5H5.5ZM12.5488 13.5H13.6055V16.0684H13.6133C13.7083 15.8824 13.8445 15.7331 14.0195 15.6191C14.1945 15.5051 14.3839 15.4492 14.5859 15.4492C14.8459 15.4492 15.0493 15.5183 15.1973 15.6562C15.3453 15.7942 15.4535 16.0172 15.5195 16.3242C15.5855 16.6322 15.6172 17.0595 15.6172 17.6055V18.377H15.6191C15.6191 19.104 15.5305 19.6365 15.3555 19.9785C15.1805 20.3205 14.9081 20.4922 14.5371 20.4922C14.3301 20.4922 14.1427 20.4446 13.9727 20.3496C13.8027 20.2546 13.6748 20.124 13.5898 19.959H13.5664L13.4551 20.4199H12.5488V13.5ZM5.98633 13.7461H9.23828V14.6309H8.14844V20.4199H7.07617V14.6309H5.98633V13.7461ZM17.5977 15.4512C17.9737 15.4512 18.2628 15.5202 18.4648 15.6582C18.6658 15.7962 18.8076 16.0117 18.8906 16.3027C18.9726 16.5947 19.0137 16.9977 19.0137 17.5117V18.3477H17.1777V18.5957C17.1777 18.9087 17.1861 19.1428 17.2051 19.2988C17.2241 19.4548 17.2623 19.5696 17.3203 19.6406C17.3783 19.7126 17.4678 19.748 17.5898 19.748C17.7538 19.748 17.8667 19.6836 17.9277 19.5566C17.9887 19.4296 18.0223 19.2189 18.0273 18.9219L18.9746 18.9766C18.9796 19.0186 18.9824 19.0783 18.9824 19.1523C18.9824 19.6033 18.8583 19.9401 18.6113 20.1621C18.3643 20.3851 18.0174 20.4961 17.5664 20.4961C17.0254 20.4961 16.6457 20.3253 16.4277 19.9863C16.2097 19.6473 16.1016 19.1231 16.1016 18.4121V17.5605C16.1016 16.8285 16.2145 16.294 16.4395 15.957C16.6645 15.62 17.0517 15.4512 17.5977 15.4512ZM8.91016 15.5449H10.0098V19.125C10.0098 19.342 10.034 19.4978 10.082 19.5898C10.13 19.6828 10.2083 19.7285 10.3203 19.7285C10.4153 19.7285 10.5087 19.6996 10.5957 19.6406C10.6837 19.5826 10.7461 19.508 10.7891 19.418V15.5449H11.8887V20.4199H11.8867H11.0273L10.9336 19.8223H10.9082C10.6742 20.2743 10.3244 20.5 9.85742 20.5C9.53342 20.5 9.29658 20.3936 9.14258 20.1816C8.98858 19.9696 8.91016 19.6375 8.91016 19.1875V15.5449ZM17.5742 16.1934C17.4572 16.1934 17.3705 16.2289 17.3145 16.2969C17.2585 16.3659 17.2211 16.4788 17.2031 16.6348C17.1841 16.7908 17.1758 17.0277 17.1758 17.3457V17.6953H17.9785V17.3457C17.9785 17.0327 17.9683 16.7968 17.9473 16.6348C17.9273 16.4728 17.888 16.359 17.832 16.293C17.776 16.227 17.6912 16.1934 17.5742 16.1934ZM14.0918 16.2285C13.9858 16.2285 13.8888 16.2705 13.7988 16.3555C13.7088 16.4405 13.6444 16.5496 13.6074 16.6816V19.4492C13.6554 19.5342 13.7179 19.5976 13.7949 19.6406C13.8719 19.6826 13.9539 19.7051 14.0449 19.7051C14.1619 19.7051 14.2533 19.6631 14.3223 19.5781C14.3913 19.4931 14.4417 19.3504 14.4707 19.1484C14.4997 18.9474 14.5137 18.6675 14.5137 18.3125V17.6855C14.5137 17.3035 14.5025 17.0097 14.4785 16.8027C14.4545 16.5957 14.4116 16.4464 14.3516 16.3594C14.2906 16.2724 14.2038 16.2285 14.0918 16.2285Z" fill="white"/>
</svg>
